<svg id="Icons" height="512" viewBox="0 0 74 74" width="512" xmlns="http://www.w3.org/2000/svg"><path d="m36.64 72a1 1 0 0 1 -.462-.113l-31.115-16.222a1 1 0 0 1 -.538-.887v-34.686a1 1 0 0 1 .519-.876l31.114-17.092a1 1 0 0 1 .955 0l31.835 17.087a1 1 0 0 1 .527.881v34.686a1 1 0 0 1 -.546.891l-31.835 16.222a1 1 0 0 1 -.454.109zm-30.115-17.828 30.12 15.7 30.83-15.709v-33.473l-30.83-16.552-30.12 16.546z"/><path d="m20.884 29.458a1 1 0 0 1 -.479-.122l-15.359-8.366.954-1.756 14.88 8.105 30.931-16.857.957 1.756-31.406 17.118a1 1 0 0 1 -.478.122z"/><path d="m52.29 29.458a1 1 0 0 1 -.488-.127l-30.58-17.119.977-1.745 30.11 16.855 15.707-8.122.918 1.776-16.185 8.37a1 1 0 0 1 -.459.112z"/><path d="m19.884 28.458h2v34.397h-2z"/><path d="m36.64 55.778a1 1 0 0 1 -.484-.125l-31.115-17.231.969-1.75 30.643 16.97 31.357-16.475.931 1.771-31.841 16.726a1 1 0 0 1 -.46.114z"/><path d="m35.64 54.778h2v16.222h-2z"/><path d="m51.29 28.458h2v34.562h-2z"/><path d="m21.368 47.149-.968-1.749 15.24-8.441v-16.867h2v17.455a1 1 0 0 1 -.516.875z"/><path d="m43.465 32.951h2v17.919h-2z" transform="matrix(.487 -.873 .873 .487 -13.795 60.333)"/></svg>