<?xml version="1.0" encoding="iso-8859-1"?>
<!-- Generator: Adobe Illustrator 19.0.0, SVG Export Plug-In . SVG Version: 6.00 Build 0)  -->
<svg version="1.1" id="Capa_1" xmlns="http://www.w3.org/2000/svg" xmlns:xlink="http://www.w3.org/1999/xlink" x="0px" y="0px"
	 viewBox="0 0 456.795 456.795" style="enable-background:new 0 0 456.795 456.795;" xml:space="preserve">
<g>
	<g>
		<path d="M456.742,104.453v-0.64c-0.196-0.475-0.437-0.931-0.72-1.36l-0.4-0.56c-0.356-0.441-0.759-0.844-1.2-1.2
			c-0.594-0.405-1.24-0.728-1.92-0.96l-93.12-31.36c-1.661-0.561-3.459-0.561-5.12,0l-92,30.88c-0.661,0.289-1.28,0.665-1.84,1.12
			c-0.441,0.356-0.844,0.759-1.2,1.2l-0.4,0.56c-0.283,0.429-0.524,0.885-0.72,1.36v0.64c-0.071,0.611-0.071,1.229,0,1.84v109.44
			l-35.84,12.08c-0.68,0.232-1.326,0.555-1.92,0.96c-0.441,0.356-0.844,0.759-1.2,1.2l-0.4,0.56c-0.283,0.429-0.524,0.885-0.72,1.36
			v0.64c-0.071,0.611-0.071,1.229,0,1.84v16.8l-63.36-54.72c-1.322-1.137-2.979-1.812-4.72-1.92l-96.8-6.24
			c-0.69-0.091-1.39-0.091-2.08,0h-0.56l-1.52,0.64l-0.64,0.4l-3.92,2.4l-0.48,0.56c-0.381,0.494-0.703,1.031-0.96,1.6l-42.4,103.44
			c-1.246,3.088-0.45,6.625,2,8.88l72,66.72c0.643,0.566,1.372,1.025,2.16,1.36h0.56c0.771,0.282,1.58,0.444,2.4,0.48l98.16,2.88
			c3.259,0.016,6.202-1.946,7.44-4.96l29.92-73.12v46.8c-0.011,3.348,2.064,6.348,5.2,7.52l92.32,34.8
			c1.677,0.625,3.523,0.625,5.2,0l92-34.48c3.136-1.172,5.211-4.172,5.2-7.52v-107.2l36.16-13.52c3.136-1.172,5.211-4.172,5.2-7.52
			v-111.36c0,0,0.24-0.32,0.24-0.48l0,0C456.813,105.682,456.813,105.065,456.742,104.453z M144.182,210.933l54,46.96l-72.64-2.16
			l-53.36-49.44L144.182,210.933z M76.422,353.013l-58.88-55.12l35.68-87.2l59.52,55.12l-12.32,29.12L76.422,353.013z
			 M173.222,361.573l-81.12-2.4l35.68-87.28l81.12,2.4L173.222,361.573z M356.822,84.293l68.08,22.88l-68.08,25.2l-68.08-25.52
			L356.822,84.293z M272.902,118.293l75.92,28.48v94.32l-75.92-28.72V118.293z M307.862,369.333l-76-28.48v-94.24l76,28.48V369.333z
			 M315.542,260.933l-68.08-25.52l21.52-7.2l66.96,25.12l-4.24,1.6L315.542,260.933z M399.862,340.853l-76,28.48v-94.24l24.56-9.2
			l51.52-19.28L399.862,340.853z M440.822,212.373l-76,28.72v-94.32l76-28.48V212.373z"/>
	</g>
</g>
<g>
</g>
<g>
</g>
<g>
</g>
<g>
</g>
<g>
</g>
<g>
</g>
<g>
</g>
<g>
</g>
<g>
</g>
<g>
</g>
<g>
</g>
<g>
</g>
<g>
</g>
<g>
</g>
<g>
</g>
</svg>
