<svg id="Icons" height="512" viewBox="0 0 74 74" width="512" xmlns="http://www.w3.org/2000/svg"><path d="m40.977 65.7a1 1 0 0 1 -.377-1.93l22.1-8.836a1 1 0 1 1 .742 1.857l-22.09 8.836a1.007 1.007 0 0 1 -.375.073z"/><path d="m66.851 51.028a1 1 0 0 1 -1-1v-24.8a1 1 0 0 1 2 0v24.8a1 1 0 0 1 -1 1z"/><path d="m37 42.55a1 1 0 0 1 -1-1v-4.37a1 1 0 0 1 2 0v4.37a1 1 0 0 1 -1 1z"/><path d="m37 62.74a1 1 0 0 1 -1-1v-3.29a1 1 0 0 1 2 0v3.29a1 1 0 0 1 -1 1z"/><path d="m37 52.45a1 1 0 0 1 -1-1v-2.9a1 1 0 0 1 2 0v2.9a1 1 0 0 1 -1 1z"/><path d="m40.863 32.551a1 1 0 0 1 -.372-1.928l21.479-8.6a1 1 0 1 1 .744 1.857l-21.479 8.6a1 1 0 0 1 -.372.071z"/><path d="m33.023 65.7a1 1 0 0 1 -.372-.073l-21.951-8.792a1 1 0 0 1 .744-1.856l21.956 8.791a1 1 0 0 1 -.373 1.929z"/><path d="m37 42.55a1 1 0 0 1 -1-1v-4.37a1 1 0 0 1 2 0v4.37a1 1 0 0 1 -1 1z"/><path d="m37 62.74a1 1 0 0 1 -1-1v-3.29a1 1 0 0 1 2 0v3.29a1 1 0 0 1 -1 1z"/><path d="m37 52.45a1 1 0 0 1 -1-1v-2.9a1 1 0 0 1 2 0v2.9a1 1 0 0 1 -1 1z"/><path d="m33.137 32.551a1 1 0 0 1 -.372-.072l-21.479-8.6a1 1 0 1 1 .744-1.857l21.479 8.6a1 1 0 0 1 -.372 1.928z"/><path d="m7.149 51.413a1 1 0 0 1 -1-1v-25.184a1 1 0 1 1 2 0v25.184a1 1 0 0 1 -1 1z"/><path d="m11.579 20.158a1 1 0 0 1 -.412-1.912l21.5-9.686a1.029 1.029 0 0 1 1.417.912 1 1 0 0 1 -.676.947l-21.421 9.65a1.017 1.017 0 0 1 -.408.089z"/><path d="m62.421 20.158a1 1 0 0 1 -.41-.089l-21.47-9.669a1 1 0 0 1 .367-1.925 1.062 1.062 0 0 1 .423.088l21.5 9.686a1 1 0 0 1 -.412 1.912z"/><path d="m37 13.261a5.149 5.149 0 1 1 5.149-5.149 5.154 5.154 0 0 1 -5.149 5.149zm0-8.3a3.149 3.149 0 1 0 3.149 3.149 3.152 3.152 0 0 0 -3.149-3.147z"/><path d="m66.072 26.3a5.149 5.149 0 1 1 5.149-5.149 5.154 5.154 0 0 1 -5.149 5.149zm0-8.3a3.149 3.149 0 1 0 3.149 3.148 3.152 3.152 0 0 0 -3.149-3.148z"/><path d="m37 38.184a5.149 5.149 0 1 1 5.149-5.149 5.154 5.154 0 0 1 -5.149 5.149zm0-8.3a3.149 3.149 0 1 0 3.149 3.149 3.152 3.152 0 0 0 -3.149-3.147z"/><path d="m37 71.037a5.149 5.149 0 1 1 5.149-5.149 5.154 5.154 0 0 1 -5.149 5.149zm0-8.3a3.149 3.149 0 1 0 3.149 3.149 3.152 3.152 0 0 0 -3.149-3.147z"/><path d="m66.851 59.326a5.149 5.149 0 1 1 5.149-5.149 5.154 5.154 0 0 1 -5.149 5.149zm0-8.3a3.149 3.149 0 1 0 3.149 3.151 3.152 3.152 0 0 0 -3.149-3.149z"/><path d="m7.149 59.708a5.149 5.149 0 1 1 5.151-5.148 5.154 5.154 0 0 1 -5.151 5.148zm0-8.3a3.149 3.149 0 1 0 3.151 3.152 3.153 3.153 0 0 0 -3.151-3.15z"/><path d="m7.928 26.3a5.149 5.149 0 1 1 5.149-5.149 5.154 5.154 0 0 1 -5.149 5.149zm0-8.3a3.149 3.149 0 1 0 3.149 3.148 3.152 3.152 0 0 0 -3.149-3.148z"/></svg>