<svg id="Capa_1" enable-background="new 0 0 512 512" height="512" viewBox="0 0 512 512" width="512" xmlns="http://www.w3.org/2000/svg"><g><path d="m165.976 241h161c22.091 0 40-17.909 40-40v-161c0-22.091-17.909-40-40-40h-161c-22.091 0-40 17.909-40 40v161c0 22.091 17.909 40 40 40zm19.111-65.839 45.06-118.31c.043-.114.088-.228.134-.341 2.733-6.681 9.164-11.003 16.383-11.01h.018c7.212 0 13.643 4.307 16.387 10.978.056.136.11.273.162.411l44.65 118.315c2.925 7.751-.987 16.405-8.737 19.33-1.744.658-3.534.97-5.294.97-6.062 0-11.77-3.701-14.036-9.708l-7.458-19.762h-51.691l-7.543 19.804c-2.949 7.742-11.615 11.627-19.356 8.679-7.742-2.948-11.627-11.614-8.679-19.356z"/><path d="m246.629 97.863-14.538 38.172h28.943z"/><path d="m124.822 401.757s-23.569.018-25.945.027v34.653c9.635-.038 21.187-.08 25.945-.08 9.54 0 17.3-7.761 17.3-17.3s-7.76-17.3-17.3-17.3z"/><path d="m201 271h-161c-22.091 0-40 17.909-40 40v161c0 22.091 17.909 40 40 40h161c22.091 0 40-17.909 40-40v-161c0-22.091-17.909-40-40-40zm-76.178 195.357c-8.713 0-40.558.141-40.878.143-.022 0-.044 0-.066 0-3.966 0-7.771-1.571-10.583-4.37-2.828-2.815-4.417-6.641-4.417-10.63v-120c0-8.284 6.716-15 15-15h34.857c23.496 0 42.612 19.116 42.612 42.612 0 8.528-2.528 16.472-6.859 23.141 10.745 8.678 17.635 21.948 17.635 36.804 0 26.082-21.219 47.3-47.301 47.3z"/><path d="m131.347 359.112c0-6.955-5.658-12.612-12.612-12.612h-19.858v25.257s17.251-.033 19.857-.033c6.955 0 12.613-5.658 12.613-12.612z"/><path d="m472 271h-161c-22.091 0-40 17.909-40 40v161c0 22.091 17.909 40 40 40h161c22.091 0 40-17.909 40-40v-161c0-22.091-17.909-40-40-40zm-20.107 173.201c-1.975 2.355-4.124 4.571-6.386 6.586-11.541 10.28-26.378 15.713-42.907 15.713-41.355 0-75-33.645-75-75s33.645-75 75-75c15.027 0 29.531 4.432 41.944 12.817 6.865 4.638 8.67 13.962 4.033 20.827-4.638 6.864-13.962 8.67-20.827 4.033-7.434-5.022-16.13-7.677-25.15-7.677-24.813 0-45 20.187-45 45s20.187 45 45 45c9.185 0 16.908-2.73 22.953-8.115 1.181-1.052 2.309-2.216 3.354-3.462 5.324-6.348 14.784-7.178 21.132-1.854 6.347 5.323 7.177 14.784 1.854 21.132z"/></g></svg>