<svg id="Capa_1" enable-background="new 0 0 509.667 509.667" height="512" viewBox="0 0 509.667 509.667" width="512" xmlns="http://www.w3.org/2000/svg"><g id="XMLID_206_"><circle id="XMLID_215_" cx="118.917" cy="124.917" r="40.03"/><path id="XMLID_220_" d="m354.5 86.667h76.5v76.5h-76.5z"/><path id="XMLID_252_" d="m270.082 244.336h239.584v-244.336h-239.584zm190.918-187.669v136.5h-136.5v-136.5z"/><path id="XMLID_253_" d="m105.901 441.684h32v-31.235h31.235v-32h-31.235v-31.235h-32v31.235h-31.234v32h31.234z"/><path id="XMLID_269_" d="m240.082 244.336v-244.336h-.249-239.833v244.336zm-121.165-49.389c-38.615 0-70.03-31.416-70.03-70.03s31.416-70.03 70.03-70.03 70.03 31.416 70.03 70.03-31.416 70.03-70.03 70.03z"/><path id="XMLID_270_" d="m390.75 374.433-35.024 62.21h70.048z"/><path id="XMLID_277_" d="m240.082 274.336h-240.082v235.331h239.833.249zm-195.415 74.113h31.235v-31.235h92v31.235h31.235v92h-31.235v31.235h-92v-31.235h-31.235z"/><path id="XMLID_280_" d="m270.082 274.336v235.331h239.584v-235.331zm120.668 38.946 86.341 153.361h-172.682z"/></g></svg>