<svg id="Icons" height="512" viewBox="0 0 74 74" width="512" xmlns="http://www.w3.org/2000/svg"><path d="m56.5 31.47a1 1 0 0 1 -1-1v-2.91a1 1 0 0 1 2 0v2.91a1 1 0 0 1 -1 1z"/><path d="m53.5 72h-33a4 4 0 0 1 -4-4v-62a4 4 0 0 1 4-4h33a4 4 0 0 1 4 4v14.56a1 1 0 1 1 -2 0v-14.56a2 2 0 0 0 -2-2h-33a2 2 0 0 0 -2 2v62a2 2 0 0 0 2 2h33a2 2 0 0 0 2-2v-20.56a1 1 0 0 1 2 0v20.56a4 4 0 0 1 -4 4z"/><path d="m56.5 41.44a1 1 0 0 1 -1-1v-2.97a1 1 0 0 1 2 0v2.97a1 1 0 0 1 -1 1z"/><path d="m56.5 13.67h-39a1 1 0 0 1 0-2h39a1 1 0 0 1 0 2z"/><path d="m56.5 57.33h-39a1 1 0 0 1 0-2h39a1 1 0 0 1 0 2z"/><path d="m38.328 8.688h-7.208a1 1 0 1 1 0-2h7.208a1 1 0 0 1 0 2z"/><path d="m42.88 8.672h-.76a1 1 0 1 1 0-2h.76a1 1 0 0 1 0 2z"/><path d="m39.771 67h-5.542a3.4 3.4 0 0 1 0-6.792h5.542a3.4 3.4 0 0 1 0 6.792zm-5.542-4.792a1.4 1.4 0 0 0 0 2.792h5.542a1.4 1.4 0 0 0 0-2.792z"/><path d="m37 46a1 1 0 0 1 -1-1v-12.888a1 1 0 0 1 .644-.934l10.5-4a1 1 0 0 1 1.356.934v12.888a1 1 0 0 1 -.644.935l-10.5 4a1 1 0 0 1 -.356.065zm1-13.2v10.749l8.5-3.238v-10.748z"/><path d="m37 46a1 1 0 0 1 -.356-.065l-10.5-4a1 1 0 0 1 -.644-.935v-12.888a1 1 0 0 1 1.356-.934l10.5 4a1 1 0 0 1 .644.934v12.888a1 1 0 0 1 -1 1zm-9.5-5.689 8.5 3.238v-10.749l-8.5-3.238z"/><path d="m47.5 29.113a1 1 0 0 1 -.365-.07l-10.135-3.969-10.135 3.969a1 1 0 1 1 -.73-1.862l10.5-4.112a1 1 0 0 1 .73 0l10.5 4.112a1 1 0 0 1 -.365 1.932z"/></svg>