<svg id="Capa_1" enable-background="new 0 0 511.961 511.961" height="512" viewBox="0 0 511.961 511.961" width="512" xmlns="http://www.w3.org/2000/svg"><g><path d="m270.981 244.165v157.808l124.833-59.892-.002-157.805z"/><path d="m255.981 102.793-120.157 57.648 120.157 57.647 120.156-57.647z"/><path d="m489.965 120.063c0-5.77-3.31-11.028-8.512-13.524l-218.984-105.064c-4.102-1.967-8.875-1.967-12.977 0l-218.985 105.064c-5.202 2.496-8.511 7.755-8.511 13.524l-.003 271.834c0 5.77 3.31 11.028 8.512 13.524l218.989 105.065c2.051.983 4.27 1.475 6.488 1.475 2.219 0 4.438-.492 6.488-1.475l218.989-105.065c5.202-2.496 8.512-7.755 8.512-13.524zm-72.663 244.982-154.833 74.285c-2.051.983-4.27 1.476-6.488 1.476-2.219 0-4.438-.492-6.488-1.476l-154.834-74.285c-5.202-2.496-8.512-7.755-8.512-13.524l.002-191.081c0-5.77 3.31-11.028 8.511-13.525l154.832-74.284c4.102-1.967 8.875-1.967 12.977 0l154.831 74.284c5.202 2.496 8.512 7.755 8.512 13.525l.003 191.081c-.001 5.769-3.31 11.028-8.513 13.524z"/><path d="m116.147 342.081 124.834 59.892v-157.808l-124.832-59.889z"/></g></svg>