<svg id="Icons" height="512" viewBox="0 0 74 74" width="512" xmlns="http://www.w3.org/2000/svg"><path d="m45.425 60.012a1 1 0 0 1 -1-1v-23.123a1 1 0 1 1 2 0v23.123a1 1 0 0 1 -1 1z"/><path d="m39.421 30.885h-24.5a1 1 0 0 1 0-2h24.5a1 1 0 0 1 0 2z"/><path d="m22 66.02h-7.08a1 1 0 0 1 0-2h7.08a1 1 0 0 1 0 2z"/><path d="m39.42 66.02h-5.42a1 1 0 0 1 0-2h5.42a1 1 0 0 1 0 2z"/><path d="m29.03 66.02h-2.06a1 1 0 0 1 0-2h2.06a1 1 0 0 1 0 2z"/><path d="m8.915 60.012a1 1 0 0 1 -1-1v-23.123a1 1 0 0 1 2 0v23.123a1 1 0 0 1 -1 1z"/><path d="m36.582 10.2a1 1 0 0 1 -.025-2l22.027-.568h.025a1 1 0 0 1 .026 2l-22.028.568z"/><path d="m13.256 26.788a1 1 0 0 1 -.689-1.725l12.982-12.333a1 1 0 0 1 1.377 1.451l-12.982 12.332a.994.994 0 0 1 -.688.275z"/><path d="m39.421 30.885h-24.5a1 1 0 0 1 0-2h24.5a1 1 0 0 1 0 2z"/><path d="m49.481 26.463a1 1 0 0 1 -.737-1.675l11.034-12.048a1 1 0 0 1 1.475 1.35l-11.034 12.049a1 1 0 0 1 -.738.324z"/><path d="m65.06 39.972a1 1 0 0 1 -1-1v-24.015a1 1 0 1 1 2 0v24.015a1 1 0 0 1 -1 1z"/><path d="m49.6 61.675a1 1 0 0 1 -.719-1.7l11.16-11.517a1 1 0 0 1 1.438 1.392l-11.157 11.521a1 1 0 0 1 -.722.304z"/><path d="m30.6 16.348a6.995 6.995 0 1 1 6.994-6.994 7 7 0 0 1 -6.994 6.994zm0-11.989a4.995 4.995 0 1 0 4.994 4.995 5 5 0 0 0 -4.994-4.995z"/><path d="m64.573 15.988a6.994 6.994 0 1 1 6.994-6.994 7 7 0 0 1 -6.994 6.994zm0-11.988a4.994 4.994 0 1 0 4.994 4.994 5 5 0 0 0 -4.994-4.994z"/><path d="m65.08 51.97a6.994 6.994 0 1 1 6.994-6.994 7 7 0 0 1 -6.994 6.994zm0-11.988a4.994 4.994 0 1 0 4.994 4.994 5 5 0 0 0 -4.994-4.994z"/><path d="m8.92 36.884a6.994 6.994 0 1 1 6.994-6.994 7 7 0 0 1 -6.994 6.994zm0-11.988a4.994 4.994 0 1 0 4.994 4.994 5 5 0 0 0 -4.994-4.99z"/><path d="m8.92 72a6.994 6.994 0 1 1 6.994-6.994 7 7 0 0 1 -6.994 6.994zm0-11.988a4.994 4.994 0 1 0 4.994 4.994 5 5 0 0 0 -4.994-4.994z"/><path d="m45.431 36.884a6.994 6.994 0 1 1 6.993-6.994 7 7 0 0 1 -6.993 6.994zm0-11.988a4.994 4.994 0 1 0 4.993 4.994 5 5 0 0 0 -4.993-4.99z"/><path d="m30.578 51.97a6.994 6.994 0 1 1 6.994-6.994 7 7 0 0 1 -6.994 6.994zm0-11.988a4.994 4.994 0 1 0 4.994 4.994 5 5 0 0 0 -4.994-4.994z"/><path d="m45.431 72a6.994 6.994 0 1 1 6.993-6.994 7 7 0 0 1 -6.993 6.994zm0-11.988a4.994 4.994 0 1 0 4.993 4.994 5 5 0 0 0 -4.993-4.994z"/><path d="m59.1 45.976h-22.518a1 1 0 1 1 0-2h22.518a1 1 0 1 1 0 2z"/><path d="m30.578 39.972a1 1 0 0 1 -1-1v-23.61a1 1 0 1 1 2 0v23.61a1 1 0 0 1 -1 1z"/><path d="m13.256 61.838a1 1 0 0 1 -.675-1.738l12.9-11.8a1 1 0 1 1 1.35 1.476l-12.9 11.805a1 1 0 0 1 -.675.257z"/></svg>