<svg id="Capa_1" enable-background="new 0 0 507.286 507.286" height="512" viewBox="0 0 507.286 507.286" width="512" xmlns="http://www.w3.org/2000/svg"><path d="m479.033 128.685-25.983-14.995c-3.587-2.072-8.174-.841-10.245 2.747-2.07 3.588-.841 8.174 2.747 10.245l16.428 9.481-55.791 32.198-60.018-34.68 55.587-32.273 15.132 8.733c3.585 2.069 8.173.842 10.245-2.747 2.07-3.588.841-8.174-2.747-10.245l-165.805-95.691c-3.395-1.96-7.601-1.942-10.976.044l-165.87 97.544c-3.57 2.1-4.763 6.696-2.663 10.267 1.397 2.376 3.901 3.7 6.472 3.699 1.292 0 2.601-.334 3.795-1.036l16.405-9.648 54.852 31.697-60.453 35.255-54.892-31.377 13.187-7.755c3.57-2.1 4.763-6.696 2.663-10.267-2.101-3.571-6.7-4.763-10.267-2.663l-22.661 13.327c-3.315 1.95-5.374 5.551-5.374 9.396v231.031c0 3.902 2.104 7.529 5.491 9.464l219.404 125.417c1.671.956 3.542 1.434 5.412 1.434 1.885 0 3.77-.485 5.448-1.455l220.476-127.242c3.363-1.94 5.453-5.559 5.453-9.441v-231.023c0-3.883-2.09-7.501-5.452-9.441zm-308.339 98.201v60.626l-63.149-36.098v-60.626zm298.791-17.151-55.797 32.202v-60.585l55.797-32.202zm-70.797 40.858-63.148 36.445v-60.585l63.148-36.445zm-153.071 19.121v60.626l-59.923-34.254v-60.626zm15 77.883 59.923-34.583v60.584l-59.923 34.583zm0-17.319v-60.585l59.923-34.583v60.585zm-7.518-73.564-59.881-34.229 60.087-34.886 59.738 34.52zm-160.554-13.874-54.743-31.293v-60.626l54.743 31.293zm-54.744-14.016 54.743 31.293v60.625l-54.743-31.292zm69.744 39.867 63.149 36.098v60.625l-63.149-36.098zm78.149 44.673 59.923 34.254v60.625l-59.923-34.254zm59.923 112.156v61.866l-59.923-34.253v-61.866zm15-.021 59.923-34.583v61.825l-59.923 34.583zm74.923-43.239 63.148-36.444v61.824l-63.148 36.445zm0-17.319v-60.584l63.148-36.445v60.584zm78.148-105.686 55.797-32.202v60.584l-55.797 32.202zm-22.497-82.238-63.149 36.445-59.782-34.546 62.958-36.552zm-137.903-6.753-62.813-36.297 62.815-36.632 62.955 36.377zm77.912-45.235-62.988-36.396 55.416-32.317 63.151 36.446zm-78.048-109.386 55.51 32.036-55.408 32.311-55.243-31.921zm-132.547 77.947 62.549-36.783 55.18 31.885-62.814 36.632zm54.949 49.078 62.779 36.278-60.168 34.933-62.984-36.003zm-137.753 164.059 54.743 31.293v12.635c0 4.142 3.357 7.5 7.5 7.5s7.5-3.358 7.5-7.5v-4.06l63.149 36.098v61.866l-63.149-36.098v-21.828c0-4.142-3.357-7.5-7.5-7.5s-7.5 3.358-7.5 7.5v13.254l-54.743-31.292zm375.887 92.256v-61.824l55.797-32.202v61.824z"/></svg>