<svg id="Layer_1" enable-background="new 0 0 511.187 511.187" height="512" viewBox="0 0 511.187 511.187" width="512" xmlns="http://www.w3.org/2000/svg"><g><g><path d="m283.947 266.117h78.127v78.127h-78.127z" transform="matrix(.707 -.707 .707 .707 -121.188 317.788)"/><path d="m150.376 132.546h78.127v78.127h-78.127z" transform="matrix(.707 -.707 .707 .707 -65.861 184.216)"/><path d="m458.183 154.615v-138.448c0-8.929-7.238-16.167-16.167-16.167h-372.845c-8.929 0-16.167 7.238-16.167 16.167v136.037h52.529l71.89-71.89c6.637-6.637 17.397-6.637 24.034 0l74.301 74.3h182.425z"/><path d="m53.003 436.051h405.18v-247.447h-182.426l-74.3 74.3c-3.318 3.318-7.668 4.978-12.017 4.978s-8.699-1.66-12.017-4.978l-76.71-76.71h-47.71zm178.713-142.887 79.278-79.278c6.636-6.636 17.397-6.636 24.034 0l79.278 79.278c3.187 3.187 4.978 7.509 4.978 12.017s-1.791 8.83-4.978 12.017l-79.278 79.279c-3.186 3.188-7.51 4.978-12.017 4.978-4.508 0-8.83-1.79-12.017-4.978l-79.278-79.279c-6.637-6.637-6.637-17.398 0-24.034z"/><path d="m69.171 511.187h372.845c8.929 0 16.167-7.238 16.167-16.167v-24.98h-405.18v24.979c0 8.929 7.239 16.168 16.168 16.168z"/></g></g></svg>