<svg id="Capa_1" enable-background="new 0 0 510 510" height="512" viewBox="0 0 510 510" width="512" xmlns="http://www.w3.org/2000/svg"><g><path d="m390 240v-240h-270v240h-120v270h510v-270zm-240-210h210v210c-43.505 0-166.026 0-210 0zm90 450h-210v-210h210zm240 0h-210v-210h210z"/><path d="m315 435h120v-120h-120zm30-90h60v60h-60z"/><path d="m330 135c0-41.355-33.645-75-75-75s-75 33.645-75 75 33.645 75 75 75 75-33.645 75-75zm-120 0c0-24.813 20.186-45 45-45s45 20.187 45 45-20.186 45-45 45-45-20.186-45-45z"/><path d="m204.27 435-69.27-138.541-69.271 138.541zm-48.54-30h-41.459l20.729-41.459z"/></g></svg>