<svg id="Icons" height="512" viewBox="0 0 74 74" width="512" xmlns="http://www.w3.org/2000/svg"><path d="m37.011 72a1 1 0 0 1 -.5-.132l-29.053-16.646a1 1 0 0 1 -.5-.87l.065-34.71a1 1 0 0 1 .5-.865l28.99-16.644a1 1 0 0 1 1 0l29.029 16.644a1 1 0 0 1 .5.87l-.065 34.71a1 1 0 0 1 -.5.865l-28.968 16.645a1 1 0 0 1 -.498.133zm-28.055-18.225 28.054 16.072 27.971-16.072.063-33.552-28.033-16.07-27.992 16.071z"/><path d="m37.011 38a1 1 0 0 1 -.514-.142l-28.991-17.358 1.027-1.716 28.478 17.051 28.521-17.049 1.026 1.714-29.034 17.358a1 1 0 0 1 -.513.142z"/><path d="m36.011 37h2v34h-2z"/><path d="m37.011 55.354a1 1 0 0 1 -.526-.149l-14.015-8.663-13.989 8.658-1.053-1.7 14.043-8.7.039-16.583a1 1 0 0 1 .49-.849l14.5-8.583a1 1 0 0 1 1-.01l15.205 8.583a1 1 0 0 1 .508.871v17.137a1 1 0 0 1 -.491.861l-15.202 8.988a1 1 0 0 1 -.509.139zm-13.54-10.544 13.551 8.376 14.194-8.386v-15.988l-14.194-8.012-13.514 8z"/><path d="m58.098 41.641h2v16.439h-2z" transform="matrix(.547 -.837 .837 .547 -14.962 72.08)"/><path d="m36.011 3h2v16.645h-2z"/></svg>