<svg id="bold" enable-background="new 0 0 24 24" height="512" viewBox="0 0 24 24" width="512" xmlns="http://www.w3.org/2000/svg"><path d="m12 12c-.099 0-.198-.02-.292-.059l-11.25-4.75c-.277-.117-.458-.39-.458-.691s.181-.574.458-.691l11.25-4.75c.187-.079.396-.079.583 0l11.25 4.75c.278.117.459.39.459.691s-.181.574-.458.691l-11.25 4.75c-.094.039-.193.059-.292.059z"/><path d="m23.542 9.809-1.172-.495-9.494 4.009c-.277.117-.573.177-.876.177s-.599-.06-.877-.178l-9.492-4.008-1.173.495c-.277.117-.458.39-.458.691s.181.574.458.691l11.25 4.75c.094.039.193.059.292.059s.198-.02.292-.059l11.25-4.75c.277-.117.458-.39.458-.691s-.181-.574-.458-.691z"/><path d="m23.542 13.809-1.172-.495-9.494 4.009c-.277.117-.573.177-.876.177s-.599-.06-.877-.178l-9.492-4.008-1.172.495c-.278.117-.459.39-.459.691s.181.574.458.691l11.25 4.75c.094.039.193.059.292.059s.198-.02.292-.059l11.25-4.75c.277-.117.458-.39.458-.691s-.181-.574-.458-.691z"/><path d="m23.542 17.809-1.172-.495-9.494 4.009c-.277.117-.573.177-.876.177s-.599-.06-.877-.178l-9.492-4.008-1.172.495c-.278.117-.459.39-.459.691s.181.574.458.691l11.25 4.75c.094.039.193.059.292.059s.198-.02.292-.059l11.25-4.75c.277-.117.458-.39.458-.691s-.181-.574-.458-.691z"/></svg>