<?xml version="1.0" encoding="iso-8859-1"?>
<!-- Generator: Adobe Illustrator 19.0.0, SVG Export Plug-In . SVG Version: 6.00 Build 0)  -->
<svg version="1.1" id="Capa_1" xmlns="http://www.w3.org/2000/svg" xmlns:xlink="http://www.w3.org/1999/xlink" x="0px" y="0px"
	 viewBox="0 0 512 512" style="enable-background:new 0 0 512 512;" xml:space="preserve">
<g>
	<g>
		<path d="M382.996,170.703l-120.022-63.012c-4.366-2.292-9.582-2.292-13.948,0l-120.022,63.012
			c-0.067,0.035-0.131,0.076-0.197,0.112c-0.073,0.04-0.148,0.074-0.221,0.115c-4.502,2.554-7.53,7.385-7.603,12.847
			c-0.001,0.07-0.007,0.139-0.007,0.208v132.025h-0.001c0,5.173,2.664,9.981,7.051,12.722l120.022,75.014
			c0.106,0.066,0.216,0.123,0.323,0.186c4.922,2.905,10.916,2.729,15.58-0.186l120.022-75.014c4.387-2.741,7.051-7.549,7.051-12.722
			V183.987C391.025,178.53,387.996,173.34,382.996,170.703z M240.997,363.956l-90.017-56.26v-97.211l90.017,54.01V363.956z
			 M256,238.505l-89.408-53.645L256,137.92l89.408,46.94L256,238.505z M361.019,307.695l-90.017,56.26v-99.461l90.017-54.01V307.695
			z"/>
	</g>
</g>
<g>
	<g>
		<path d="M466.185,360.666H421.03c-8.481,0-15.356,6.875-15.356,15.356c0,8.481,6.874,15.356,15.356,15.356h14.318
			C393.04,447.418,326.546,481.288,256,481.288C131.776,481.288,30.712,380.225,30.712,256c0-17.735,2.512-36.113,7.678-56.183
			c2.114-8.213-2.83-16.585-11.043-18.698c-8.215-2.113-16.585,2.83-18.698,11.043C2.829,214.766,0.001,235.648,0.001,256
			c0,141.159,114.84,256,255.999,256c45.575,0,90.376-12.295,129.559-35.557c24.652-14.635,46.659-33.344,65.126-55.133
			c0.022,8.462,6.886,15.316,15.354,15.316c8.481,0,15.356-6.875,15.356-15.356v-43.126
			C482.679,368.935,475.527,360.666,466.185,360.666z"/>
	</g>
</g>
<g>
	<g>
		<path d="M256,0c-45.575,0-90.376,12.295-129.559,35.557c-24.657,14.638-46.668,33.352-65.138,55.146
			c-0.144-8.356-6.95-15.089-15.342-15.089c-8.481,0-15.356,6.875-15.356,15.356v45.154c0,9.273,8.182,16.493,17.478,15.211h43.031
			c8.481,0,15.356-6.875,15.356-15.356c0-8.481-6.874-15.357-15.355-15.357H76.652C118.96,64.582,185.454,30.712,256,30.712
			c124.224,0,225.288,101.064,225.288,225.288c0,17.735-2.512,36.113-7.678,56.183c-2.114,8.212,2.83,16.585,11.043,18.698
			c8.214,2.114,16.585-2.832,18.698-11.043c5.819-22.605,8.648-43.487,8.648-63.839C511.999,114.841,397.159,0,256,0z"/>
	</g>
</g>
<g>
</g>
<g>
</g>
<g>
</g>
<g>
</g>
<g>
</g>
<g>
</g>
<g>
</g>
<g>
</g>
<g>
</g>
<g>
</g>
<g>
</g>
<g>
</g>
<g>
</g>
<g>
</g>
<g>
</g>
</svg>
