<?xml version="1.0" encoding="iso-8859-1"?>
<!-- Generator: Adobe Illustrator 19.0.0, SVG Export Plug-In . SVG Version: 6.00 Build 0)  -->
<svg version="1.1" id="Capa_1" xmlns="http://www.w3.org/2000/svg" xmlns:xlink="http://www.w3.org/1999/xlink" x="0px" y="0px"
	 viewBox="0 0 512 512" style="enable-background:new 0 0 512 512;" xml:space="preserve">
<rect x="34.3" y="128" style="fill:#FFCE47;" width="221.7" height="256"/>
<rect x="256" y="128" style="fill:#FFB14E;" width="221.7" height="256"/>
<polygon style="fill:#FF755C;" points="256,255.996 216,383.998 256,512 477.7,383.998 "/>
<polygon style="fill:#FF9356;" points="34.3,383.998 256,512 256,255.996 "/>
<polygon style="fill:#FFCE47;" points="256,0 216,128.002 256,256.004 477.7,128.002 "/>
<polygon style="fill:#FFE290;" points="34.3,128.002 256,256.004 256,0 "/>
<rect x="154.3" y="197.29" style="fill:#FFA0C0;" width="101.7" height="117.43"/>
<rect x="256" y="197.29" style="fill:#FF755C;" width="101.7" height="117.43"/>
<polygon style="fill:#FF4181;" points="256,255.996 237.651,314.714 256,373.432 357.7,314.714 "/>
<polygon style="fill:#FF755C;" points="154.3,314.714 256,373.432 256,255.996 "/>
<polygon style="fill:#FFA0C0;" points="256,138.568 237.651,197.286 256,256.004 357.7,197.286 "/>
<polygon style="fill:#FFC0D5;" points="154.3,197.286 256,256.004 256,138.568 "/>
<g>
</g>
<g>
</g>
<g>
</g>
<g>
</g>
<g>
</g>
<g>
</g>
<g>
</g>
<g>
</g>
<g>
</g>
<g>
</g>
<g>
</g>
<g>
</g>
<g>
</g>
<g>
</g>
<g>
</g>
</svg>
