<?xml version="1.0" encoding="iso-8859-1"?>
<!-- Generator: Adobe Illustrator 19.0.0, SVG Export Plug-In . SVG Version: 6.00 Build 0)  -->
<svg version="1.1" id="Capa_1" xmlns="http://www.w3.org/2000/svg" xmlns:xlink="http://www.w3.org/1999/xlink" x="0px" y="0px"
	 viewBox="0 0 511.994 511.994" style="enable-background:new 0 0 511.994 511.994;" xml:space="preserve">
<g>
	<g>
		<path d="M249.95,267.388l-112.975,51.599l-78.256-35.915l85.532-39.666l-14.586-31.454L10.044,267.428
			C3.907,270.277-0.012,276.432,0,283.193c0.012,6.767,3.958,12.898,10.107,15.724l119.621,54.898
			c2.294,1.052,4.762,1.578,7.229,1.578c2.456,0,4.918-0.526,7.2-1.572l120.199-54.898L249.95,267.388z"/>
	</g>
</g>
<g>
	<g>
		<path d="M249.892,410.153l-112.917,52.113L34.673,414.822V283.158H0v142.736c0,6.75,3.918,12.892,10.044,15.73L129.664,497.1
			c2.312,1.069,4.802,1.606,7.293,1.606c2.479,0,4.964-0.532,7.27-1.601l120.199-55.476L249.892,410.153z"/>
	</g>
</g>
<g>
	<g>
		<rect x="119.621" y="340.946" width="34.673" height="138.691"/>
	</g>
</g>
<g>
	<g>
		<path d="M501.951,267.428l-119.615-55.476l-14.591,31.454l85.532,39.666l-78.25,35.915l-112.981-51.593l-14.406,31.535
			l120.204,54.898c2.283,1.04,4.739,1.566,7.2,1.566c2.468,0,4.941-0.526,7.223-1.578l119.615-54.898
			c6.149-2.826,10.096-8.957,10.107-15.724C512,276.432,508.088,270.271,501.951,267.428z"/>
	</g>
</g>
<g>
	<g>
		<path d="M477.322,283.158v131.67l-102.296,47.444l-112.917-52.113l-14.534,31.477l120.204,55.476
			c2.306,1.063,4.785,1.595,7.264,1.595c2.491,0,4.987-0.537,7.293-1.607l119.615-55.476c6.125-2.843,10.044-8.98,10.044-15.73
			V283.158H477.322z"/>
	</g>
</g>
<g>
	<g>
		<rect x="357.707" y="340.946" width="34.673" height="138.691"/>
	</g>
</g>
<g>
	<g>
		<path d="M382.914,70.372L263.293,14.896c-4.623-2.144-9.957-2.144-14.586,0L129.086,70.372
			c-6.137,2.849-10.061,8.998-10.044,15.764c0.017,6.767,3.964,12.904,10.107,15.724l119.621,54.898
			c2.294,1.052,4.762,1.578,7.229,1.578s4.935-0.526,7.229-1.578L382.85,101.86c6.149-2.826,10.096-8.957,10.107-15.724
			C392.969,79.369,389.056,73.221,382.914,70.372z M256,121.924l-78.239-35.904L256,49.736l78.239,36.285L256,121.924z"/>
	</g>
</g>
<g>
	<g>
		<path d="M358.284,86.102v131.664L256,265.203l-102.284-47.438V86.102h-34.673v142.736c0,6.75,3.918,12.887,10.044,15.724
			l119.621,55.482c2.312,1.069,4.802,1.607,7.293,1.607s4.981-0.537,7.293-1.601l119.627-55.482
			c6.12-2.843,10.038-8.98,10.038-15.73V86.102H358.284z"/>
	</g>
</g>
<g>
	<g>
		<rect x="238.664" y="143.889" width="34.673" height="282.582"/>
	</g>
</g>
<g>
</g>
<g>
</g>
<g>
</g>
<g>
</g>
<g>
</g>
<g>
</g>
<g>
</g>
<g>
</g>
<g>
</g>
<g>
</g>
<g>
</g>
<g>
</g>
<g>
</g>
<g>
</g>
<g>
</g>
</svg>
