<svg viewBox="1 1 511.99901 511.99901" xmlns="http://www.w3.org/2000/svg"><path d="m505.46875 363.558594c4.070312-4.789063 6.53125-10.988282 6.53125-17.75v-318.332032c0-15.152343-12.324219-27.476562-27.476562-27.476562h-318.332032c-7.910156 0-15.050781 3.367188-20.066406 8.734375l-137.046875 137.070313c-.917969.824218-1.773437 1.714843-2.570313 2.65625-.082031.097656-.167968.191406-.25.289062-3.90625 4.75-6.257812 10.824219-6.257812 17.441406v318.332032c0 15.152343 12.324219 27.476562 27.476562 27.476562h318.332032c6.382812 0 12.261718-2.195312 16.929687-5.859375.050781-.042969.101563-.078125.152344-.121094 1.4375-1.144531 2.757813-2.425781 3.9375-3.828125l137.066406-136.917968.09375-.09375.371094-.367188c.113281-.117188.214844-.242188.324219-.363281.125-.132813.242187-.265625.363281-.398438.140625-.164062.289063-.324219.421875-.492187zm-336.730469-194.820313h174.523438v174.523438h-174.523438zm204.546875-9.066406 108.691406-108.6875v292.273437h-108.691406zm-21.503906-20.957031h-183.042969v-108.691406h291.734375zm-213.066406 0h-80.089844l80.089844-80.105469zm-108.691406 30.023437h108.691406v183.316407l-108.691406 108.691406zm129.921874 204.546875h183.316407v108.691406h-292.007813zm213.339844 0h80.105469l-80.105469 80.019532zm0 0"/></svg>