<?xml version="1.0" encoding="iso-8859-1"?>
<!-- Generator: Adobe Illustrator 19.0.0, SVG Export Plug-In . SVG Version: 6.00 Build 0)  -->
<svg version="1.1" id="Capa_1" xmlns="http://www.w3.org/2000/svg" xmlns:xlink="http://www.w3.org/1999/xlink" x="0px" y="0px"
	 viewBox="0 0 489.255 489.255" style="enable-background:new 0 0 489.255 489.255;" xml:space="preserve">
<polygon style="fill:#ED6262;" points="365.692,69.88 365.692,209.672 244.519,279.49 244.519,279.335 123.656,209.672 
	123.656,69.88 244.674,0.062 "/>
<polygon style="fill:#CD484B;" points="123.609,69.88 244.658,0 365.723,69.88 365.723,69.88 244.658,139.776 "/>
<polygon style="fill:#FFBD49;" points="486.71,279.49 486.71,419.281 365.847,489.255 365.692,489.255 244.674,419.281 
	244.674,279.49 365.692,209.672 "/>
<polygon style="fill:#EC9821;" points="244.658,279.568 365.723,209.672 486.772,279.568 486.772,279.568 365.723,349.448 "/>
<polygon style="fill:#3AA2EB;" points="244.674,279.49 244.674,419.281 123.656,489.255 2.482,419.281 2.482,279.49 
	123.656,209.672 "/>
<polygon style="fill:#0F71C7;" points="2.56,279.568 123.609,209.672 244.658,279.568 244.658,279.568 123.609,349.448 "/>
<path style="fill:#F9B548;" d="M486.71,371.805v47.476l-120.863,69.973l-30.41-52.596c-2.638-4.655-0.931-10.55,3.879-13.033
	c4.655-2.327,10.085-0.31,12.722,4.034l6.982,12.257c2.327,3.879,7.292,4.965,11.171,2.638c0,0,0,0,0.155,0c0,0,0,0,0-0.155
	c4.034-2.172,5.585-6.982,3.413-10.861l-7.758-13.343c-2.638-4.655-0.776-10.55,3.879-13.033c4.655-2.327,10.24-0.31,12.722,4.034
	l6.516,11.326c2.777,4.794,9.154,5.275,11.481,2.948c3.662-1.226,5.927-6.718,3.413-11.016l-8.688-15.205
	c-2.793-4.655-1.086-10.55,3.879-13.033c4.499-2.327,10.085-0.31,12.567,4.189l14.584,25.135c2.172,3.724,6.982,4.81,10.55,2.482
	c4.546-2.265,5.554-7.339,3.413-11.171l-13.964-24.204c-2.482-4.499-0.931-10.24,3.568-12.878c4.344-2.638,9.93-1.086,12.722,3.258
	l9.309,16.291c2.638,4.499,8.223,6.516,12.722,4.189c4.81-2.482,6.516-8.378,3.879-13.033l-13.964-24.359
	c-2.793-4.655-0.931-10.705,3.879-13.188c4.499-2.172,10.085-0.155,12.567,4.189C471.831,346.5,485.686,370.781,486.71,371.805z"/>
<path style="fill:#EF6A6A;" d="M365.692,162.351v47.321L244.519,279.49v-0.155l-30.255-52.286
	c-2.638-4.655-0.931-10.705,3.879-13.188c4.499-2.172,10.085-0.155,12.722,4.189l6.982,12.257c2.327,3.879,7.292,4.965,11.171,2.638
	c0,0,0,0,0-0.155c0.155,0,0.155,0,0.155,0c4.034-2.172,5.585-6.982,3.258-11.016l-7.602-13.188
	c-2.638-4.655-0.931-10.705,3.879-13.188c4.655-2.327,10.24-0.31,12.722,4.189l6.516,11.326c2.327,3.879,7.447,5.275,11.326,2.948
	h0.155c4.794-3.181,5.43-7.571,3.413-11.016l-8.844-15.205c-2.638-4.655-0.931-10.705,3.879-13.188
	c4.655-2.327,10.085-0.155,12.722,4.189l14.429,25.135c2.172,3.724,7.137,4.965,10.705,2.482c4.965-3.305,5.477-7.494,3.413-11.016
	l-13.964-24.359c-2.638-4.499-1.086-10.24,3.413-12.722c4.499-2.638,10.085-1.086,12.722,3.103l9.464,16.446
	c2.638,4.344,8.223,6.516,12.722,4.189c4.81-2.482,6.516-8.533,3.879-13.188l-14.119-24.359c-2.638-4.655-0.931-10.55,3.879-13.033
	c4.655-2.327,10.24-0.31,12.722,4.189C350.86,137.232,364.42,161.094,365.692,162.351z"/>
<path style="fill:#41ACEF;" d="M154.065,436.658l-30.41,52.596L2.482,419.281v-47.166c0.621-0.465,1.086-1.086,1.396-1.707
	l14.584-25.29c2.482-4.344,8.068-6.361,12.567-4.189c4.81,2.482,6.516,8.533,3.879,13.188l-13.964,24.359
	c-2.793,4.655-0.931,10.55,3.879,13.033c4.499,2.327,10.085,0.31,12.567-4.189l9.464-16.291c2.638-4.344,8.378-5.896,12.722-3.258
	c4.499,2.638,6.051,8.378,3.568,12.878l-14.119,24.204c-2.172,3.879-0.776,8.688,2.948,10.861c5.415,2.715,9.123,1.35,11.171-2.172
	l14.584-25.135c2.482-4.499,8.068-6.516,12.567-4.189c4.81,2.482,6.672,8.378,3.879,13.033l-8.688,15.205
	c-2.513,4.298-0.248,9.79,3.413,11.016v0.155c4.034,2.327,9.154,0.931,11.481-3.103l6.516-11.326
	c2.482-4.344,8.068-6.361,12.722-4.034c4.655,2.482,6.516,8.378,3.879,13.033l-7.758,13.343c-2.172,3.879-0.621,8.688,3.413,10.861
	c0,0.155,0,0.155,0,0.155c0.155,0,0.155,0,0.155,0c3.879,2.327,8.844,1.241,11.171-2.638l6.982-12.257
	c2.482-4.344,8.068-6.361,12.722-4.034C154.996,426.108,156.703,432.004,154.065,436.658z"/>
<g>
</g>
<g>
</g>
<g>
</g>
<g>
</g>
<g>
</g>
<g>
</g>
<g>
</g>
<g>
</g>
<g>
</g>
<g>
</g>
<g>
</g>
<g>
</g>
<g>
</g>
<g>
</g>
<g>
</g>
</svg>
