<?xml version="1.0" encoding="iso-8859-1"?>
<!-- Generator: Adobe Illustrator 19.0.0, SVG Export Plug-In . SVG Version: 6.00 Build 0)  -->
<svg version="1.1" id="Capa_1" xmlns="http://www.w3.org/2000/svg" xmlns:xlink="http://www.w3.org/1999/xlink" x="0px" y="0px"
	 viewBox="0 0 448 448" style="enable-background:new 0 0 448 448;" xml:space="preserve">
<path style="fill:#597BF9;" d="M384,192h-96c-17.672,0-32-14.328-32-32V64c0-17.672,14.328-32,32-32h96c17.672,0,32,14.328,32,32v96
	C416,177.672,401.672,192,384,192z"/>
<path style="fill:#B9C8FF;" d="M160,384H96c-17.672,0-32-14.328-32-32v-64c0-17.672,14.328-32,32-32h64c17.672,0,32,14.328,32,32v64
	C192,369.672,177.672,384,160,384z"/>
<g>
	<path style="fill:#FFE67D;" d="M416,448H288c-17.672,0-32-14.328-32-32V288c0-17.672,14.328-32,32-32h128c17.672,0,32,14.328,32,32
		v128C448,433.672,433.672,448,416,448z"/>
	<path style="fill:#FFE67D;" d="M160,192H32c-17.672,0-32-14.328-32-32V32C0,14.328,14.328,0,32,0h128c17.672,0,32,14.328,32,32v128
		C192,177.672,177.672,192,160,192z"/>
</g>
<g>
</g>
<g>
</g>
<g>
</g>
<g>
</g>
<g>
</g>
<g>
</g>
<g>
</g>
<g>
</g>
<g>
</g>
<g>
</g>
<g>
</g>
<g>
</g>
<g>
</g>
<g>
</g>
<g>
</g>
</svg>
