<?xml version="1.0" encoding="iso-8859-1"?>
<!-- Generator: Adobe Illustrator 19.0.0, SVG Export Plug-In . SVG Version: 6.00 Build 0)  -->
<svg version="1.1" id="Layer_1" xmlns="http://www.w3.org/2000/svg" xmlns:xlink="http://www.w3.org/1999/xlink" x="0px" y="0px"
	 viewBox="0 0 330 330" style="enable-background:new 0 0 330 330;" xml:space="preserve">
<path id="XMLID_107_" d="M309.895,89.795c-0.002-0.155-0.009-0.309-0.016-0.463c-0.013-0.296-0.035-0.589-0.065-0.882
	c-0.015-0.136-0.023-0.271-0.041-0.407c-0.051-0.389-0.121-0.774-0.201-1.156c-0.032-0.151-0.07-0.301-0.108-0.452
	c-0.075-0.309-0.16-0.615-0.256-0.917c-0.033-0.108-0.063-0.218-0.1-0.327c-0.135-0.399-0.291-0.79-0.458-1.174
	c-0.047-0.107-0.096-0.213-0.145-0.318c-0.378-0.816-0.829-1.596-1.347-2.331c-0.066-0.095-0.133-0.19-0.202-0.283
	c-0.25-0.338-0.51-0.668-0.788-0.984c-0.076-0.087-0.156-0.167-0.234-0.252c-0.215-0.233-0.435-0.459-0.665-0.678
	c-0.112-0.108-0.224-0.215-0.339-0.319c-0.289-0.261-0.588-0.513-0.898-0.751c-0.109-0.085-0.225-0.161-0.336-0.242
	c-0.236-0.171-0.479-0.336-0.727-0.494c-0.131-0.084-0.263-0.168-0.396-0.248c-0.059-0.035-0.113-0.073-0.172-0.107L172.5,2.01
	c-4.641-2.68-10.359-2.68-15,0l-129.902,75c-0.055,0.032-0.108,0.068-0.162,0.101c-0.142,0.084-0.28,0.173-0.42,0.262
	c-0.236,0.151-0.467,0.309-0.693,0.473c-0.121,0.087-0.244,0.17-0.362,0.26c-0.307,0.236-0.601,0.484-0.886,0.741
	c-0.12,0.107-0.235,0.219-0.352,0.331c-0.225,0.215-0.44,0.436-0.649,0.663c-0.082,0.088-0.166,0.172-0.246,0.263
	c-0.276,0.314-0.534,0.643-0.782,0.978c-0.071,0.096-0.139,0.192-0.208,0.29c-0.517,0.734-0.966,1.513-1.343,2.328
	c-0.05,0.106-0.099,0.212-0.146,0.319c-0.167,0.385-0.323,0.775-0.458,1.174c-0.037,0.108-0.066,0.218-0.101,0.327
	c-0.095,0.303-0.18,0.608-0.256,0.917c-0.036,0.151-0.074,0.301-0.107,0.452c-0.08,0.382-0.15,0.766-0.201,1.155
	c-0.018,0.136-0.026,0.272-0.041,0.408c-0.03,0.292-0.053,0.585-0.065,0.881c-0.007,0.155-0.014,0.309-0.016,0.463
	c-0.001,0.068-0.007,0.136-0.007,0.205v150c0,5.359,2.859,10.311,7.5,12.99l129.902,75c0.06,0.035,0.122,0.064,0.182,0.097
	c0.134,0.075,0.27,0.146,0.406,0.216c0.264,0.138,0.531,0.266,0.802,0.387c0.123,0.055,0.243,0.114,0.368,0.166
	c0.363,0.151,0.732,0.283,1.105,0.404c0.145,0.047,0.292,0.089,0.439,0.132c0.308,0.089,0.617,0.169,0.929,0.239
	c0.11,0.025,0.218,0.054,0.329,0.076c0.413,0.082,0.83,0.143,1.248,0.19c0.115,0.013,0.23,0.023,0.347,0.034
	c0.447,0.041,0.896,0.068,1.346,0.068s0.898-0.027,1.346-0.068c0.116-0.01,0.231-0.021,0.347-0.034
	c0.418-0.048,0.835-0.108,1.248-0.19c0.111-0.022,0.219-0.052,0.329-0.076c0.312-0.069,0.621-0.149,0.929-0.239
	c0.148-0.043,0.294-0.085,0.439-0.132c0.372-0.121,0.741-0.253,1.105-0.404c0.125-0.052,0.245-0.111,0.368-0.166
	c0.271-0.121,0.538-0.249,0.802-0.387c0.137-0.07,0.272-0.142,0.406-0.216c0.059-0.034,0.122-0.063,0.182-0.097l129.902-75
	c4.641-2.679,7.5-7.631,7.5-12.99V90C309.902,89.932,309.896,89.864,309.895,89.795z M165,32.32L264.902,90L165,147.68L65.098,90
	L165,32.32z M50.098,115.98L150,173.66v115.359l-99.902-57.68V115.98z M180,289.019V173.66l99.902-57.68V231.34L180,289.019z"/>
<g>
</g>
<g>
</g>
<g>
</g>
<g>
</g>
<g>
</g>
<g>
</g>
<g>
</g>
<g>
</g>
<g>
</g>
<g>
</g>
<g>
</g>
<g>
</g>
<g>
</g>
<g>
</g>
<g>
</g>
</svg>
