<svg id="Capa_1" enable-background="new 0 0 512.924 512.924" height="512" viewBox="0 0 512.924 512.924" width="512" xmlns="http://www.w3.org/2000/svg"><g><path d="m106.462 465.424h300v40h-300z" fill="#548eb5"/><path d="m106.462 465.424h50v40h-50z" fill="#447d99"/><g><path d="m360.092 376.951 98.994-369.448h-405.248l98.994 369.448z" fill="#c9ebfa"/></g><path d="m361.462 465.424h-210v-25c0-8.284 6.716-15 15-15h180c8.284 0 15 6.716 15 15z" fill="#548eb5"/><path d="m361.462 445.424v20h-210v-25c0-8.28 6.72-15 15-15h35v20z" fill="#447d99"/><path d="m256.462 209.993v-98.995l-75.853-53.997v103.494z" fill="#08a9f1"/><path d="m256.462 209.993v-98.995l75.853-53.997v103.494z" fill="#01d0fb"/><path d="m256.462 110.998-75.853-53.997 75.853-49.498 75.853 49.498z" fill="#a0ddf3"/><g><path d="m406.462 457.924h-37.5v-17.5c0-12.406-10.093-22.5-22.5-22.5h-73.66c-4.142 0-7.5 3.357-7.5 7.5s3.358 7.5 7.5 7.5h73.66c4.136 0 7.5 3.364 7.5 7.5v17.5h-195v-17.5c0-4.136 3.364-7.5 7.5-7.5h73.66c4.142 0 7.5-3.357 7.5-7.5s-3.358-7.5-7.5-7.5h-73.66c-12.407 0-22.5 10.094-22.5 22.5v17.5h-37.5c-4.142 0-7.5 3.357-7.5 7.5v40c0 4.143 3.358 7.5 7.5 7.5h195.39c4.142 0 7.5-3.357 7.5-7.5s-3.358-7.5-7.5-7.5h-187.89v-25h285v25h-64.42c-4.142 0-7.5 3.357-7.5 7.5s3.358 7.5 7.5 7.5h71.92c4.142 0 7.5-3.357 7.5-7.5v-40c0-4.143-3.358-7.5-7.5-7.5z"/><g><path d="m61.083 5.562c-1.072-4.001-5.186-6.379-9.186-5.303-4.001 1.071-6.375 5.185-5.304 9.186l98.993 369.448c2.329 4.505 5.391 6.273 9.186 5.303 4.001-1.071 6.375-5.185 5.304-9.186z"/><path d="m461.026.259c-3.996-1.074-8.113 1.302-9.186 5.303l-98.992 369.448c-1.072 4.001 1.302 8.114 5.304 9.186 3.795.97 6.857-.797 9.186-5.303l98.992-369.449c1.072-4.001-1.302-8.114-5.304-9.185z"/><path d="m336.413 50.719-75.852-49.497c-2.49-1.625-5.707-1.625-8.197 0l-75.853 49.497c-2.091 1.367-3.399 3.785-3.399 6.285v103.49c0 2.533 1.279 4.896 3.401 6.281l75.85 49.5c2.45 1.597 5.748 1.6 8.198 0l75.851-49.501c2.122-1.385 3.401-3.747 3.401-6.28v-103.49c-.001-2.893-1.101-4.768-3.4-6.285zm-79.951-34.26 62.542 40.811-62.542 44.519-62.542-44.519zm68.35 139.974-60.85 39.712v-25.061c0-4.143-3.358-7.5-7.5-7.5s-7.5 3.357-7.5 7.5v25.06l-60.85-39.711v-84.884l60.85 43.317v23.539c0 4.143 3.358 7.5 7.5 7.5s7.5-3.357 7.5-7.5v-23.539l60.85-43.317z"/><path d="m256.462 248.924c-4.142 0-7.5 3.357-7.5 7.5v49.548c0 4.143 3.358 7.5 7.5 7.5s7.5-3.357 7.5-7.5v-49.548c0-4.143-3.358-7.5-7.5-7.5z"/><path d="m256.462 340.908c-4.142 0-7.5 3.357-7.5 7.5v49.549c0 4.143 3.358 7.5 7.5 7.5s7.5-3.357 7.5-7.5v-49.549c0-4.142-3.358-7.5-7.5-7.5z"/><path d="m200.678 284.754-12.824-47.86c-1.072-4.001-5.186-6.378-9.186-5.303-4.001 1.071-6.375 5.185-5.304 9.186l12.824 47.86c2.329 4.505 5.391 6.273 9.186 5.303 4.001-1.072 6.376-5.185 5.304-9.186z"/><path d="m211.662 325.744c-1.072-4.001-5.187-6.378-9.186-5.303-4.001 1.071-6.375 5.185-5.304 9.186l12.824 47.859c2.329 4.505 5.391 6.273 9.186 5.303 4.001-1.071 6.375-5.185 5.304-9.186z"/><path d="m332.96 231.591c-3.995-1.074-8.113 1.302-9.186 5.303l-12.824 47.86c-1.072 4.001 1.303 8.114 5.304 9.186 3.795.97 6.857-.797 9.186-5.303l12.824-47.86c1.072-4.002-1.303-8.115-5.304-9.186z"/><path d="m309.154 320.441c-3.998-1.073-8.114 1.302-9.186 5.303l-12.824 47.859c-1.072 4.001 1.302 8.113 5.303 9.186 3.795.97 6.857-.797 9.186-5.303l12.824-47.859c1.072-4.001-1.302-8.113-5.303-9.186z"/></g></g></g></svg>