<svg id="Layer_1" enable-background="new 0 0 128 128" height="512" viewBox="0 0 128 128" width="512" xmlns="http://www.w3.org/2000/svg"><path d="m121.103 24.174-27.301-15.853c-.311-.181-.693-.181-1.004 0l-6.111 3.549c-.477.277-.64.889-.363 1.366l-1.628.945c-.276-.476-.887-.639-1.367-.363l-3.502 2.033c-.478.277-.641.889-.363 1.367v.001l-1.924 1.117c-.279-.478-.89-.64-1.367-.363l-10.173 5.91-26.798-15.562c-.311-.181-.693-.181-1.004 0l-27.301 15.853c-.309.179-.498.508-.498.865v33.036c0 .356.189.686.498.865l26.803 15.563v32.458c0 .356.189.686.498.865l27.301 15.853c.155.09.328.135.502.135s.347-.045.502-.135l27.3-15.853c.309-.179.498-.508.498-.865v-32.458l26.803-15.563c.309-.179.498-.508.498-.865v-33.036c-.001-.356-.19-.686-.499-.865z" fill="#e6e7e8"/><path d="m62 21.039-27.301 15.853-27.3-15.853 27.3-15.853z" fill="#fa759e"/><path d="m37.028 10.017 21.977 12.761 2.995-1.739-27.301-15.853-27.3 15.853 2.995 1.739 21.976-12.761c1.44-.836 3.218-.836 4.658 0z" fill="#fff"/><path d="m34.699 69.928v-33.036l-27.3-15.853v33.036z" fill="#ffd7e5"/><path d="m34.699 69.928v-33.036l27.301-15.853v33.036z" fill="#6dc9f7"/><path d="m116.601 21.039-27.3 15.853-27.301-15.853 27.301-15.853z" fill="#fa759e"/><path d="m89.301 69.928v-33.036l-27.301-15.853v33.036z" fill="#ffd7e5"/><path d="m89.301 69.928v-33.036l27.3-15.853v33.036z" fill="#6dc9f7"/><path d="m89.301 69.925-27.301 15.853-27.301-15.853 27.301-15.853z" fill="#fa759e"/><path d="m62 118.814v-33.036l-27.301-15.853v33.036z" fill="#ffd7e5"/><path d="m62 118.814v-33.036l27.301-15.853v33.036z" fill="#6dc9f7"/><g fill="#3a2c60"><path d="m76.331 13.718c.17 0 .343-.043.501-.135l3.502-2.033c.478-.277.641-.889.363-1.367-.277-.477-.887-.64-1.367-.363l-3.502 2.033c-.478.277-.641.889-.363 1.367.185.32.521.498.866.498z"/><path d="m117.103 20.174-27.301-15.853c-.311-.181-.693-.181-1.004 0l-6.111 3.549c-.478.277-.641.889-.362 1.367.277.478.888.639 1.366.362l5.609-3.257 25.31 14.697-25.31 14.697-25.308-14.697 9.187-5.335c.478-.277.641-.889.363-1.367-.279-.479-.891-.64-1.367-.363l-10.175 5.909-26.798-15.562c-.311-.181-.693-.181-1.004 0l-27.301 15.853c-.309.179-.498.508-.498.865v33.036c0 .356.189.686.498.865l26.803 15.563v32.458c0 .356.189.686.498.865l27.301 15.853c.155.09.328.135.502.135s.347-.045.502-.135l27.3-15.853c.309-.179.498-.508.498-.865v-32.458l26.803-15.563c.309-.179.498-.508.498-.865v-33.036c-.001-.356-.19-.686-.499-.865zm-83.403 48.017-25.301-14.691v-30.724l25.301 14.691zm-24.31-47.152 25.31-14.697 25.31 14.697-25.31 14.696zm51.61 1.737v30.721l-25.3 14.691v-30.721zm0 94.301-25.3-14.691v-30.724l25.3 14.691zm1-32.456-25.31-14.696 25.308-14.695 25.309 14.696zm26.3 17.765-25.3 14.691v-30.724l25.3-14.691zm0-34.198-25.3-14.691v-30.721l25.3 14.691zm27.301-14.688-25.301 14.691v-30.724l25.301-14.691z"/></g></svg>