<?xml version="1.0" encoding="utf-8"?>
<!-- Generator: Adobe Illustrator 19.0.0, SVG Export Plug-In . SVG Version: 6.00 Build 0)  -->
<svg xmlns="http://www.w3.org/2000/svg" xmlns:xlink="http://www.w3.org/1999/xlink" version="1.1" id="Layer_1" x="0px" y="0px" viewBox="0 2 98 98" style="enable-background:new 0 2 98 98;" xml:space="preserve" width="512" height="512">
<style type="text/css">
	.st0{fill:url(#SVGID_1_);}
</style>
<linearGradient id="SVGID_1_" gradientUnits="userSpaceOnUse" x1="49" y1="95" x2="49" y2="11" gradientTransform="matrix(1 0 0 -1 0 104)">
	<stop offset="0" style="stop-color:#00EFD1"/>
	<stop offset="1" style="stop-color:#00ACEA"/>
</linearGradient>
<path class="st0" d="M93.3,55.7c0-1.2-0.7-2.2-1.7-2.7l-18.9-8.7V21.6l0,0c0-1.2-0.7-2.2-1.7-2.7L50.3,9.3c-0.8-0.4-1.7-0.4-2.5,0  L27,18.9c-1.1,0.5-1.7,1.6-1.7,2.7l0,0v22.6L6.4,53c-1.1,0.5-1.7,1.6-1.7,2.7l0,0v24.7c0,1.2,0.7,2.2,1.7,2.7l20.7,9.6  c0.4,0.2,0.8,0.3,1.3,0.3c0.4,0,0.9-0.1,1.3-0.3L49,83.8l19.3,8.9c0.4,0.2,0.8,0.3,1.3,0.3c0.4,0,0.9-0.1,1.3-0.3l20.7-9.6  c1.1-0.5,1.7-1.6,1.7-2.7V55.7L93.3,55.7z M31.4,67.1L46,60.5v18.1l-14.6,6.7V67.1z M31.3,26.3L46,33v18.2l-14.7-6.8V26.3z M52,33  l14.7-6.7v18.1L52,51.2V33z M52,60.5l14.6,6.7v18.2L52,78.6V60.5z M69.6,61.9l-13.3-6.1l13.6-6.3l13.3,6.2L69.6,61.9z M49,15.3  l13.5,6.3L49,27.8l-13.5-6.2L49,15.3z M28.1,49.5l13.6,6.3l-13.3,6.1l-13.5-6.2L28.1,49.5z M10.7,60.4l14.7,6.7v18.2l-14.7-6.8V60.4  z M72.6,85.3V67.1l14.7-6.7v18.1L72.6,85.3z"/>
</svg>
