<svg height="512pt" viewBox="-66 0 512 512.00051" width="512pt" xmlns="http://www.w3.org/2000/svg"><g fill="#f0f0f0" fill-rule="evenodd"><path d="m207.488281 67.871094-96.992187-55.996094c-6.667969-3.851562-15.273438-1.546875-19.121094 5.121094l-56 96.992187c-3.847656 6.671875-1.542969 15.273438 5.125 19.125l96.992188 56c6.667968 3.847657 15.273437 1.542969 19.125-5.125l55.996093-96.992187c3.851563-6.667969 1.542969-15.273438-5.125-19.125zm0 0"/><path d="m323.378906 183.894531-108.179687 28.988281c-7.4375 1.992188-11.890625 9.707032-9.898438 17.144532l28.984375 108.179687c1.992188 7.4375 9.707032 11.890625 17.144532 9.898438l108.183593-28.984375c7.4375-1.996094 11.890625-9.710938 9.898438-17.148438l-28.988281-108.179687c-1.992188-7.4375-9.707032-11.890625-17.144532-9.898438zm0 0"/><path d="m192.269531 398.917969-79.195312-79.191407c-5.445313-5.445312-14.351563-5.445312-19.796875 0l-79.195313 79.191407c-5.445312 5.445312-5.445312 14.355469 0 19.800781l79.195313 79.191406c5.445312 5.445313 14.351562 5.445313 19.796875 0l79.195312-79.191406c5.445313-5.445312 5.445313-14.355469 0-19.800781zm0 0"/></g><path d="m120.144531 312.65625c-9.355469-9.359375-24.582031-9.355469-33.9375 0l-79.195312 79.191406c-4.519531 4.523438-7.011719 10.550782-7.011719 16.972656 0 6.421876 2.488281 12.445313 7.011719 16.96875l79.195312 79.195313c4.675781 4.675781 10.820313 7.015625 16.96875 7.015625 6.144531 0 12.292969-2.339844 16.972657-7.015625l79.191406-79.195313c4.519531-4.523437 7.011718-10.546874 7.011718-16.96875 0-6.421874-2.488281-12.449218-7.011718-16.972656zm65.054688 98.992188-79.195313 79.191406c-1.535156 1.535156-4.125 1.535156-5.65625 0l-79.195312-79.191406c-1.003906-1.003907-1.152344-2.203126-1.152344-2.828126s.148438-1.824218 1.152344-2.828124l79.195312-79.195313c.765625-.765625 1.796875-1.148437 2.828125-1.148437 1.027344 0 2.0625.382812 2.828125 1.148437l79.191406 79.195313c1.007813 1.003906 1.15625 2.203124 1.15625 2.828124s-.148437 1.824219-1.152343 2.828126zm0 0"/><path d="m379.171875 299.386719-28.988281-108.179688c-3.421875-12.78125-16.613282-20.394531-29.390625-16.972656l-108.183594 28.988281c-12.78125 3.425782-20.394531 16.609375-16.96875 29.390625l28.988281 108.183594c2.867188 10.710937 12.589844 17.789063 23.1875 17.789063 2.050782 0 4.132813-.261719 6.203125-.820313l11.59375-3.105469c5.332031-1.429687 8.5-6.910156 7.070313-12.246094-1.433594-5.335937-6.910156-8.5-12.25-7.070312l-11.589844 3.105469c-2.09375.566406-4.335938-.730469-4.898438-2.828125l-28.988281-108.179688c-.558593-2.097656.734375-4.339844 2.828125-4.898437l108.183594-28.988281c2.09375-.558594 4.335938.734374 4.898438 2.828124l28.984374 108.183594c.5625 2.09375-.734374 4.335938-2.828124 4.894532l-29.976563 8.035156c-5.332031 1.429687-8.5 6.910156-7.070313 12.246094 1.429688 5.332031 6.914063 8.5 12.246094 7.070312l29.980469-8.03125c6.175781-1.65625 11.34375-5.628906 14.554687-11.191406 3.210938-5.5625 4.070313-12.027344 2.414063-18.203125zm0 0"/><path d="m299.316406 324.925781-.261718.066407c-5.335938 1.421874-8.511719 6.898437-7.09375 12.234374 1.191406 4.476563 5.234374 7.433594 9.65625 7.433594.851562 0 1.714843-.109375 2.578124-.339844l.261719-.070312c5.335938-1.417969 8.511719-6.894531 7.09375-12.230469-1.417969-5.339843-6.894531-8.511719-12.234375-7.09375zm0 0"/><path d="m108.277344 428.722656c-5.523438 0-10 4.476563-10 10v.234375c0 5.523438 4.476562 10 10 10 5.519531 0 10-4.476562 10-10v-.234375c0-5.523437-4.480469-10-10-10zm0 0"/><path d="m81.277344 381.722656c-5.523438 0-10 4.480469-10 10v.238282c0 5.519531 4.476562 9.996093 10 9.996093 5.519531 0 10-4.476562 10-9.996093v-.238282c0-5.519531-4.476563-10-10-10zm0 0"/><path d="m130.273438 386.722656c-5.519532 0-9.996094 4.480469-9.996094 10v.238282c0 5.519531 4.476562 9.996093 9.996094 9.996093 5.523437 0 10-4.476562 10-9.996093v-.238282c0-5.519531-4.476563-10-10-10zm0 0"/><path d="m272.269531 290.726562c-5.519531 0-10 4.480469-10 10v.234376c0 5.523437 4.480469 10 10 10 5.523438 0 10-4.476563 10-10v-.234376c0-5.523437-4.476562-10-10-10zm0 0"/><path d="m322.269531 244.726562c0-5.519531-4.476562-10-10-10-5.519531 0-10 4.480469-10 10v.238282c0 5.519531 4.480469 10 10 10 5.523438 0 10-4.480469 10-10zm0 0"/><path d="m144.273438 126.96875v-.238281c0-5.519531-4.476563-10-10-10-5.519532 0-10 4.480469-10 10v.238281c0 5.519531 4.480468 10 10 10 5.523437 0 10-4.476562 10-10zm0 0"/><path d="m121.542969 93.21875v-.234375c0-5.523437-4.476563-10-10-10-5.523438 0-10 4.476563-10 10v.234375c0 5.519531 4.476562 10 10 10 5.523437 0 10-4.476562 10-10zm0 0"/><path d="m175.542969 87.21875v-.234375c0-5.523437-4.480469-10-10-10-5.523438 0-10 4.476563-10 10v.234375c0 5.523438 4.476562 10 10 10 5.519531 0 10-4.476562 10-10zm0 0"/><path d="m60.242188 70.882812c1.578124.914063 3.304687 1.351563 5.003906 1.351563 3.449218 0 6.808594-1.785156 8.660156-4.984375l.136719-.234375c2.769531-4.777344 1.144531-10.894531-3.636719-13.664063-4.777344-2.773437-10.894531-1.144531-13.664062 3.632813l-.136719.234375c-2.769531 4.777344-1.140625 10.894531 3.636719 13.664062zm0 0"/><path d="m35.5 141.773438 96.992188 55.996093c3.769531 2.179688 7.890624 3.210938 11.960937 3.210938 8.296875 0 16.382813-4.304688 20.820313-11.992188l56-96.992187c3.195312-5.539063 4.042968-12.003906 2.382812-18.207032-1.664062-6.203124-5.628906-11.378906-11.167969-14.578124l-96.992187-55.996094c-5.539063-3.199219-12.003906-4.046875-18.207032-2.382813-6.199218 1.664063-11.378906 5.628907-14.574218 11.167969l-6 10.390625c-2.761719 4.78125-1.121094 10.898437 3.660156 13.660156 4.78125 2.757813 10.898438 1.121094 13.660156-3.660156l6-10.394531c.710938-1.230469 1.828125-1.683594 2.433594-1.847656.601562-.160157 1.800781-.324219 3.027344.382812l96.992187 56c1.230469.710938 1.6875 1.828125 1.847657 2.433594.164062.605468.328124 1.800781-.382813 3.03125l-55.996094 96.992187c-.710937 1.230469-1.832031 1.6875-2.433593 1.847657-.605469.160156-1.800782.324218-3.03125-.382813l-96.992188-56c-1.878906-1.082031-2.550781-3.585937-1.464844-5.464844l15.515625-26.875c2.761719-4.78125 1.125-10.898437-3.660156-13.660156-4.78125-2.761719-10.894531-1.121094-13.65625 3.660156l-15.519531 26.875c-6.617188 11.460938-2.675782 26.167969 8.785156 32.785157zm0 0"/></svg>