<svg id="line" height="512" viewBox="0 0 64 64" width="512" xmlns="http://www.w3.org/2000/svg"><g fill="#c4a2fc"><path d="m42 38.4 20.951-8.381c-.274-.859.085-.208-20.58-8.625a1 1 0 0 0 -.742 0c-20.674 8.42-20.306 7.767-20.58 8.625z"/><path d="m43 40.154v22.846l19.371-7.748a1 1 0 0 0 .629-.929v-22.169z"/><path d="m41 40.154-20-8v22.169a1 1 0 0 0 .628.929l19.372 7.748z"/></g><path d="m40 1h-28a3 3 0 0 0 -3 3v32h-5a3 3 0 0 0 -3 3v2a5.006 5.006 0 0 0 5 5h32a5.006 5.006 0 0 0 5-5v-37a3 3 0 0 0 -3-3zm-34 43a3 3 0 0 1 -3-3v-2a1 1 0 0 1 1-1h28a1 1 0 0 1 1 1v2a4.973 4.973 0 0 0 1 3zm35-3a3 3 0 0 1 -6 0v-2a3 3 0 0 0 -3-3h-21v-32a1 1 0 0 1 1-1h28a1 1 0 0 1 1 1z" fill="#151a6a"/><path d="m34.447 14.105-8-4a1 1 0 0 0 -.894 0l-8 4a1 1 0 0 0 -.553.895v9a1 1 0 0 0 .553.895l8 4a1 1 0 0 0 .894 0l8-4a1 1 0 0 0 .553-.895v-9a1 1 0 0 0 -.553-.895zm-8.447-1.987 5.764 2.882-5.764 2.882-5.764-2.882zm-7 4.5 6 3v6.764l-6-3zm8 9.764v-6.764l6-3v6.764z" fill="#151a6a"/></svg>