<svg viewBox="1 -6 511.99998 511" xmlns="http://www.w3.org/2000/svg"><path d="m256 .5c11.753906 0 23.507812 2.726562 34.289062 8.179688l196.714844 99.488281c15.328125 7.753906 24.996094 23.472656 24.996094 40.65625v202.921875c0 17.179687-9.667969 32.898437-24.996094 40.652344l-196.714844 99.488281c-10.78125 5.453125-22.535156 8.179687-34.289062 8.179687zm0 0" fill="#ff94de"/><path d="m386.804688 57.492188v385.582031l-96.515626 48.8125c-10.78125 5.453125-22.535156 8.179687-34.292968 8.179687v-499.566406c11.757812 0 23.511718 2.726562 34.292968 8.179688zm0 0" fill="#ff94de"/><path d="m487.003906 392.398438-196.714844 99.488281c-10.78125 5.453125-22.535156 8.179687-34.289062 8.179687v-117.488281l256-129.472656v98.636719c0 17.183593-9.667969 32.902343-24.996094 40.65625zm0 0" fill="#cf92ff"/><path d="m386.804688 57.492188 100.199218 50.675781c15.328125 7.753906 24.996094 23.472656 24.996094 40.65625v202.921875c0 17.179687-9.667969 32.898437-24.996094 40.652344l-100.199218 50.675781zm0 0" fill="#ffde55"/><path d="m386.804688 57.492188 100.199218 50.675781c15.328125 7.753906 24.996094 23.472656 24.996094 40.65625v104.28125l-125.195312 63.316406zm0 0" fill="#7de2e2"/><path d="m256 .5c-11.753906 0-23.507812 2.726562-34.289062 8.179688l-196.714844 99.488281c-15.332032 7.753906-24.996094 23.472656-24.996094 40.65625v202.921875c0 17.179687 9.664062 32.898437 24.996094 40.652344l196.714844 99.488281c10.78125 5.453125 22.535156 8.179687 34.289062 8.179687zm0 0" fill="#ff94de"/><path d="m125.195312 57.492188v385.582031l96.515626 48.8125c10.78125 5.453125 22.535156 8.179687 34.289062 8.179687v-499.566406c-11.753906 0-23.507812 2.726562-34.289062 8.179688zm0 0" fill="#ff71da"/><path d="m24.996094 392.398438 196.714844 99.488281c10.78125 5.453125 22.535156 8.179687 34.289062 8.179687v-117.488281l-256-129.472656v98.636719c0 17.183593 9.664062 32.902343 24.996094 40.65625zm0 0" fill="#b86eff"/><path d="m125.195312 57.492188-100.199218 50.675781c-15.332032 7.753906-24.996094 23.472656-24.996094 40.65625v202.921875c0 17.179687 9.664062 32.898437 24.996094 40.652344l100.199218 50.675781zm0 0" fill="#66d3d0"/><path d="m125.195312 57.492188-100.199218 50.675781c-15.332032 7.753906-24.996094 23.472656-24.996094 40.65625v104.28125l125.195312 63.316406zm0 0" fill="#ffcd00"/><path d="m256 250.28125 248.902344-125.875c-4.316406-6.796875-10.4375-12.464844-17.898438-16.238281l-69.355468-35.078125-127.359376-64.414063c-21.558593-10.902343-47.019531-10.902343-68.578124 0l-82.605469 41.777344-114.109375 57.714844c-7.460938 3.773437-13.582032 9.433593-17.898438 16.230469zm0 0" fill="#ffc0e9"/><path d="m130.792969 54.664062 90.921875-45.984374c21.558594-10.902344 47.015625-10.902344 68.574218 0l82.605469 41.777343 114.109375 57.710938c7.464844 3.773437 13.582032 9.4375 17.898438 16.234375l-118.109375 59.734375zm0 0" fill="#a0f0f2"/><path d="m381.210938 54.664062-90.925782-45.984374c-21.558594-10.902344-47.015625-10.902344-68.574218 0l-82.605469 41.777343-114.109375 57.710938c-7.460938 3.773437-13.582032 9.4375-17.898438 16.234375l118.113282 59.734375zm0 0" fill="#ffeb99"/><path d="m221.710938 8.675781-82.605469 41.777344-8.316407 4.207031 125.210938 63.328125 125.210938-63.328125-90.921876-45.984375c-21.558593-10.902343-47.019531-10.902343-68.578124 0zm0 0" fill="#dfaeff"/></svg>