<?xml version="1.0" encoding="iso-8859-1"?>
<!-- Generator: Adobe Illustrator 19.0.0, SVG Export Plug-In . SVG Version: 6.00 Build 0)  -->
<svg version="1.1" id="Capa_1" xmlns="http://www.w3.org/2000/svg" xmlns:xlink="http://www.w3.org/1999/xlink" x="0px" y="0px"
	 viewBox="0 0 512.005 512.005" style="enable-background:new 0 0 512.005 512.005;" xml:space="preserve">
<g>
	<g>
		<path d="M367.618,135.349v73.798h24.645v35.293l52.019-52.02c8.364-8.364,18.692-13.595,29.514-15.696V80.502L367.618,135.349z"/>
	</g>
</g>
<g>
	<g>
		<polygon points="352.578,2.348 249.092,55.806 352.578,109.264 456.066,55.806 		"/>
	</g>
</g>
<g>
	<g>
		<path d="M504.034,213.688c-10.61-10.609-27.874-10.611-38.484,0l-85.753,85.753c-10.158,12.441-25.606,20.402-42.883,20.402
			H245.67v-30.078h91.244c7.995,0,15.13-3.737,19.764-9.551l-0.096-0.096l0.725-0.725c3.063-4.181,4.877-9.331,4.877-14.9v-25.271
			H210.231l-92.757,92.756l68.041,68.041l12.228-12.308h170.749l135.543-135.538c5.14-5.14,7.97-11.973,7.97-19.242
			C512.005,225.663,509.174,218.829,504.034,213.688z"/>
	</g>
</g>
<g>
	<g>
		
			<rect x="60.852" y="308.526" transform="matrix(0.7071 -0.7071 0.7071 0.7071 -261.1897 190.3617)" width="76.679" height="203.878"/>
	</g>
</g>
<g>
	<g>
		<polygon points="231.362,80.502 231.362,209.146 337.539,209.146 337.539,135.349 		"/>
	</g>
</g>
<g>
</g>
<g>
</g>
<g>
</g>
<g>
</g>
<g>
</g>
<g>
</g>
<g>
</g>
<g>
</g>
<g>
</g>
<g>
</g>
<g>
</g>
<g>
</g>
<g>
</g>
<g>
</g>
<g>
</g>
</svg>
