<?xml version="1.0" encoding="iso-8859-1"?>
<!-- Generator: Adobe Illustrator 19.0.0, SVG Export Plug-In . SVG Version: 6.00 Build 0)  -->
<svg version="1.1" id="Capa_1" xmlns="http://www.w3.org/2000/svg" xmlns:xlink="http://www.w3.org/1999/xlink" x="0px" y="0px"
	 viewBox="0 0 512 512" style="enable-background:new 0 0 512 512;" xml:space="preserve">
<g>
	<g>
		<path d="M391,216.645V65.541L256,0.291l-135,65.25v151.105l-121,60v167.61l136.028,67.452L256,451.721l119.972,59.986L512,444.255
			v-167.61L391,216.645z M121,470.769l-91-45.124V310.131l91,45.124V470.769z M135.972,329.195l-87.207-43.243l87.207-43.243
			l86.487,43.243L135.972,329.195z M241,425.68l-90,45V355.221l90-45V425.68z M241,261.68l-90-45V99.221l90,45V261.68z
			 M169.997,75.179L256,33.612l86.003,41.568L256,118.18L169.997,75.179z M361,99.221V216.68l-90,45V144.221L361,99.221z
			 M361,470.68l-90-45V310.221l90,45V470.68z M289.541,285.951l86.487-43.243l87.207,43.243l-87.207,43.243L289.541,285.951z
			 M482,425.648l-91,45.123V355.256l91-45.124V425.648z"/>
	</g>
</g>
<g>
</g>
<g>
</g>
<g>
</g>
<g>
</g>
<g>
</g>
<g>
</g>
<g>
</g>
<g>
</g>
<g>
</g>
<g>
</g>
<g>
</g>
<g>
</g>
<g>
</g>
<g>
</g>
<g>
</g>
</svg>
