<?xml version="1.0" encoding="iso-8859-1"?>
<!-- Generator: Adobe Illustrator 19.0.0, SVG Export Plug-In . SVG Version: 6.00 Build 0)  -->
<svg version="1.1" id="Capa_1" xmlns="http://www.w3.org/2000/svg" xmlns:xlink="http://www.w3.org/1999/xlink" x="0px" y="0px"
	 viewBox="0 0 463.789 463.789" style="enable-background:new 0 0 463.789 463.789;" xml:space="preserve">
<g>
	<g>
		<path d="M114.349,264.545l-56.72-57.92l-11.92-12.16l-44.96,95.36c-1.404,3.012-0.799,6.579,1.52,8.96l65.04,66.8l1.36-2.96
			l45.76-98.16L114.349,264.545z"/>
	</g>
</g>
<g>
	<g>
		<path d="M222.509,245.105l-2.88-1.12v13.76l-62.24-59.68c-1.268-1.209-2.898-1.968-4.64-2.16l-94-11.04l69.04,70.32l92.08,8v16
			l-10.08-0.88l-80.72-6.88l-40,85.28l-7.2,15.44l91.84,7.52h0.64c3.077-0.009,5.877-1.782,7.2-4.56l38.08-80.72v56
			c-0.011,3.348,2.064,6.348,5.2,7.52l86.96,32.48v-111.36L222.509,245.105z"/>
	</g>
</g>
<g>
	<g>
		<polygon points="279.629,124.145 263.629,118.225 263.629,218.465 228.589,230.225 252.109,239.185 319.629,264.945 
			339.309,257.585 355.629,263.745 355.629,258.145 355.629,256.305 355.629,246.625 355.629,152.385 		"/>
	</g>
</g>
<g>
	<g>
		<path d="M447.789,124.145l-76,28.24v105.76c0,4.418-3.582,8-8,8h-0.96l-35.04,12.88v111.36l86.8-32.56
			c3.136-1.172,5.211-4.172,5.2-7.52v-104.56l38.8-14.56c3.055-1.14,5.112-4.02,5.2-7.28v-105.68L447.789,124.145z"/>
	</g>
</g>
<g>
	<g>
		<path d="M366.189,73.825c-1.661-0.561-3.459-0.561-5.12,0l-89.76,30.08l92.32,34.4l92.16-34.4L366.189,73.825z"/>
	</g>
</g>
<g>
</g>
<g>
</g>
<g>
</g>
<g>
</g>
<g>
</g>
<g>
</g>
<g>
</g>
<g>
</g>
<g>
</g>
<g>
</g>
<g>
</g>
<g>
</g>
<g>
</g>
<g>
</g>
<g>
</g>
</svg>
