<svg id="Capa_1" enable-background="new 0 0 511 511" height="512" viewBox="0 0 511 511" width="512" xmlns="http://www.w3.org/2000/svg" xmlns:xlink="http://www.w3.org/1999/xlink"><linearGradient id="SVGID_1_" gradientUnits="userSpaceOnUse" x1="357.5" x2="357.5" y1="184.393" y2="326.608"><stop offset=".00000036422" stop-color="#a8abff"/><stop offset="1" stop-color="#fac8ff"/></linearGradient><linearGradient id="SVGID_2_" gradientUnits="userSpaceOnUse" x1="107.5" x2="107.5" y1="100.5" y2="410.5"><stop offset=".00000083866" stop-color="#96d1f3"/><stop offset="1" stop-color="#ccfff4"/></linearGradient><linearGradient id="SVGID_3_" gradientUnits="userSpaceOnUse" x1="255.5" x2="255.5" y1="93" y2="418"><stop offset=".00000011981" stop-color="#174fa3"/><stop offset="1" stop-color="#b044af"/></linearGradient><g><g><g fill="#fff"><path d="m207.5 198-100-57.5-100 57.5 100 57.5z"/><path d="m107.5 255.5v115l100-57.5v-115z"/><path d="m7.5 198v115l100 57.5v-115z"/><path d="m327.5 255.5c0 42.848 16.844 81.762 44.271 110.483l131.729-108.483v-4l-131.729-108.483c-27.427 28.721-44.271 67.635-44.271 110.483z"/></g><path d="m344.143 184.392c-10.646 21.422-16.643 45.563-16.643 71.108s5.997 49.686 16.643 71.108c25.745-13.294 43.357-40.136 43.357-71.108s-17.612-57.813-43.357-71.108z" fill="url(#SVGID_1_)"/><path d="m132.5 125.5c0 13.807-11.193 25-25 25s-25-11.193-25-25 11.193-25 25-25 25 11.193 25 25zm0 260c0-13.807-11.193-25-25-25s-25 11.193-25 25 11.193 25 25 25 25-11.193 25-25z" fill="url(#SVGID_2_)"/></g><path d="m338.268 107.711-9.535 11.578 32.188 26.508c-14.674 16.902-25.652 36.327-32.527 57.203h-31.913l-90-85h-67.365c-3.396-14.315-16.278-25-31.617-25-17.919 0-32.499 14.579-32.499 32.5 0 7.873 2.815 15.099 7.489 20.729l-82.489 47.432v123.678l82.489 47.432c-4.674 5.63-7.489 12.856-7.489 20.729 0 17.921 14.58 32.5 32.5 32.5 15.339 0 28.221-10.685 31.617-25h67.365l90-85h31.913c6.875 20.876 17.853 40.301 32.527 57.203l-32.188 26.508 9.535 11.578 172.731-142.25v-11.078zm-47.749 110.289h33.704c-2.235 9.785-3.602 19.817-4.051 30h-105.172v-54.339l-82.489-47.432c3.141-3.784 5.435-8.291 6.606-13.229h61.401zm-171.387 137.16c-1.337-.515-2.717-.941-4.132-1.277v-94.044l85-48.875v97.697zm-11.632-197.16c4.098 0 8.018-.77 11.632-2.16l73.322 42.16-84.954 48.848-84.954-48.848 73.322-42.16c3.614 1.39 7.534 2.16 11.632 2.16zm0-50c9.649 0 17.5 7.851 17.5 17.5s-7.851 17.5-17.5 17.5-17.5-7.851-17.5-17.5 7.851-17.5 17.5-17.5zm-92.5 102.964 85 48.875v94.044c-1.415.336-2.794.763-4.132 1.277l-80.868-46.499zm92.5 192.036c-9.649 0-17.5-7.851-17.5-17.5s7.851-17.5 17.5-17.5 17.5 7.851 17.5 17.5-7.851 17.5-17.5 17.5zm183.019-110-90 85h-61.401c-1.171-4.938-3.465-9.445-6.606-13.229l82.488-47.432v-54.339h105.171c.449 10.183 1.817 20.215 4.051 30zm56.937-97.985c20.25 13.351 32.544 35.88 32.544 60.485s-12.294 47.134-32.544 60.485c-8.16-18.881-12.456-39.394-12.456-60.485s4.296-41.604 12.456-60.485zm25.051 160.646c-7.083-8.119-13.226-16.882-18.378-26.143 25.383-15.965 40.871-43.679 40.871-74.018s-15.488-58.053-40.871-74.018c5.152-9.261 11.294-18.024 18.378-26.143l121.624 100.161z" fill="url(#SVGID_3_)"/></g></svg>