<?xml version="1.0" encoding="iso-8859-1"?>
<!-- Generator: Adobe Illustrator 19.0.0, SVG Export Plug-In . SVG Version: 6.00 Build 0)  -->
<svg version="1.1" id="Capa_1" xmlns="http://www.w3.org/2000/svg" xmlns:xlink="http://www.w3.org/1999/xlink" x="0px" y="0px"
	 viewBox="0 0 479.994 479.994" style="enable-background:new 0 0 479.994 479.994;" xml:space="preserve">
<g>
	<g>
		<path d="M468.397,233.314c-0.4-0.264-0.84-0.44-1.272-0.624l0.016-0.048l-107.144-45.92V55.994c0-2.688-1.352-5.192-3.6-6.68
			c-0.4-0.264-0.832-0.44-1.264-0.632l0.016-0.04l-112-48c-2.016-0.856-4.288-0.856-6.304,0l-112,48l0.024,0.048
			c-0.44,0.184-0.872,0.36-1.272,0.624c-2.248,1.488-3.6,3.992-3.6,6.68v130.728l-107.152,45.92l0.016,0.048
			c-0.432,0.184-0.864,0.36-1.264,0.624c-2.248,1.488-3.6,3.992-3.6,6.68v136c0,3.2,1.904,6.096,4.848,7.352l112,48
			c0.112,0.048,0.232,0.032,0.344,0.072c0.904,0.344,1.848,0.576,2.808,0.576c0.96,0,1.904-0.232,2.808-0.576
			c0.112-0.04,0.232-0.024,0.344-0.072l108.848-46.648l108.848,46.648c0.112,0.048,0.232,0.032,0.344,0.072
			c0.904,0.344,1.848,0.576,2.808,0.576c0.96,0,1.904-0.232,2.808-0.576c0.112-0.04,0.232-0.024,0.344-0.072l112-48
			c2.944-1.256,4.848-4.152,4.848-7.352v-136C471.997,237.306,470.645,234.802,468.397,233.314z M119.997,411.866l-96-41.144V252.13
			l96,41.144V411.866z M127.997,279.29l-91.696-39.296l91.696-39.296l91.696,39.296L127.997,279.29z M231.997,370.714l-96,41.144
			V293.266l96-41.144V370.714z M231.997,227.858l-72-30.856l-24-10.288V68.13l96,41.144V227.858z M148.301,55.994l91.696-39.296
			l91.696,39.296L239.997,95.29L148.301,55.994z M343.997,68.122v118.6l-24,10.288l-72,30.856v-118.6L343.997,68.122z
			 M343.997,411.866l-96-41.144V252.13l96,41.144V411.866z M351.997,279.29l-91.696-39.296l91.696-39.296l91.696,39.296
			L351.997,279.29z M455.997,370.722l-96,41.144v-118.6l96-41.144V370.722z"/>
	</g>
</g>
<g>
	<g>
		<rect x="199.997" y="463.994" width="16" height="16"/>
	</g>
</g>
<g>
	<g>
		<rect x="231.997" y="463.994" width="16" height="16"/>
	</g>
</g>
<g>
	<g>
		<rect x="231.997" y="431.994" width="16" height="16"/>
	</g>
</g>
<g>
	<g>
		<rect x="263.997" y="463.994" width="16" height="16"/>
	</g>
</g>
<g>
</g>
<g>
</g>
<g>
</g>
<g>
</g>
<g>
</g>
<g>
</g>
<g>
</g>
<g>
</g>
<g>
</g>
<g>
</g>
<g>
</g>
<g>
</g>
<g>
</g>
<g>
</g>
<g>
</g>
</svg>
