<svg height="454pt" viewBox="0 -25 454.67934 454" width="454pt" xmlns="http://www.w3.org/2000/svg"><path d="m232.925781 385.238281 123-56.625v-148.222656l-123 57.003906zm0 0"/><path d="m218.925781 237.394531-123-57.003906v148.222656l123 56.625zm0 0"/><path d="m346.570312 169.453125-120.367187-55.382813-120.367187 55.382813 120.367187 55.753906zm0 0"/><path d="m226.878906 43.65625c11.964844.003906 21.664063-9.691406 21.664063-21.652344.003906-11.964844-9.695313-21.664062-21.65625-21.664062-11.964844 0-21.660157 9.695312-21.660157 21.660156.011719 11.953125 9.699219 21.640625 21.652344 21.65625zm0 0"/><path d="m218.925781 49.8125h14v57h-14zm0 0"/><path d="m445.511719 366.070312c-9.695313-6.84375-23.089844-4.613281-30.042969 5-6.953125 9.617188-4.875 23.035157 4.660156 30.097657 6.265625 4.640625 14.542969 5.554687 21.671875 2.394531 7.125-3.160156 12.003907-9.90625 12.773438-17.664062.769531-7.761719-2.695313-15.332032-9.0625-19.828126zm0 0"/><path d="m360.3125 339.125 8.203125-11.34375 45.519531 32.914062-8.203125 11.34375zm0 0"/><path d="m34.351562 401.171875c7.097657-5.132813 10.40625-14.035156 8.382813-22.558594-2.027344-8.523437-8.988281-14.988281-17.636719-16.375-1.152344-.1875-2.316406-.28125-3.480468-.28125-9.375.019531-17.671876 6.0625-20.5625 14.980469-2.890626 8.914062.28125 18.675781 7.859374 24.191406 7.578126 5.515625 17.84375 5.535156 25.4375.042969zm0 0"/><path d="m40.449219 360.691406 45.519531-32.914062 8.203125 11.347656-45.519531 32.910156zm0 0"/></svg>