<?xml version="1.0" encoding="iso-8859-1"?>
<!-- Generator: Adobe Illustrator 19.0.0, SVG Export Plug-In . SVG Version: 6.00 Build 0)  -->
<svg version="1.1" id="Capa_1" xmlns="http://www.w3.org/2000/svg" xmlns:xlink="http://www.w3.org/1999/xlink" x="0px" y="0px"
	 viewBox="0 0 512 512" style="enable-background:new 0 0 512 512;" xml:space="preserve">
<linearGradient id="SVGID_1_" gradientUnits="userSpaceOnUse" x1="0.5957" y1="257.2285" x2="512.5957" y2="257.2285" gradientTransform="matrix(0.9981 0 0 -0.9981 -0.0955 512.7271)">
	<stop  offset="0" style="stop-color:#00F2FE"/>
	<stop  offset="0.021" style="stop-color:#03EFFE"/>
	<stop  offset="0.293" style="stop-color:#24D2FE"/>
	<stop  offset="0.554" style="stop-color:#3CBDFE"/>
	<stop  offset="0.796" style="stop-color:#4AB0FE"/>
	<stop  offset="1" style="stop-color:#4FACFE"/>
</linearGradient>
<path style="fill:url(#SVGID_1_);" d="M431.657,146.713h-65.871V79.844C365.786,35.818,329.968,0,285.942,0H163.253
	c-21.334,0-41.39,8.311-56.451,23.378l-83.471,83.253c-0.534,0.532-1.023,1.092-1.484,1.666
	C8.612,122.553,0.499,141.624,0.499,162.563v122.879c0,44.026,35.818,79.844,79.844,79.844h65.871v66.869
	c0,44.026,35.818,79.844,79.844,79.844h120.764c23.276,0,44.252-10.015,58.859-25.957c0.755-0.567,1.49-1.172,2.177-1.859
	l80.287-80.434c15.061-15.077,23.355-35.116,23.355-56.428V226.558C511.501,182.531,475.683,146.713,431.657,146.713z
	 M435.038,186.789l-51.62,51.561c-10.972-5.684-23.409-8.917-36.596-8.917h-98.079l35.179-35.639l0.364-0.378
	c4.094-4.371,9.644-6.78,15.627-6.78h131.743C432.797,186.635,433.922,186.695,435.038,186.789z M299.914,146.713
	c-6.838,0-13.574,1.177-19.944,3.374c-1.83-11.617-6.176-22.407-12.458-31.799l54.843-54.779c2.248,4.99,3.509,10.516,3.509,16.334
	v66.869H299.914z M135.016,51.622c7.541-7.544,17.57-11.7,28.237-11.7h122.688c1.141,0,2.267,0.06,3.383,0.154l-51.621,51.561
	c-10.972-5.685-23.41-8.918-36.597-8.918h-97.27L135.016,51.622z M80.343,325.365c-22.013,0-39.922-17.909-39.922-39.922V162.563
	c0-22.013,17.909-39.922,39.922-39.922h120.764c22.013,0,39.922,17.909,39.922,39.922v17.856l-72.092,73.035
	c-0.504,0.511-0.971,1.043-1.409,1.592c-13.214,14.251-21.312,33.309-21.312,54.23v16.088H80.343z M471.579,347.322
	c0,10.656-4.147,20.676-11.683,28.22l-33.362,33.423c-1.111-9.973-9.559-17.728-19.828-17.728c-11.024,0-19.961,8.937-19.961,19.961
	v20.959c0,22.013-17.909,39.922-39.922,39.922H226.058c-22.013,0-39.922-17.909-39.922-39.922V309.278
	c0-22.014,17.909-39.923,39.922-39.923h120.764c22.013,0,39.922,17.909,39.922,39.923v2.993c0,11.024,8.937,19.961,19.961,19.961
	s19.961-8.937,19.961-19.961v-2.993c0-16.367-4.957-31.595-13.44-44.276l54.843-54.78c2.248,4.99,3.509,10.516,3.509,16.335V347.322
	z"/>
<g>
</g>
<g>
</g>
<g>
</g>
<g>
</g>
<g>
</g>
<g>
</g>
<g>
</g>
<g>
</g>
<g>
</g>
<g>
</g>
<g>
</g>
<g>
</g>
<g>
</g>
<g>
</g>
<g>
</g>
</svg>
