<svg id="Layer_1" height="512" viewBox="0 0 512 512" width="512" xmlns="http://www.w3.org/2000/svg" data-name="Layer 1"><path d="m363.63 437.48.04.08-107.67 53.76v-134.61l107.63-53.75z" fill="#49c160"/><path d="m457.67 256v134.62l-94 46.94-.04-.08v-134.52z" fill="#6bbaf9"/><path d="m457.67 121.38v134.62l-94.04 46.96v-134.62z" fill="#49c160"/><path d="m363.63 168.34v134.62l-107.63 53.75v-134.62l107.04-53.45z" fill="#f7df77"/><path d="m363.63 168.34-.59.3-114.85-57.36 94.63-47.25 114.85 57.35z" fill="#fb6771"/><path d="m342.82 64.03-94.63 47.25-86.41-43.15-.16-.32 94.38-47.13z" fill="#6bbaf9"/><path d="m248.19 111.28 114.85 57.36-107.04 53.45-114.36-57.11v-.1l.03-.41z" fill="#49c160"/><path d="m141.67 164.47-.03.41v.1l-87.31-43.6 107.29-53.57.16.32 86.41 43.15z" fill="#f7df77"/><path d="m141.64 299.6v134.51l-.04.09-87.27-43.58v-134.62z" fill="#49c160"/><path d="m256 356.71v134.61l-114.4-57.12.04-.09v-134.51z" fill="#f7df77"/><path d="m256 222.09v134.62l-114.36-57.11v-134.62z" fill="#6bbaf9"/><path d="m141.64 164.98v134.62l-87.31-43.6v-134.62z" fill="#fb6771"/><path d="m256 20.68-94.38 47.13.16.32 29.619 14.79.221-.11 94.38-47.13z" fill="#99d6ff"/><path d="m191.399 82.92-29.619-14.79-.16-.32-107.29 53.57 30.019 14.991z" fill="#ffeea4"/><path d="m84.33 270.981-30-14.981v134.62l30 14.981v-134.601z" fill="#67e87c"/><path d="m84.33 136.38.019-.009-30.019-14.991v134.62l30 14.981z" fill="#ffaeb6"/><g fill="#284268"><path d="m78.13 177.92a6 6 0 0 0 6-6v-4.61a6 6 0 0 0 -12 0v4.61a6 6 0 0 0 6 6z"/><path d="m78.13 242.59a6 6 0 0 0 6-6v-46.5a6 6 0 0 0 -12 0v46.5a6 6 0 0 0 6 6z"/><path d="m460.351 116.012-201.67-100.7a6 6 0 0 0 -5.362 0l-201.67 100.7a6 6 0 0 0 -3.319 5.368v269.24a6 6 0 0 0 3.319 5.368l201.67 100.7a6 6 0 0 0 5.362 0l201.67-100.7a6 6 0 0 0 3.319-5.368v-269.24a6 6 0 0 0 -3.319-5.368zm-16.112 5.368-81.2 40.549-101.42-50.647 81.2-40.545zm-188.239-93.993 73.387 36.644-81.2 40.544-73.379-36.646zm-120.36 397.127-75.31-37.6v-121.214l75.31 37.608zm0-134.616-75.31-37.608v-121.208l75.31 37.608zm-67.879-168.518 93.616-46.745 73.381 36.647-93.614 46.744zm182.239 360.237-102.36-51.111v-121.206l102.36 51.12zm6-266.234-45.56-22.751a6 6 0 0 0 -5.361 10.736l44.921 22.432v121.207l-102.36-51.116v-121.208l30.526 15.244a6 6 0 1 0 5.361-10.736l-28.953-14.458 93.614-46.744 101.418 50.649zm101.63-37.338v121.206l-95.63 47.756v-121.207zm94.04 208.865-82.04 40.965v-27.875a6 6 0 0 0 -12 0v33.867l-95.63 47.75v-121.197l95.63-47.755v57.165a6 6 0 1 0 12 0v-63.158l82.04-40.972zm0-134.621-82.04 40.97v-121.207l82.04-40.969z"/></g></svg>