<?xml version="1.0" encoding="iso-8859-1"?>
<!-- Generator: Adobe Illustrator 21.0.0, SVG Export Plug-In . SVG Version: 6.00 Build 0)  -->
<svg version="1.1" id="Capa_1" xmlns="http://www.w3.org/2000/svg" xmlns:xlink="http://www.w3.org/1999/xlink" x="0px" y="0px"
	 viewBox="0 0 511.997 511.997" style="enable-background:new 0 0 511.997 511.997;" xml:space="preserve">
<polygon style="fill:#EBEBEB;" points="470.683,131.441 256.003,7.498 41.324,131.441 40.79,131.748 40.79,380.248 40.858,380.294 
	256.003,504.498 471.137,380.282 471.205,380.248 471.205,131.748 "/>
<polygon style="fill:#FFA638;" points="470.683,131.441 256.003,7.498 256.003,255.396 256.003,256.078 256.003,504.498 
	471.137,380.282 471.205,380.248 471.205,131.748 "/>
<polygon style="fill:#CCCCCC;" points="256.003,255.396 256.003,256.078 40.858,380.293 40.79,380.248 40.79,131.748 
	41.324,131.441 "/>
<polygon style="fill:#FFA638;" points="471.206,131.748 471.206,380.248 471.137,380.282 256.003,256.078 256.003,255.396 
	470.683,131.441 "/>
<polygon style="fill:#ED8300;" points="471.206,131.748 471.206,380.248 471.137,380.282 256.003,256.078 256.003,255.396 
	470.683,131.441 "/>
<path d="M474.956,125.254L259.75,1.005c-2.32-1.34-5.18-1.34-7.5,0L37.042,125.254c-2.32,1.34-3.75,3.815-3.75,6.495v248.499
	c0,2.68,1.43,5.155,3.75,6.495l131.903,76.156c3.587,2.071,8.174,0.842,10.245-2.745s0.842-8.174-2.745-10.245L48.292,375.918
	v-1.049c1.396,1.286,3.217,1.992,5.081,1.992c1.272,0,2.563-0.324,3.743-1.006l10.393-6c3.587-2.071,4.816-6.658,2.745-10.245
	c-2.07-3.587-6.66-4.816-10.245-2.745l-10.393,6c-0.487,0.281-0.927,0.612-1.324,0.977V144.737l190.704,110.104
	c-1.176,2.208-1.228,4.952,0.115,7.278c1.389,2.406,3.91,3.751,6.502,3.751c0.971,0,1.952-0.192,2.887-0.585v226.222l-45.778-26.43
	c-3.589-2.073-8.175-0.842-10.245,2.745c-2.071,3.587-0.842,8.174,2.745,10.245l57.027,32.925c1.16,0.67,2.455,1.005,3.75,1.005
	s2.59-0.335,3.75-1.005l215.206-124.25c2.32-1.34,3.75-3.815,3.75-6.495V131.75C478.706,129.07,477.276,126.594,474.956,125.254z
	 M263.5,243.007v-2.638c0-4.142-3.357-7.5-7.5-7.5c-4.143,0-7.5,3.358-7.5,7.5v2.638L55.795,131.748L248.5,20.49v9.897
	c0,4.142,3.357,7.5,7.5,7.5c4.143,0,7.5-3.358,7.5-7.5V20.49l192.704,111.258L263.5,243.007z M263.5,491.507v-226.22
	c0.935,0.392,1.914,0.584,2.885,0.584c2.592,0,5.113-1.346,6.502-3.751c1.343-2.326,1.291-5.07,0.115-7.278l190.703-110.104V363.84
	c-0.397-0.365-0.836-0.695-1.322-0.975l-10.393-6c-3.589-2.072-8.175-0.842-10.245,2.745c-2.071,3.587-0.842,8.174,2.745,10.245
	l10.393,6c1.182,0.682,2.471,1.006,3.743,1.006c1.863,0,3.683-0.706,5.079-1.991v1.048L263.5,491.507z"/>
<path d="M371.36,310.312l-20.587-11.886c-3.589-2.072-8.175-0.842-10.245,2.745c-2.071,3.587-0.842,8.174,2.745,10.245
	l20.587,11.886c1.182,0.682,2.471,1.006,3.743,1.006c2.592,0,5.113-1.346,6.502-3.751
	C376.176,316.97,374.947,312.383,371.36,310.312z"/>
<path d="M320.75,281.093l-20.586-11.886c-3.587-2.072-8.175-0.843-10.245,2.745c-2.071,3.587-0.842,8.174,2.745,10.245
	l20.586,11.886c1.181,0.682,2.471,1.006,3.743,1.006c2.592,0,5.113-1.345,6.502-3.751
	C325.567,287.751,324.337,283.164,320.75,281.093z"/>
<path d="M421.968,339.531l-20.587-11.886c-3.589-2.072-8.175-0.842-10.245,2.745c-2.071,3.587-0.842,8.174,2.745,10.245
	l20.587,11.886c1.182,0.682,2.471,1.006,3.743,1.006c2.592,0,5.113-1.346,6.502-3.751
	C426.785,346.189,425.555,341.602,421.968,339.531z"/>
<path d="M198.749,294.083l20.587-11.886c3.587-2.071,4.816-6.658,2.745-10.245c-2.07-3.587-6.66-4.817-10.245-2.745l-20.587,11.886
	c-3.587,2.071-4.816,6.658-2.745,10.245c1.389,2.406,3.91,3.751,6.502,3.751C196.278,295.09,197.568,294.766,198.749,294.083z"/>
<path d="M110.618,327.646l-20.586,11.886c-3.587,2.071-4.816,6.658-2.745,10.245c1.39,2.406,3.91,3.751,6.502,3.751
	c1.272,0,2.563-0.325,3.743-1.006l20.586-11.886c3.587-2.071,4.816-6.658,2.745-10.245
	C118.791,326.803,114.204,325.576,110.618,327.646z"/>
<path d="M161.227,298.427l-20.587,11.886c-3.587,2.071-4.816,6.658-2.745,10.245c1.389,2.406,3.91,3.751,6.502,3.751
	c1.272,0,2.563-0.324,3.743-1.006l20.587-11.886c3.587-2.071,4.816-6.658,2.745-10.245
	C169.402,297.584,164.813,296.355,161.227,298.427z"/>
<path d="M256,174.431c-4.143,0-7.5,3.358-7.5,7.5v23.771c0,4.142,3.357,7.5,7.5,7.5c4.143,0,7.5-3.358,7.5-7.5v-23.771
	C263.5,177.789,260.142,174.431,256,174.431z"/>
<path d="M256,57.554c-4.143,0-7.5,3.358-7.5,7.5v23.771c0,4.142,3.357,7.5,7.5,7.5c4.143,0,7.5-3.358,7.5-7.5V65.054
	C263.5,60.912,260.142,57.554,256,57.554z"/>
<path d="M256,115.992c-4.143,0-7.5,3.358-7.5,7.5v23.771c0,4.142,3.357,7.5,7.5,7.5c4.143,0,7.5-3.358,7.5-7.5v-23.771
	C263.5,119.35,260.142,115.992,256,115.992z"/>
<g>
</g>
<g>
</g>
<g>
</g>
<g>
</g>
<g>
</g>
<g>
</g>
<g>
</g>
<g>
</g>
<g>
</g>
<g>
</g>
<g>
</g>
<g>
</g>
<g>
</g>
<g>
</g>
<g>
</g>
</svg>
