<svg id="_x31_px" enable-background="new 0 0 24 24" height="512" viewBox="0 0 24 24" width="512" xmlns="http://www.w3.org/2000/svg"><path d="m12 12c-.051 0-.102-.008-.15-.023l-9.5-3c-.208-.066-.35-.259-.35-.477s.141-.411.349-.477l4.77-1.51c.265-.083.545.064.628.326.083.264-.063.545-.326.628l-3.262 1.033 7.841 2.476 7.841-2.476-3.262-1.033c-.263-.083-.409-.364-.326-.627s.364-.409.627-.326l4.77 1.51c.209.065.35.258.35.476s-.142.411-.35.477l-9.5 3c-.048.015-.099.023-.15.023z"/><path d="m12 23.75c-.276 0-.5-.224-.5-.5v-11.5c0-.276.224-.5.5-.5s.5.224.5.5v11.5c0 .276-.224.5-.5.5z"/><path d="m14.5 15.5c-.158 0-.311-.075-.407-.209l-2.093-2.931-2.093 2.93c-.132.186-.375.258-.588.175l-9-3.5c-.141-.055-.25-.171-.295-.315-.046-.144-.024-.301.06-.427l1.815-2.723-1.815-2.723c-.086-.13-.107-.292-.057-.44.05-.147.167-.263.315-.312l6.52-2.17c.262-.085.546.055.633.317s-.055.545-.317.633l-5.899 1.963 1.637 2.455c.112.168.112.387 0 .555l-1.655 2.482 8.058 3.133 2.274-3.184c.188-.263.626-.263.813 0l2.274 3.184 8.058-3.133-1.655-2.482c-.112-.168-.112-.387 0-.555l1.637-2.455-5.898-1.963c-.262-.087-.404-.371-.317-.632.087-.262.371-.402.632-.317l6.52 2.17c.148.049.265.165.315.312.051.147.03.31-.057.44l-1.814 2.722 1.815 2.723c.084.126.106.284.061.428-.045.145-.154.261-.295.315l-9 3.5c-.06.023-.121.034-.182.034z"/><path d="m12 7.75c-.276 0-.5-.224-.5-.5v-6.75c0-.276.224-.5.5-.5s.5.224.5.5v6.75c0 .276-.224.5-.5.5z"/><path d="m12 8c-.128 0-.256-.049-.354-.146l-2.5-2.5c-.195-.195-.195-.512 0-.707s.512-.195.707 0l2.147 2.146 2.146-2.146c.195-.195.512-.195.707 0s.195.512 0 .707l-2.5 2.5c-.097.097-.225.146-.353.146z"/><path d="m12 24c-.211 0-.418-.033-.617-.097l-7.653-2.479c-1.035-.335-1.73-1.291-1.73-2.379v-6.545c0-.276.224-.5.5-.5s.5.224.5.5v6.545c0 .653.417 1.226 1.038 1.427l7.654 2.479c.198.064.419.064.617 0l7.653-2.479c.621-.201 1.038-.774 1.038-1.427v-6.545c0-.276.224-.5.5-.5s.5.224.5.5v6.545c0 1.088-.695 2.043-1.73 2.378l-7.653 2.479c-.199.065-.406.098-.617.098z"/></svg>