<?xml version="1.0" encoding="iso-8859-1"?>
<!-- Generator: Adobe Illustrator 19.0.0, SVG Export Plug-In . SVG Version: 6.00 Build 0)  -->
<svg version="1.1" id="Capa_1" xmlns="http://www.w3.org/2000/svg" xmlns:xlink="http://www.w3.org/1999/xlink" x="0px" y="0px"
	 viewBox="0 0 512.003 512.003" style="enable-background:new 0 0 512.003 512.003;" xml:space="preserve">
<polygon style="fill:#9430A1;" points="479.316,231.695 345.645,300.745 211.975,231.695 211.975,69.053 345.645,0.003 
	479.316,69.053 "/>
<polygon style="fill:#D261E8;" points="479.316,231.695 345.645,300.745 345.645,138.102 479.316,69.053 "/>
<polygon style="fill:#DE78F0;" points="211.975,69.053 345.645,138.102 479.316,69.053 345.645,0.003 "/>
<path style="fill:#FFDECF;" d="M129.406,371.753l85.597-84.013h147.756l81.892-81.892c15.408-15.408,40.388-15.408,55.796,0l0,0
	c15.408,15.408,15.408,40.388,0,55.796L369.768,392.323H210.352l-33.646,33.866L129.406,371.753z"/>
<path style="fill:#FFCDBE;" d="M250.003,346.907h109.385l141.059-141.059l0,0c-15.408-15.408-40.388-15.408-55.796,0l-81.892,81.892
	H250.003V346.907z"/>
<path style="fill:#FFDECF;" d="M153.11,396.848l95.987-95.987h85.366c20.788,0,37.641-16.852,37.641-37.641v-37.641H210.352
	l-112.63,112.63L153.11,396.848z"/>
<rect x="62.637" y="290.286" transform="matrix(-0.7071 0.7071 -0.7071 -0.7071 474.5187 602.4787)" style="fill:#64E1DC;" width="99.689" height="218.458"/>
<rect x="96.5" y="388.292" transform="matrix(-0.7071 -0.7071 0.7071 -0.7071 -51.8411 854.7998)" style="fill:#00C8C8;" width="109.229" height="99.689"/>
<g>
</g>
<g>
</g>
<g>
</g>
<g>
</g>
<g>
</g>
<g>
</g>
<g>
</g>
<g>
</g>
<g>
</g>
<g>
</g>
<g>
</g>
<g>
</g>
<g>
</g>
<g>
</g>
<g>
</g>
</svg>
