<svg id="_x31__x2C_5" enable-background="new 0 0 24 24" height="512" viewBox="0 0 24 24" width="512" xmlns="http://www.w3.org/2000/svg"><path d="m12 9.25v12l-9.25-3.25v-12z" fill="#64b5f6"/><path d="m12 2.75v6.5l-9.25-3.25z" fill="#2196f3"/><path d="m12 10c-.082 0-.166-.014-.249-.042l-9.25-3.25c-.3-.106-.501-.39-.501-.708s.201-.602.501-.708l9.25-3.25c.396-.139.819.069.957.459.137.391-.068.819-.459.956l-7.236 2.543 7.236 2.542c.391.137.596.565.459.956-.108.309-.398.502-.708.502z"/><path d="m12.943 3.832c-.082 0-.166-.014-.249-.042l-.943-.332c-.391-.137-.596-.565-.459-.956.137-.39.56-.598.957-.459l.943.332c.391.137.596.565.459.956-.108.308-.398.501-.708.501z"/><path d="m17.546 5.449c-.082 0-.166-.014-.249-.042l-1.841-.647c-.391-.137-.596-.565-.459-.956.137-.392.564-.596.957-.459l1.841.647c.391.137.596.565.459.956-.108.308-.399.501-.708.501z"/><path d="m20.307 7.082c-.31 0-.6-.193-.708-.501-.07-.199-.051-.407.035-.581-.086-.174-.104-.382-.035-.58.137-.391.561-.598.957-.459l.943.332c.3.105.501.389.501.707s-.201.602-.501.708l-.943.332c-.083.028-.167.042-.249.042z"/><path d="m15.704 8.699c-.31 0-.6-.193-.708-.501-.137-.391.068-.819.459-.956l1.841-.647c.396-.138.82.069.957.459.137.391-.068.819-.459.956l-1.841.647c-.083.028-.167.042-.249.042z"/><path d="m12 10c-.31 0-.6-.193-.708-.501-.137-.391.068-.819.459-.956l.943-.332c.395-.137.82.068.957.459s-.068.819-.459.956l-.943.332c-.083.028-.167.042-.249.042z"/><path d="m12 22c-.082 0-.166-.014-.249-.042l-9.25-3.25c-.3-.106-.501-.39-.501-.708v-12c0-.414.336-.75.75-.75s.75.336.75.75v11.469l8.749 3.074c.391.137.596.565.459.956-.108.308-.398.501-.708.501z"/><path d="m12 22c-.31 0-.6-.193-.708-.501-.137-.391.068-.819.459-.956l.943-.332c.395-.138.82.068.957.459s-.068.819-.459.956l-.943.332c-.083.028-.167.042-.249.042z"/><path d="m15.705 20.698c-.31 0-.6-.193-.708-.501-.137-.391.068-.819.459-.956l1.841-.647c.396-.138.819.068.957.459.137.391-.068.819-.459.956l-1.841.647c-.083.029-.167.042-.249.042z"/><path d="m20.307 19.082c-.31 0-.6-.193-.708-.501-.137-.391.068-.819.459-.956l.442-.155v-.47c0-.414.336-.75.75-.75s.75.336.75.75v1c0 .318-.201.602-.501.708l-.943.332c-.083.028-.167.042-.249.042z"/><path d="m21.25 14c-.414 0-.75-.336-.75-.75v-2.5c0-.414.336-.75.75-.75s.75.336.75.75v2.5c0 .414-.336.75-.75.75z"/><path d="m21.25 7.75c-.414 0-.75-.336-.75-.75v-1c0-.414.336-.75.75-.75s.75.336.75.75v1c0 .414-.336.75-.75.75z"/><path d="m12 24c-.414 0-.75-.336-.75-.75v-22.5c0-.414.336-.75.75-.75s.75.336.75.75v22.5c0 .414-.336.75-.75.75z"/></svg>