<svg id="Layer_1" enable-background="new 0 0 128 128" height="512" viewBox="0 0 128 128" width="512" xmlns="http://www.w3.org/2000/svg"><g><path d="m120.39 38.148-53.933-27.858c-.288-.148-.63-.148-.918 0l-53.929 27.858c-.333.172-.541.515-.541.889v53.928c0 .374.209.717.541.889l53.928 27.857c.144.074.301.111.459.111.157 0 .315-.037.459-.111l53.934-27.857c.332-.172.541-.515.541-.889v-53.929c0-.374-.209-.716-.541-.888z" fill="#e6e7e8"/><g><g><path d="m35.215 48.16 26.782-13.835v-27.146l-53.928 27.857v53.928l27.146-14.022z" fill="#fa759e"/><path d="m88.786 74.944-26.787 13.835-26.784-13.835v-.002l-27.146 14.022 53.928 27.858 53.934-27.858z" fill="#ffd7e5"/><path d="m61.997 113.607-50.817-26.25-3.111 1.607 53.928 27.858 53.934-27.858-3.111-1.607z" fill="#fff"/><path d="m62.003 7.179v27.147l26.783 13.834v26.782l27.145 14.022v-53.928z" fill="#fa759e"/></g><g><path d="m61.999 34.324-26.784 13.836 26.784 13.835 26.787-13.835z" fill="#0089ef"/><path d="m62.002 61.995v26.784l26.784-13.835v-26.784z" fill="#d4fbff"/><path d="m35.215 48.16v26.784l26.784 13.835v-26.784z" fill="#6dc9f7"/><g fill="#3a2c60"><path d="m62.003 23.804c.552 0 1-.448 1-1v-6.5c0-.552-.448-1-1-1s-1 .448-1 1v6.5c0 .552.448 1 1 1z"/><path d="m116.39 34.148-53.928-27.858c-.288-.148-.63-.149-.918 0l-53.934 27.858c-.332.172-.541.515-.541.889v53.928c0 .374.208.717.541.889l53.929 27.857c.144.074.301.111.459.111.157 0 .315-.037.459-.111l53.934-27.857c.332-.172.541-.515.541-.889v-53.929c-.001-.374-.209-.716-.542-.888zm-55.387-25.327v3.733c0 .552.448 1 1 1s1-.448 1-1v-3.733l51.928 26.824v51.677l-25.145-12.989v-26.174c0-.374-.209-.717-.541-.889l-26.242-13.553v-7.038c0-.552-.448-1-1-1s-1 .448-1 1v7.034l-26.248 13.558c-.333.172-.541.515-.541.889v26.175l-25.145 12.987v-51.677zm.996 26.628 24.608 12.71-24.608 12.711-24.606-12.71zm-25.784 38.886v-24.532l24.787 12.804v24.532zm26.786-11.732 24.784-12.801v24.533l-24.784 12.802zm-1.003 53.093-51.75-26.731 24.967-12.896 26.328 13.599c.144.074.301.111.459.111s.315-.037.459-.111l26.327-13.6 24.965 12.896z"/></g></g></g></g></svg>