<?xml version="1.0" encoding="iso-8859-1"?>
<!-- Generator: Adobe Illustrator 19.0.0, SVG Export Plug-In . SVG Version: 6.00 Build 0)  -->
<svg version="1.1" id="Capa_1" xmlns="http://www.w3.org/2000/svg" xmlns:xlink="http://www.w3.org/1999/xlink" x="0px" y="0px"
	 viewBox="0 0 512 512" style="enable-background:new 0 0 512 512;" xml:space="preserve">
<polygon style="fill:#BF4CD9;" points="278.522,246.776 256,512 28.432,394.446 28.432,117.554 256,205.02 483.568,117.554 "/>
<polygon style="fill:#FFBC36;" points="483.568,394.446 256,512 256,235.108 483.568,117.554 "/>
<polygon style="fill:#64E1DC;" points="28.432,117.554 256,235.108 483.568,117.554 256,0 "/>
<polygon style="fill:#00C8C8;" points="256,235.108 483.568,117.554 256,0 "/>
<path style="fill:#DE78F0;" d="M371.787,166.756c18.465,24.95,29.383,55.822,29.383,89.244c0,80.745-58.726,141.605-138.627,145.031
	c-2.17,0.093-4.351,5.141-6.544,5.141c-82.937,0-150.171-67.234-150.171-150.171c0-32.972,10.627-63.463,28.642-88.233"/>
<path style="fill:#FFE733;" d="M406.171,256c0,82.937-67.234,150.171-150.171,150.171c0-124.746,0-211.214,0-300.342
	C338.937,105.829,406.171,173.063,406.171,256z"/>
<path style="fill:#96EBE6;" d="M132.116,171.114L256,235.108l123.884-63.994c-27.065-39.423-72.451-65.285-123.884-65.285
	S159.181,131.691,132.116,171.114z"/>
<path style="fill:#64E1DC;" d="M256,235.108l123.884-63.994c-27.065-39.423-72.451-65.285-123.884-65.285
	C256,152.817,256,235.108,256,235.108z"/>
<g>
</g>
<g>
</g>
<g>
</g>
<g>
</g>
<g>
</g>
<g>
</g>
<g>
</g>
<g>
</g>
<g>
</g>
<g>
</g>
<g>
</g>
<g>
</g>
<g>
</g>
<g>
</g>
<g>
</g>
</svg>
