<svg id="Line" height="512" viewBox="0 0 64 64" width="512" xmlns="http://www.w3.org/2000/svg"><path d="m62 17.8-11.45-7.63a1 1 0 0 0 -1.1 0l-11.45 7.63c-.3.27-1 .46-1 1.2v14.13l-10.45-7a1 1 0 0 0 -1.1 0l-11.45 7.67c-.3.27-1 .46-1 1.2v16a1 1 0 0 0 .45.83l12 8a1 1 0 0 0 1.1 0l12-8a1 1 0 0 0 .45-.83v-14.14l10.45 7a1 1 0 0 0 1.1 0l12-8a1 1 0 0 0 .45-.86v-16c0-.77-.75-1-1-1.2zm-36 24-10.19-6.8 10.19-6.8 10.2 6.8zm24-16-10.2-6.8 10.2-6.8 10.19 6.8z" fill="#c4a2fc"/><path d="m48 47.14v-7.14a1 1 0 0 0 -1-1h-4v-19h4a1 1 0 0 0 1-1v-7.14a4 4 0 1 0 -2 0v6.14h-3.76l-15.79-7.89a1 1 0 0 0 -.9 0l-15.79 7.89h-3.76v-6.14a4 4 0 1 0 -2 0v7.14a1 1 0 0 0 1 1h4v19h-4a1 1 0 0 0 -1 1v7.14a4 4 0 1 0 2 0v-6.14h3.76l15.79 7.89a.94.94 0 0 0 .9 0l15.79-7.89h3.76v6.14a4 4 0 1 0 2 0zm-3-39.14a2 2 0 1 1 2 2 2 2 0 0 1 -2-2zm-42 0a2 2 0 1 1 2 2 2 2 0 0 1 -2-2zm4 43a2 2 0 1 1 -2-2 2 2 0 0 1 2 2zm20-23.38 14-7v18.76l-14 7zm-1-15.5 13.76 6.88-13.76 6.88-13.76-6.88zm-15 8.5 14 7v18.76l-14-7zm36 32.38a2 2 0 1 1 2-2 2 2 0 0 1 -2 2z" fill="#151a6a"/></svg>