<svg height="480pt" viewBox="0 0 480 480.01362" width="480pt" xmlns="http://www.w3.org/2000/svg"><path d="m442.921875 416.5625c-3.804687-1.484375-8.117187.128906-10.007813 3.746094-2.0625 2.210937-15.804687 11.703125-40.90625 11.703125-14.25.878906-28.378906-3.089844-40.085937-11.257813l.023437-92.738281c0-4.417969-3.578124-8-7.996093-8.003906-4.417969 0-8.003907 3.578125-8.003907 7.996093l-.023437 95.34375c0 .910157.15625 1.8125.460937 2.671876 3.265626 9.21875 24.40625 21.988281 55.625 21.988281 30.382813 0 52.078126-12.464844 55.445313-21.082031.773437-1.972657.734375-4.175782-.117187-6.121094-.851563-1.945313-2.4375-3.472656-4.414063-4.246094zm0 0"/><path d="m392.007812 48.011719c-49.34375 0-88 24.597656-88 56v37.011719l-89.289062-137.371094c-.035156-.050782-.105469-.066406-.140625-.121094-1.484375-2.226562-3.996094-3.5546875-6.675781-3.53125-2.675782.0234375-5.160156 1.398438-6.605469 3.652344l-101.636719 156.359375h-11.652344c-2.121093 0-4.15625.84375-5.65625 2.347656l-79.996093 79.992187-.03125.039063c-.632813.660156-1.148438 1.425781-1.523438 2.265625-.101562.242188-.191406.492188-.265625.746094-.246094.855468-.421875 1.730468-.5273435 2.609375v224c-.00390625 4.421875 3.5820315 8.003906 7.9999995 8h224c2.121094-.007813 4.15625-.851563 5.664063-2.347657l66.335937-66.339843v12.6875c0 31.402343 38.65625 56 88 56s88-24.597657 88-56v-320c0-31.402344-38.65625-56-88-56zm0 16c39.03125 0 72 18.316406 72 40 0 21.683593-32.96875 40-72 40s-72-18.316407-72-40c0-21.683594 32.96875-40 72-40zm-176-29.011719 81.257813 125.011719h-81.257813zm-16 0v125.011719h-81.257812zm-108.6875 141.011719h201.375l-64 64h-201.375zm-75.3125 80h208v208h-208zm224 196.6875v-201.375l64-64v201.375zm152 11.3125c-39.03125 0-72-18.316407-72-40v-287.480469c20.40625 16.210938 45.960938 24.546875 72 23.480469 26.039063 1.066406 51.59375-7.269531 72-23.480469v287.480469c0 21.683593-32.96875 40-72 40zm0 0"/><path d="m88.007812 432.011719h-40v-56c0-4.417969-3.582031-8-8-8-4.417968 0-8 3.582031-8 8v64c-.003906 4.421875 3.582032 8.003906 8 8h48c4.417969 0 8-3.578125 8-8 0-4.417969-3.582031-8-8-8zm0 0"/><path d="m136.007812 432.011719h-16c-4.417968 0-8 3.582031-8 8 0 4.421875 3.582032 8 8 8h16c4.417969 0 8-3.578125 8-8 0-4.417969-3.582031-8-8-8zm0 0"/><path d="m344.007812 304.011719c4.417969.003906 8-3.578125 8-8v-16c0-4.417969-3.582031-8-8-8-4.417968 0-8 3.582031-8 8v16c-.003906 4.421875 3.582032 8.003906 8 8zm0 0"/></svg>