<?xml version="1.0"?>
<svg xmlns="http://www.w3.org/2000/svg" xmlns:xlink="http://www.w3.org/1999/xlink" viewBox="0 0 96 96" width="512" height="512"><defs><linearGradient id="New_Gradient_Swatch_1" x1="31.466" y1="102.77" x2="77.901" y2="56.336" gradientUnits="userSpaceOnUse"><stop offset="0" stop-color="#34cdfa"/><stop offset="1" stop-color="#e8d9f1"/></linearGradient><linearGradient id="New_Gradient_Swatch_1-2" x1="11.011" y1="82.315" x2="57.445" y2="35.88" xlink:href="#New_Gradient_Swatch_1"/></defs><g id="_03-rotate" data-name="03-rotate"><g id="Flat"><path d="M75.673,33l-3,7.417C82.271,44.294,88,50.121,88,56c0,6.526-7.032,12.925-18.353,16.7l2.53,7.59C87.1,75.315,96,66.236,96,56,96,46.6,88.591,38.221,75.673,33Z" style="fill:url(#New_Gradient_Swatch_1)"/><path d="M42.829,65.171l-5.658,5.658,4.944,4.943C23.1,74.3,8,65.844,8,56c0-6.064,6.009-12,16.075-15.881L21.2,32.654C7.924,37.77,0,46.5,0,56,0,70.695,18.469,82.408,42.9,83.849l-5.08,5.414,5.834,5.474,11.261-12a4,4,0,0,0-.089-5.566Z" style="fill:url(#New_Gradient_Swatch_1-2)"/><path d="M49.789,26.422l-24-12A4,4,0,0,0,20,18V46a4,4,0,0,0,2.211,3.578l24,12A4,4,0,0,0,52,58V30A4,4,0,0,0,49.789,26.422Z" style="fill:#99e6fd"/><path d="M74.1,14.6a4,4,0,0,0-3.892-.175L48,25.528V62a4,4,0,0,0,1.789-.422l24-12A4,4,0,0,0,76,46V18A4,4,0,0,0,74.1,14.6Z" style="fill:#ccf2fe"/><path d="M75.57,16.215a3.992,3.992,0,0,0-1.781-1.793l-24-12a4,4,0,0,0-3.578,0l-24,12a3.992,3.992,0,0,0-1.781,1.793L48,30Z" style="fill:#e6f9fe"/></g></g></svg>
