<svg id="bold" enable-background="new 0 0 24 24" height="512" viewBox="0 0 24 24" width="512" xmlns="http://www.w3.org/2000/svg"><path d="m18 12 6 2.5-6 2.5-6-2.5z"/><path d="m17 18.208-5-2.083v5.375c0 .21.131.398.329.47l4.671 1.698z"/><path d="m19 18.208v5.46l4.671-1.698c.198-.072.329-.26.329-.47v-5.375z"/><g><path d="m9 10c-2.757 0-5-2.243-5-5s2.243-5 5-5 5 2.243 5 5-2.243 5-5 5z"/></g><path d="m10 14.5c0-1.048.662-1.992 1.647-2.35l.414-.15h-7.561c-2.481 0-4.5 2.019-4.5 4.5v4c0 .276.224.5.5.5h9.5z"/></svg>