<svg height="480pt" viewBox="0 0 480 480" width="480pt" xmlns="http://www.w3.org/2000/svg"><path d="m333.722656 194.765625c-81.644531 62.402344-60.746094 46.433594-93.722656 71.632813-33.535156-25.625-11.8125-9.023438-93.722656-71.632813l93.722656-71.632813zm0 0" fill="#4370ff"/><path d="m343.441406 182.078125-93.761718-71.679687c-5.703126-4.398438-13.65625-4.398438-19.359376 0l-93.761718 71.679687c-3.925782 3.0625-6.25 7.742187-6.320313 12.722656v7.839844l32 24.480469 23.761719 18.160156 38 29.039062v50.160157l-61.761719-47.121094v-9.917969l-32-24.480468v42.320312c-.011719 4.976562 2.332031 9.664062 6.320313 12.640625l93.761718 71.679687c5.730469 4.320313 13.628907 4.320313 19.359376 0l93.761718-71.679687c3.988282-2.976563 6.332032-7.664063 6.320313-12.640625v-90.480469c-.144531-4.960937-2.457031-9.609375-6.320313-12.722656zm-103.441406 64.160156-67.359375-51.4375 67.359375-51.519531 67.359375 51.519531zm77.761719 31.121094-61.761719 47.121094v-50.160157l60.71875-46.398437 1.042969-.800781zm0 0"/><path d="m464 90.4375c8.835938 0 16-7.164062 16-16v-58.4375c0-8.835938-7.164062-16-16-16h-58.4375c-8.835938 0-16 7.164062-16 16v13.210938h-299.125v-13.210938c0-8.835938-7.164062-16-16-16h-58.4375c-8.835938 0-16 7.164062-16 16v58.4375c0 8.835938 7.164062 16 16 16h13.21875v299.125h-13.21875c-8.835938 0-16 7.164062-16 16v58.4375c0 8.835938 7.164062 16 16 16h58.4375c8.835938 0 16-7.164062 16-16v-13.210938h299.125v13.210938c0 8.835938 7.164062 16 16 16h58.4375c8.835938 0 16-7.164062 16-16v-58.4375c0-8.835938-7.164062-16-16-16h-13.21875v-299.125zm-16-32h-26.4375v-26.4375h26.4375zm-416-26.4375h26.4375v26.4375h-26.4375zm0 389.5625h26.4375v26.4375h-26.4375zm416 26.4375h-26.4375v-26.4375h26.4375zm-29.21875-58.4375h-13.21875c-8.835938 0-16 7.164062-16 16v13.226562h-299.125v-13.226562c0-8.835938-7.164062-16-16-16h-13.21875v-299.125h13.21875c8.835938 0 16-7.164062 16-16v-13.226562h299.125v13.226562c0 8.835938 7.164062 16 16 16h13.21875zm0 0"/></svg>