<svg id="_x31_px" enable-background="new 0 0 24 24" height="512" viewBox="0 0 24 24" width="512" xmlns="http://www.w3.org/2000/svg"><path d="m17.5 24c-.105 0-.21-.033-.299-.1-.253-.188-6.201-4.67-6.201-8.269 0-2.002 1.628-3.631 3.63-3.631 1.14 0 2.193.531 2.87 1.403.676-.872 1.729-1.403 2.87-1.403 2.002 0 3.63 1.629 3.63 3.631 0 3.6-5.948 8.081-6.201 8.27-.089.066-.194.099-.299.099zm-2.87-11c-1.45 0-2.63 1.181-2.63 2.631 0 2.429 3.723 5.848 5.5 7.239 1.776-1.392 5.5-4.812 5.5-7.239 0-1.45-1.18-2.631-2.63-2.631-1.049 0-1.995.619-2.411 1.577-.158.365-.759.365-.917 0-.417-.958-1.363-1.577-2.412-1.577z"/><path d="m10 8c-.059 0-.117-.011-.173-.031l-9.5-3.5c-.197-.073-.327-.259-.327-.469s.13-.396.327-.469l9.5-3.5c.111-.041.234-.041.346 0l9.5 3.5c.197.073.327.259.327.469s-.13.396-.327.469l-9.5 3.5c-.056.02-.114.031-.173.031zm-8.054-4 8.054 2.967 8.054-2.967-8.054-2.967z"/><path d="m9.59 19.85h-.01c-.059 0-.118-.011-.173-.031l-9.08-3.35c-.197-.073-.327-.26-.327-.469v-12c0-.276.224-.5.5-.5s.5.224.5.5v11.651l8.737 3.224c.201.065.348.253.348.475 0 .276-.219.5-.495.5z"/><path d="m19.5 10c-.276 0-.5-.224-.5-.5v-5.5c0-.276.224-.5.5-.5s.5.224.5.5v5.5c0 .276-.224.5-.5.5z"/><path d="m10 12c-.276 0-.5-.224-.5-.5v-4c0-.276.224-.5.5-.5s.5.224.5.5v4c0 .276-.224.5-.5.5z"/></svg>