<svg id="bold" enable-background="new 0 0 24 24" height="512" viewBox="0 0 24 24" width="512" xmlns="http://www.w3.org/2000/svg"><g><path d="m11 11.761-7-2.625v7.864c0 .215.138.406.342.474l6.658 2.22z"/></g><g><path d="m13 11.761v7.932l6.658-2.219c.204-.068.342-.259.342-.474v-7.864z"/></g><g><path d="m12 4 8 3-8 3-8-3z"/></g><g><path d="m12 24c-.192 0-.384-.073-.53-.22l-1.25-1.25c-.471-.471-.136-1.28.53-1.28h2.5c.666 0 1.001.809.53 1.28l-1.25 1.25c-.146.147-.338.22-.53.22z"/></g><g><path d="m13.25 2.75h-2.5c-.666 0-1.001-.809-.53-1.28l1.25-1.25c.293-.293.768-.293 1.061 0l1.25 1.25c.47.471.135 1.28-.531 1.28z"/></g><g><path d="m21.25 13.25v-2.5c0-.669.813-.998 1.28-.53l1.25 1.25c.293.293.293.768 0 1.061l-1.25 1.25c-.469.468-1.28.141-1.28-.531z"/></g><g><path d="m1.47 13.78-1.25-1.25c-.293-.293-.293-.768 0-1.061l1.25-1.25c.47-.47 1.28-.137 1.28.53v2.5c0 .67-.811 1-1.28.531z"/></g></svg>