<?xml version="1.0" encoding="iso-8859-1"?>
<!-- Generator: Adobe Illustrator 19.0.0, SVG Export Plug-In . SVG Version: 6.00 Build 0)  -->
<svg version="1.1" id="Capa_1" xmlns="http://www.w3.org/2000/svg" xmlns:xlink="http://www.w3.org/1999/xlink" x="0px" y="0px"
	 viewBox="0 0 512 512" style="enable-background:new 0 0 512 512;" xml:space="preserve">
<path style="fill:#4DBAEE;" d="M478.9,383.5c-1.199,2.1-2.999,4.2-5.4,5.4l-210,121c-2.401,1.5-4.799,2.1-7.5,2.1
	s-5.099-0.601-7.5-2.1l-210-121c-2.401-1.199-4.2-3.3-5.4-5.4l22.8-57.001l70.8-29.099l38.699,10.499
	C183.401,339.399,217,361,256,361s72.599-21.601,90.601-53.101L390.4,297.4l65.101,38.099L478.9,383.5z"/>
<g>
	<path style="fill:#1BA9EF;" d="M455.501,335.499L478.9,383.5c-1.199,2.1-2.999,4.2-5.4,5.4l-210,121c-2.401,1.5-4.799,2.1-7.5,2.1
		V361c39,0,72.599-21.601,90.601-53.101L390.4,297.4L455.501,335.499z"/>
	<path style="fill:#1BA9EF;" d="M164.901,204.101l-6.489-21.068l-96.13-55.005L33.1,128.5l-0.057-0.033
		C31.734,130.721,31,133.305,31,136v240c0,2.653,0.727,5.198,2,7.427l132.257-75.575C156.44,292.489,151,274.946,151,256
		C151,237.543,155.673,220.082,164.901,204.101z"/>
</g>
<path style="fill:#1689FC;" d="M478.9,128.5l-22.388-4.36l-97.654,55.878L347.099,204.1C356.327,220.082,361,237.543,361,256
	c0,18.946-5.44,36.489-14.257,51.852L479,383.429c1.273-2.228,2-4.775,2-7.429V136c0-2.651-0.714-5.2-1.983-7.429L478.9,128.5z"/>
<path style="fill:#4DBAEE;" d="M473.5,123.1l-210-121C261.099,0.599,258.401,0,256,0s-5.099,0.599-7.5,2.1l-210,121
	c-2.1,1.199-4.2,2.999-5.4,5.4l131.999,75.599C183.401,171.4,218.2,151,256,151s72.599,20.4,90.901,53.099L478.9,128.5
	C477.7,126.099,475.6,124.3,473.5,123.1z"/>
<path style="fill:#1BA9EF;" d="M256,151V0c2.401,0,5.099,0.599,7.5,2.1l210,121c2.1,1.199,4.2,2.999,5.4,5.4l-131.999,75.599
	C328.599,171.4,293.8,151,256,151z"/>
<path style="fill:#FEDB41;" d="M373.299,189.099L368.5,226L256,307.899l-1.8,1.199l-111.899-88.2l-3.301-31.8
	C162.4,147.1,207.4,121,256,121s93.3,26.1,117.001,68.099H373.299z"/>
<path style="fill:#FCBF29;" d="M373.299,189.099L368.5,226L256,307.899V121c48.6,0,93.3,26.1,117.001,68.099H373.299z"/>
<path style="fill:#FEA832;" d="M391,256c0,74.399-60.601,135-135,135s-135-60.601-135-135c0-23.701,6-46.201,17.999-66.901l26.1,15
	L256,256l90.901-51.901l26.1-15c0,0,0,0,0.298,0C385,209.799,391,232.299,391,256z"/>
<path style="fill:#FE9923;" d="M391,256c0,74.399-60.601,135-135,135V256l90.901-51.901l26.1-15c0,0,0,0,0.298,0
	C385,209.799,391,232.299,391,256z"/>
<g>
</g>
<g>
</g>
<g>
</g>
<g>
</g>
<g>
</g>
<g>
</g>
<g>
</g>
<g>
</g>
<g>
</g>
<g>
</g>
<g>
</g>
<g>
</g>
<g>
</g>
<g>
</g>
<g>
</g>
</svg>
