<svg id="Layer_1" enable-background="new 0 0 256 256" height="512" viewBox="0 0 256 256" width="512" xmlns="http://www.w3.org/2000/svg"><g><g><g><path d="m47.658 36.979c-.974 11.564-13.024 13.39-13.024 13.39 10.346.487 12.925 14.059 12.925 14.059.221-9.677 13.321-14.202 13.321-14.202-9.814-.587-13.222-13.247-13.222-13.247z" fill="#d7e057"/></g></g><g><g><path d="m60.969 48.729c-8.604-.515-11.832-12.024-11.864-12.141-.191-.703-.861-1.169-1.583-1.102-.725.066-1.298.642-1.359 1.367-.86 10.215-11.313 11.964-11.754 12.033-.763.115-1.313.79-1.273 1.561.04.77.657 1.384 1.428 1.421 9.028.425 11.499 12.718 11.522 12.842.137.711.759 1.217 1.472 1.217.042 0 .084-.001.126-.005.764-.064 1.357-.693 1.375-1.459.194-8.509 12.191-12.777 12.312-12.819.675-.235 1.092-.914.994-1.623s-.682-1.25-1.396-1.292zm-13.566 10.345c-1.357-3.13-3.709-6.907-7.587-8.876 2.931-1.405 6.409-3.913 8.202-8.273 1.551 3.071 4.2 6.88 8.333 8.723-3.006 1.639-6.921 4.405-8.948 8.426z" fill="#3a312a"/></g></g><g><g><path d="m25.959 53.96c-.689 8.179-9.212 9.471-9.212 9.471 7.318.344 9.142 9.944 9.142 9.944.156-6.845 9.422-10.045 9.422-10.045-6.941-.416-9.352-9.37-9.352-9.37z" fill="#d7e057"/></g></g><g><g><path d="m35.401 61.832c-5.767-.345-7.973-8.186-7.994-8.265-.19-.702-.853-1.164-1.582-1.102-.726.065-1.299.643-1.36 1.368-.579 6.871-7.647 8.067-7.942 8.114-.763.115-1.313.79-1.273 1.561.04.77.657 1.384 1.427 1.421 6.036.284 7.724 8.644 7.739 8.726.135.713.759 1.22 1.472 1.22.042 0 .083-.001.125-.005.765-.063 1.358-.694 1.376-1.461.13-5.709 8.331-8.634 8.413-8.662.676-.234 1.094-.913.996-1.622-.098-.708-.683-1.25-1.397-1.293zm-9.585 6.795c-.924-1.885-2.34-3.947-4.447-5.279 1.856-1.042 3.697-2.63 4.871-4.917 1.057 1.874 2.655 3.954 4.941 5.224-1.85 1.1-3.989 2.74-5.365 4.972z" fill="#3a312a"/></g></g><g><g><path d="m25.959 27.303c-.689 8.179-9.212 9.47-9.212 9.47 7.318.344 9.142 9.944 9.142 9.944.156-6.844 9.422-10.045 9.422-10.045-6.941-.415-9.352-9.369-9.352-9.369z" fill="#d7e057"/></g></g><g><g><path d="m35.4 35.174c-5.766-.345-7.972-8.185-7.994-8.264-.19-.702-.853-1.165-1.582-1.102-.726.065-1.299.643-1.36 1.368-.579 6.871-7.647 8.067-7.942 8.114-.763.115-1.313.79-1.273 1.561.04.77.657 1.384 1.428 1.421 6.035.284 7.723 8.644 7.739 8.725.135.713.759 1.22 1.472 1.22.042 0 .083-.001.125-.005.765-.063 1.358-.694 1.376-1.461.13-5.709 8.331-8.634 8.413-8.662.676-.234 1.094-.913.996-1.622-.098-.708-.683-1.25-1.398-1.293zm-9.584 6.795c-.924-1.885-2.34-3.947-4.447-5.279 1.856-1.041 3.697-2.629 4.87-4.916 1.057 1.874 2.654 3.954 4.941 5.223-1.849 1.101-3.988 2.74-5.364 4.972z" fill="#3a312a"/></g></g><g><g><path d="m128.253 24c-.829 0-1.5.671-1.5 1.5v137c0 .829.671 1.5 1.5 1.5s1.5-.671 1.5-1.5v-137c0-.829-.671-1.5-1.5-1.5z" fill="#3a312a"/></g></g><g><g><path d="m239.832 207.341-111-46.449c-.371-.155-.787-.155-1.158 0l-111 46.449c-.764.32-1.125 1.199-.805 1.963.32.765 1.198 1.123 1.963.805l110.421-46.207 110.421 46.207c.189.079.385.117.579.117.587 0 1.144-.347 1.384-.921.32-.765-.04-1.644-.805-1.964z" fill="#3a312a"/></g></g><g><g><path d="m128.253 137.5v93l81.25-34v-93z" fill="#8ac6dd"/></g></g><g><g><path d="m210.334 102.251c-.418-.279-.948-.328-1.41-.135l-81.25 34c-.558.233-.921.779-.921 1.384v93c0 .502.251.971.669 1.249.25.167.54.251.831.251.196 0 .393-.039.579-.116l81.25-34c.558-.233.921-.779.921-1.384v-93c0-.502-.251-.971-.669-1.249zm-2.331 93.25-78.25 32.745v-89.748l78.25-32.745z" fill="#3a312a"/></g></g><g><g><path d="m47.003 103.5v41.494 14.512 36.994l81.25 34v-93z" fill="#f4e0c4"/></g></g><g><g><path d="m128.833 136.116-81.25-34c-.462-.193-.991-.144-1.41.135-.418.278-.669.747-.669 1.249v41.494c0 .829.671 1.5 1.5 1.5s1.5-.671 1.5-1.5v-39.24l78.25 32.745v89.748l-78.25-32.745v-35.996c0-.829-.671-1.5-1.5-1.5s-1.5.671-1.5 1.5v36.994c0 .604.363 1.15.921 1.384l81.25 34c.186.078.383.116.579.116.291 0 .581-.085.831-.251.418-.278.669-.747.669-1.249v-93c-.001-.604-.364-1.15-.921-1.384z" fill="#3a312a"/></g></g><g><g><path d="m128.253 69.5-18.963 7.936-13.132 5.495-49.155 20.569 81.25 34 81.25-34z" fill="#f16c7a"/></g></g><g><g><path d="m210.083 102.116-81.25-34c-.37-.155-.787-.155-1.158 0l-18.964 7.936c-.764.32-1.125 1.199-.805 1.963.32.765 1.201 1.125 1.963.805l18.385-7.693 77.364 32.374-77.364 32.374-77.365-32.375 45.848-19.186c.764-.32 1.124-1.199.805-1.963-.32-.765-1.199-1.125-1.963-.805l-49.154 20.569c-.558.233-.921.779-.921 1.384s.363 1.15.921 1.384l81.25 34c.185.078.382.116.579.116s.394-.039.579-.116l81.25-34c.558-.233.921-.779.921-1.384s-.364-1.149-.921-1.383z" fill="#3a312a"/></g></g><g><g><path d="m192 112.45v76.88c0 3.737-2.244 7.109-5.692 8.552l-56.558 23.668v6.7l78.25-32.75v-89.75z" fill="#6ca8bf"/></g></g><g><g><path d="m192 97.8v11.4l13.62-5.7z" fill="#d34e5c"/></g></g><g><g><path d="m192 97.8v11.4l13.62-5.7z" fill="#d34e5c"/></g></g></g></svg>