<?xml version="1.0" standalone="no"?>
<!DOCTYPE svg PUBLIC "-//W3C//DTD SVG 20010904//EN"
 "http://www.w3.org/TR/2001/REC-SVG-20010904/DTD/svg10.dtd">
<svg version="1.0" xmlns="http://www.w3.org/2000/svg"
 width="501.000000pt" height="501.000000pt" viewBox="0 0 501.000000 501.000000"
 preserveAspectRatio="xMidYMid meet">
<metadata>
Created by potrace 1.11, written by Peter Selinger 2001-2013
</metadata>
<g transform="translate(0.000000,501.000000) scale(0.100000,-0.100000)"
fill="#000000" stroke="none">
<path d="M2399 4955 c-51 -30 -101 -60 -109 -65 -8 -6 -22 -13 -30 -17 -8 -4
-59 -33 -113 -65 -54 -32 -100 -58 -102 -58 -2 0 -33 -18 -69 -40 -36 -22 -70
-40 -76 -40 -5 0 -10 -4 -10 -9 0 -5 -9 -13 -21 -16 -26 -9 -142 -76 -150 -88
-3 -5 -9 -8 -13 -7 -4 0 -50 -25 -104 -56 -53 -31 -110 -64 -127 -73 -16 -9
-31 -19 -33 -23 -2 -5 -9 -8 -16 -8 -6 0 -28 -11 -47 -25 -20 -13 -39 -21 -43
-18 -3 4 -6 2 -6 -4 0 -5 -21 -20 -47 -33 -27 -13 -50 -26 -53 -29 -5 -7 -142
-86 -230 -134 -30 -17 -66 -38 -80 -47 -14 -9 -32 -20 -40 -23 -8 -4 -28 -15
-45 -25 -16 -10 -50 -30 -75 -44 -85 -48 -295 -170 -315 -182 -11 -7 -22 -13
-25 -12 -3 1 -18 -9 -34 -21 -16 -13 -35 -23 -42 -23 -10 0 -14 -14 -14 -47
-1 -27 -1 -592 -1 -1256 0 -887 3 -1213 11 -1223 7 -7 21 -16 33 -20 11 -3 43
-21 71 -39 28 -17 58 -35 66 -38 8 -4 29 -15 45 -26 36 -22 501 -291 593 -342
20 -12 78 -45 127 -74 50 -29 93 -52 96 -52 3 1 13 -6 23 -16 10 -9 24 -17 32
-17 8 0 14 -4 14 -10 0 -5 4 -10 10 -10 5 0 44 -21 87 -46 43 -26 103 -60 133
-77 30 -17 72 -41 92 -54 21 -13 42 -23 47 -23 5 0 11 -3 13 -7 3 -8 69 -46
115 -68 13 -5 23 -13 23 -17 0 -5 6 -8 14 -8 7 0 19 -7 26 -15 7 -8 16 -13 20
-10 5 3 11 1 14 -4 7 -11 114 -72 120 -69 2 2 15 -6 28 -17 13 -11 32 -25 43
-31 11 -5 77 -43 147 -83 l127 -73 72 41 c39 23 74 41 79 41 4 0 13 7 20 15 7
8 16 12 21 9 5 -3 9 -1 9 5 0 6 21 21 48 34 26 13 74 39 107 59 180 106 375
218 380 218 3 0 18 8 33 19 15 10 70 43 122 73 89 52 112 66 208 119 104 59
440 254 462 268 14 9 51 30 82 46 32 17 58 33 58 38 0 4 5 7 10 7 11 0 254
139 301 171 14 10 29 16 33 12 3 -3 6 -1 6 5 0 7 7 12 15 12 8 0 15 5 15 11 0
5 4 8 9 5 5 -3 14 1 21 9 7 8 18 15 25 15 36 0 36 -1 36 1274 1 1028 -2 1248
-13 1259 -14 15 -62 43 -90 53 -10 3 -18 11 -18 16 0 5 -4 6 -10 3 -5 -3 -10
-2 -10 3 0 5 -8 12 -17 15 -19 7 -46 22 -195 110 -53 31 -102 57 -107 57 -6 0
-11 5 -11 10 0 6 -6 10 -14 10 -7 0 -19 7 -26 15 -7 9 -15 13 -18 11 -2 -3
-16 4 -30 14 -13 11 -30 20 -38 20 -7 0 -14 4 -16 8 -1 5 -28 22 -58 39 -152
84 -466 268 -471 275 -3 5 -12 10 -20 11 -8 2 -21 7 -29 12 -8 6 -24 15 -35
21 -39 21 -70 39 -75 44 -3 3 -25 16 -50 29 -25 13 -52 30 -61 38 -9 7 -19 10
-22 6 -4 -3 -7 -1 -7 5 0 7 -6 12 -14 12 -7 0 -19 7 -26 15 -7 9 -15 13 -18
11 -2 -3 -16 4 -30 14 -13 11 -31 20 -38 20 -8 0 -14 4 -14 8 0 4 -19 18 -42
30 -24 12 -65 35 -93 52 -27 17 -59 35 -70 40 -11 6 -33 19 -50 29 -16 10 -48
28 -70 41 -21 12 -89 51 -151 86 -61 35 -113 64 -116 64 -2 0 -47 -25 -99 -55z
m152 -276 c14 -10 29 -16 33 -12 3 3 6 2 6 -3 0 -5 26 -22 58 -39 31 -16 59
-32 62 -35 3 -3 16 -11 30 -19 60 -34 285 -165 314 -182 17 -10 47 -27 66 -36
19 -10 40 -22 45 -26 21 -17 357 -207 366 -207 5 0 9 -4 9 -10 0 -5 4 -10 9
-10 6 0 88 -46 183 -101 95 -56 198 -115 228 -132 30 -17 72 -41 92 -54 21
-13 42 -23 47 -23 5 0 16 -6 23 -13 7 -7 43 -30 81 -50 37 -21 67 -41 67 -45
0 -4 -26 -20 -58 -37 -31 -16 -58 -33 -60 -37 -2 -5 -10 -8 -18 -8 -8 0 -14
-5 -14 -11 0 -5 -4 -7 -10 -4 -5 3 -10 1 -10 -4 0 -6 -4 -11 -9 -11 -4 0 -77
-39 -160 -87 -84 -49 -169 -97 -189 -108 -20 -11 -41 -24 -47 -28 -5 -4 -46
-28 -90 -53 -44 -25 -81 -49 -83 -53 -4 -12 -92 16 -92 28 0 4 -16 13 -35 21
-19 8 -35 17 -35 22 0 4 -4 8 -10 8 -5 0 -74 38 -152 83 -79 46 -163 95 -188
109 -25 14 -61 35 -80 47 -19 11 -42 24 -50 28 -8 4 -81 46 -162 94 -81 48
-149 85 -152 82 -3 -3 -8 1 -12 10 -3 9 -19 19 -35 22 -24 6 -47 -3 -125 -49
-52 -31 -99 -56 -105 -56 -5 0 -9 -4 -9 -10 0 -5 -4 -10 -10 -10 -5 0 -40 -18
-76 -41 -37 -22 -78 -45 -91 -50 -12 -4 -23 -13 -23 -19 0 -6 -4 -9 -9 -5 -5
3 -17 -2 -25 -11 -9 -8 -16 -13 -16 -9 0 3 -20 -8 -44 -25 -25 -16 -46 -30
-49 -30 -2 0 -100 -56 -218 -124 l-214 -124 -55 30 c-30 17 -59 34 -65 38 -5
4 -30 19 -55 32 -56 31 -167 96 -197 114 -13 8 -26 15 -30 15 -5 1 -20 10 -35
20 -14 10 -31 19 -37 19 -6 0 -11 3 -11 8 0 4 -10 12 -23 18 -26 13 -110 60
-152 86 -16 10 -38 21 -48 24 -9 4 -17 10 -17 14 0 4 -11 11 -25 14 -45 11
-39 17 100 97 22 12 58 33 80 46 22 12 59 33 83 45 23 12 42 26 42 31 0 4 4 6
9 2 5 -3 15 1 23 8 18 17 175 107 188 107 5 0 10 5 10 10 0 6 7 10 15 10 8 0
15 5 15 11 0 5 5 7 10 4 6 -3 10 -2 10 3 0 6 12 15 28 21 27 11 55 27 197 111
44 26 100 58 125 72 25 14 80 46 123 71 42 25 77 43 77 39 0 -4 4 -2 8 3 7 10
36 29 122 78 32 18 157 90 385 223 91 53 100 54 146 23z m-27 -1188 c3 -5 25
-18 48 -30 24 -12 52 -27 63 -34 11 -7 47 -28 80 -47 33 -19 74 -43 90 -53 17
-9 38 -20 48 -23 9 -4 17 -11 17 -16 0 -5 4 -7 9 -3 5 3 12 1 15 -4 3 -5 52
-35 108 -67 57 -32 110 -63 119 -69 9 -5 54 -32 100 -58 46 -26 98 -56 114
-66 l30 -18 1 -416 c1 -299 -2 -417 -10 -417 -6 0 -28 11 -48 25 -20 14 -40
25 -44 25 -4 0 -22 11 -41 26 -18 14 -33 23 -33 20 0 -2 -66 36 -146 85 -81
49 -149 89 -151 89 -3 0 -25 14 -50 30 -24 17 -46 30 -48 30 -1 0 -62 36 -135
80 -73 43 -140 82 -150 85 -11 3 -54 -17 -116 -55 -55 -33 -118 -69 -141 -81
-23 -11 -47 -27 -54 -35 -6 -8 -15 -14 -19 -14 -5 0 -121 -68 -260 -150 -138
-83 -259 -154 -269 -160 -17 -9 -18 11 -18 403 0 227 3 420 8 429 5 9 27 24
49 34 22 10 40 21 40 26 0 4 5 8 10 8 6 0 103 54 216 120 114 66 210 120 215
120 5 0 9 5 9 10 0 6 6 10 13 11 6 0 75 38 152 84 136 81 168 95 179 76z
m-1873 -69 c24 -16 51 -31 59 -35 16 -7 37 -20 82 -50 16 -10 28 -15 28 -10 0
4 4 3 8 -2 8 -13 480 -285 493 -285 5 0 9 -4 9 -9 0 -5 9 -11 20 -14 23 -6 20
68 21 -753 l1 -406 61 -39 c34 -21 68 -39 75 -39 6 0 12 -4 12 -8 0 -5 16 -14
35 -22 19 -8 35 -17 35 -21 0 -4 8 -9 18 -12 9 -4 35 -17 57 -30 108 -66 288
-167 296 -167 5 0 9 -3 9 -7 0 -5 10 -13 23 -19 66 -32 107 -57 107 -66 0 -5
4 -7 8 -4 5 3 24 -5 43 -18 19 -12 68 -42 109 -65 41 -23 93 -53 115 -67 22
-14 48 -27 58 -31 9 -3 17 -10 17 -15 0 -5 4 -7 9 -4 4 3 16 -1 26 -8 16 -11
30 -6 114 44 53 31 117 68 142 82 84 47 94 53 99 59 3 3 19 12 35 21 17 8 107
59 200 113 94 54 183 106 200 114 16 9 32 19 35 22 3 3 37 23 75 44 39 20 75
41 80 45 6 4 30 19 55 32 25 14 59 34 77 44 l31 18 1 575 c0 542 1 575 18 585
10 5 24 16 31 23 7 7 17 13 22 13 4 0 69 36 144 80 76 44 140 80 143 80 4 0
14 6 22 14 9 7 41 26 71 42 30 16 57 31 60 34 5 5 14 10 89 52 20 11 66 38
103 59 36 22 69 39 72 39 3 0 6 -460 6 -1023 l0 -1022 -22 -14 c-44 -28 -248
-145 -320 -184 -21 -12 -38 -25 -38 -29 0 -5 -4 -7 -9 -4 -5 3 -19 -2 -32 -12
-13 -10 -31 -22 -39 -25 -8 -4 -22 -11 -30 -17 -35 -22 -222 -130 -227 -130
-3 0 -24 -12 -47 -27 -22 -16 -54 -35 -71 -43 -16 -8 -36 -21 -43 -27 -7 -7
-17 -13 -22 -13 -7 0 -258 -143 -330 -188 -14 -9 -25 -14 -26 -11 0 2 -9 -3
-19 -11 -17 -14 -47 -33 -75 -47 -8 -4 -71 -40 -139 -80 -67 -40 -125 -73
-126 -73 -5 0 -108 -63 -115 -70 -3 -3 -11 -6 -19 -8 -8 -2 -27 -12 -42 -23
-15 -10 -32 -19 -37 -19 -6 0 -12 -4 -14 -8 -1 -4 -18 -15 -37 -24 -26 -12
-40 -14 -58 -5 -12 5 -23 14 -23 19 0 4 -4 8 -9 8 -6 0 -38 17 -73 37 -35 20
-63 35 -64 32 0 -2 -8 4 -18 13 -10 10 -24 18 -32 18 -8 0 -14 5 -14 10 0 6
-5 10 -11 10 -5 0 -71 36 -145 80 -74 44 -138 80 -144 80 -5 0 -10 5 -10 10 0
6 -4 10 -9 10 -5 0 -48 22 -96 50 -48 27 -91 50 -96 50 -5 0 -9 5 -9 10 0 6
-5 10 -10 10 -6 0 -38 17 -73 37 -34 21 -76 45 -92 53 -17 8 -32 18 -35 21 -3
3 -25 16 -50 29 -25 14 -53 31 -62 39 -10 8 -18 10 -18 5 0 -5 -4 -4 -8 2 -4
5 -77 50 -162 99 -85 48 -163 95 -174 104 -10 9 -20 15 -22 14 -2 -1 -19 7
-38 18 -20 11 -38 20 -42 19 -4 -1 -10 2 -13 7 -3 5 -79 51 -168 102 l-163 93
0 1024 c0 563 4 1024 8 1024 4 0 28 -13 53 -28z m1949 -1112 c14 -10 41 -26
60 -36 76 -42 185 -109 192 -119 4 -5 8 -6 8 -2 0 5 12 0 28 -11 30 -21 162
-102 167 -102 2 0 32 -18 66 -40 35 -22 74 -44 87 -50 23 -10 30 -30 11 -30
-6 0 -31 -13 -56 -30 -24 -16 -46 -30 -48 -30 -3 0 -33 -17 -68 -39 -35 -21
-73 -42 -85 -45 -12 -4 -22 -11 -22 -15 0 -4 -16 -13 -35 -21 -19 -8 -35 -17
-35 -22 0 -4 -4 -8 -9 -8 -7 0 -98 -51 -229 -129 -29 -17 -57 -31 -62 -31 -6
0 -10 -3 -10 -8 0 -13 -57 -33 -76 -25 -10 3 -36 17 -57 30 -21 13 -55 33 -75
45 -133 74 -198 113 -204 122 -4 6 -8 7 -8 2 0 -5 -8 -3 -17 5 -10 8 -27 19
-38 25 -44 24 -310 178 -315 182 -3 3 1 7 8 9 7 3 19 11 26 19 8 8 17 14 20
14 3 0 91 52 196 115 105 63 200 117 211 120 10 4 19 10 19 14 0 4 19 17 43
30 60 31 126 70 166 97 l34 23 41 -21 c23 -11 52 -28 66 -38z"/>
</g>
</svg>
