<svg id="Icons" height="512" viewBox="0 0 74 74" width="512" xmlns="http://www.w3.org/2000/svg"><path d="m37 72.01a1 1 0 0 1 -1-1v-39.631a1 1 0 0 1 .631-.929l34-13.508a1 1 0 0 1 1.369.93v39.628a1 1 0 0 1 -.631.929l-12.734 5.062a1 1 0 0 1 -.739-1.859l12.104-4.808v-37.479l-32 12.713v37.5l11.854-4.487a1 1 0 1 1 .708 1.87l-13.208 5a.99.99 0 0 1 -.354.069z"/><path d="m54.31 65.134a1 1 0 0 1 -.37-1.93l.31-.123a1 1 0 1 1 .738 1.858l-.309.123a.981.981 0 0 1 -.369.072z"/><path d="m37 72.01a.984.984 0 0 1 -.369-.071l-34-13.507a1 1 0 0 1 -.631-.932v-39.628a1 1 0 0 1 1.369-.93l34 13.508a1 1 0 0 1 .631.929v39.631a1 1 0 0 1 -1 1zm-33-15.186 32 12.713v-37.479l-32-12.713z"/><path d="m71 18.872a.99.99 0 0 1 -.4-.084l-33.6-14.688-33.6 14.688a1 1 0 0 1 -.8-1.833l34-14.861a.994.994 0 0 1 .8 0l34 14.861a1 1 0 0 1 -.4 1.917z"/><path d="m60.58 62.64a1 1 0 0 1 -1-1v-39.007l-31.02-15.226a1 1 0 0 1 .88-1.795l31.581 15.5a1 1 0 0 1 .559.9v39.628a1 1 0 0 1 -1 1z"/><path d="m47.95 67.66a1 1 0 0 1 -1-1v-38.641l-30.89-15.151a1 1 0 0 1 .88-1.8l30.96 15.189a.949.949 0 0 1 .1.043l.41.21a1 1 0 0 1 .544.89v39.26a1 1 0 0 1 -1.004 1z"/><path d="m13.42 62.64a1 1 0 0 1 -1-1v-39.63a1 1 0 0 1 .559-.9l31.581-15.498a1 1 0 0 1 .88 1.8l-31.02 15.221v39.007a1 1 0 0 1 -1 1z"/><path d="m26.05 67.66a1 1 0 0 1 -1-1v-39.23a1.046 1.046 0 0 1 .544-.92l.406-.21a.988.988 0 0 1 .1-.045l30.96-15.183a1 1 0 0 1 .88 1.8l-30.89 15.147v38.641a1 1 0 0 1 -1 1z"/><path d="m37 45.056a.983.983 0 0 1 -.37-.072l-34-13.565a1 1 0 1 1 .74-1.857l33.63 13.417 33.63-13.408a1 1 0 0 1 .74 1.858l-34 13.555a.987.987 0 0 1 -.37.072z"/><path d="m37 58.793a.982.982 0 0 1 -.37-.071l-34-13.566a1 1 0 1 1 .74-1.856l33.63 13.417 33.63-13.408a1 1 0 1 1 .74 1.857l-34 13.556a.985.985 0 0 1 -.37.071z"/></svg>