<svg id="Icons" height="512" viewBox="0 0 74 74" width="512" xmlns="http://www.w3.org/2000/svg"><path d="m3 20a1 1 0 0 1 -1-1v-16a1 1 0 0 1 1-1h16a1 1 0 0 1 0 2h-15v15a1 1 0 0 1 -1 1z"/><path d="m71 20a1 1 0 0 1 -1-1v-7a1 1 0 0 1 2 0v7a1 1 0 0 1 -1 1z"/><path d="m71 8a1 1 0 0 1 -1-1v-3h-3a1 1 0 0 1 0-2h4a1 1 0 0 1 1 1v4a1 1 0 0 1 -1 1z"/><path d="m62 4h-7a1 1 0 0 1 0-2h7a1 1 0 0 1 0 2z"/><path d="m71 72h-16a1 1 0 0 1 0-2h15v-15a1 1 0 0 1 2 0v16a1 1 0 0 1 -1 1z"/><path d="m19 72h-16a1 1 0 0 1 -1-1v-16a1 1 0 0 1 2 0v15h15a1 1 0 0 1 0 2z"/><path d="m56.463 45.2a1 1 0 0 1 -1-1v-14.432a1 1 0 1 1 2 0v14.432a1 1 0 0 1 -1 1z"/><path d="m40.305 33.548a1 1 0 0 1 -.356-1.935l12.51-4.764a1 1 0 1 1 .712 1.869l-12.51 4.764a1.018 1.018 0 0 1 -.356.066z"/><path d="m37 52.71a1 1 0 0 1 -1-1v-14.4a1 1 0 0 1 2 0v14.4a1 1 0 0 1 -1 1z"/><path d="m40.294 54.985a1 1 0 0 1 -.356-1.935l12.908-4.914a1 1 0 0 1 .712 1.869l-12.908 4.914a.988.988 0 0 1 -.356.066z"/><path d="m37 52.71a1 1 0 0 1 -1-1v-14.4a1 1 0 0 1 2 0v14.4a1 1 0 0 1 -1 1z"/><path d="m33.7 33.548a1.018 1.018 0 0 1 -.356-.066l-12.51-4.764a1 1 0 1 1 .712-1.869l12.51 4.764a1 1 0 0 1 -.356 1.935z"/><path d="m17.537 45.2a1 1 0 0 1 -1-1v-14.432a1 1 0 0 1 2 0v14.432a1 1 0 0 1 -1 1z"/><path d="m33.706 54.985a.988.988 0 0 1 -.356-.066l-12.908-4.914a1 1 0 0 1 .712-1.869l12.908 4.914a1 1 0 0 1 -.356 1.935z"/><path d="m52.74 25.93a1 1 0 0 1 -.365-.07l-12.457-4.881a1 1 0 0 1 .73-1.863l12.457 4.884a1 1 0 0 1 -.365 1.932z"/><path d="m21.26 25.93a1 1 0 0 1 -.36-1.93l12.457-4.882a1 1 0 0 1 .73 1.863l-12.462 4.879a1 1 0 0 1 -.365.07z"/><path d="m37 23.292a4.532 4.532 0 1 1 4.532-4.532 4.537 4.537 0 0 1 -4.532 4.532zm0-7.064a2.532 2.532 0 1 0 2.532 2.532 2.535 2.535 0 0 0 -2.532-2.532z"/><path d="m37 38.313a4.532 4.532 0 1 1 4.532-4.532 4.537 4.537 0 0 1 -4.532 4.532zm0-7.063a2.532 2.532 0 1 0 2.532 2.531 2.534 2.534 0 0 0 -2.532-2.531z"/><path d="m37 59.772a4.532 4.532 0 1 1 4.532-4.532 4.537 4.537 0 0 1 -4.532 4.532zm0-7.064a2.532 2.532 0 1 0 2.532 2.532 2.535 2.535 0 0 0 -2.532-2.532z"/><path d="m56 30.8a4.532 4.532 0 1 1 4.532-4.531 4.536 4.536 0 0 1 -4.532 4.531zm0-7.063a2.532 2.532 0 1 0 2.532 2.532 2.535 2.535 0 0 0 -2.532-2.53z"/><path d="m56.468 52.261a4.532 4.532 0 1 1 4.532-4.532 4.536 4.536 0 0 1 -4.532 4.532zm0-7.063a2.532 2.532 0 1 0 2.532 2.531 2.533 2.533 0 0 0 -2.532-2.529z"/><path d="m17.532 52.261a4.532 4.532 0 1 1 4.531-4.532 4.536 4.536 0 0 1 -4.531 4.532zm0-7.063a2.532 2.532 0 1 0 2.531 2.531 2.534 2.534 0 0 0 -2.531-2.529z"/><path d="m18 30.8a4.532 4.532 0 1 1 4.532-4.531 4.536 4.536 0 0 1 -4.532 4.531zm0-7.063a2.532 2.532 0 1 0 2.532 2.532 2.535 2.535 0 0 0 -2.532-2.53z"/></svg>