<svg id="Icons" height="512" viewBox="0 0 74 74" width="512" xmlns="http://www.w3.org/2000/svg"><path d="m61 60.5h-48a11.013 11.013 0 0 1 -11-11 1 1 0 0 1 1-1h26a1 1 0 0 1 .894.551l1.522 3.029h11.168l1.522-3.029a1 1 0 0 1 .894-.551h26a1 1 0 0 1 1 1 11.013 11.013 0 0 1 -11 11zm-56.944-10a9.012 9.012 0 0 0 8.944 8h48a9.012 9.012 0 0 0 8.944-8h-24.328l-1.522 3.029a1 1 0 0 1 -.894.551h-12.4a1 1 0 0 1 -.894-.551l-1.522-3.029z"/><path d="m45.68 15.5h-2.97a1 1 0 0 1 0-2h2.97a1 1 0 0 1 0 2z"/><path d="m9 50.5a1 1 0 0 1 -1-1v-31a5.006 5.006 0 0 1 5-5h12.81a1 1 0 1 1 0 2h-12.81a3 3 0 0 0 -3 3v31a1 1 0 0 1 -1 1z"/><path d="m35.71 15.5h-2.9a1 1 0 0 1 0-2h2.9a1 1 0 0 1 0 2z"/><path d="m65 50.5a1 1 0 0 1 -1-1v-31a3 3 0 0 0 -3-3h-8.32a1 1 0 0 1 0-2h8.32a5.006 5.006 0 0 1 5 5v31a1 1 0 0 1 -1 1z"/><path d="m37 42.29a1 1 0 0 1 -1-1v-10.161a1 1 0 0 1 .6-.919l8.165-3.51a1 1 0 0 1 1.395.919v10.156a1 1 0 0 1 -.6.918l-8.16 3.515a1 1 0 0 1 -.4.082zm1-10.5v7.984l6.16-2.654v-7.987z"/><path d="m37 42.29a1 1 0 0 1 -.4-.082l-8.16-3.515a1 1 0 0 1 -.6-.918v-10.161a1 1 0 0 1 1.395-.919l8.165 3.515a1 1 0 0 1 .6.919v10.161a1 1 0 0 1 -1 1zm-7.16-5.173 6.16 2.654v-7.984l-6.16-2.654z"/><path d="m45.159 28.614a1 1 0 0 1 -.4-.086l-7.759-3.434-7.755 3.434a1 1 0 0 1 -.81-1.829l8.16-3.614a1 1 0 0 1 .81 0l8.16 3.614a1 1 0 0 1 -.406 1.915z"/></svg>