<svg id="Capa_1" enable-background="new 0 0 512 512" height="512" viewBox="0 0 512 512" width="512" xmlns="http://www.w3.org/2000/svg"><g><g><path d="m130.374 63.592c-1.518 2.371-2.374 5.162-2.374 8.086v153.119l128 64.203 40-225.408z" fill="#ffc178"/><path d="m256 289 128-64.202v-153.12c0-2.924-.855-5.715-2.374-8.086h-125.626z" fill="#ff8659"/><path d="m256 125.614 125.626-62.022c-1.428-2.23-3.442-4.089-5.901-5.322l-113-56.678c-4.232-2.123-9.218-2.123-13.45 0l-113 56.678c-2.459 1.233-4.473 3.092-5.901 5.322z" fill="#ffe278"/><path d="m381.626 63.592c-1.428-2.23-3.442-4.089-5.901-5.322l-113-56.678c-2.116-1.061-4.42-1.592-6.725-1.592v125.614z" fill="#ffc178"/></g><g><path d="m2.374 289.592c-1.519 2.371-2.374 5.162-2.374 8.086v142.643c0 5.675 3.202 10.864 8.275 13.408l113 56.678c2.116 1.061 4.42 1.592 6.725 1.592l30-222.408h-155.626z" fill="#7ed8f7"/><path d="m128 512c2.305 0 4.609-.531 6.725-1.592l121.275-60.829v-161.159h-128z" fill="#4895ff"/><path d="m128 351.614 128-63.193-128-64.202-119.725 60.051c-2.459 1.233-4.473 3.092-5.901 5.322z" fill="#bdfdff"/><path d="m256 288.42-128-64.201v127.395z" fill="#7ed8f7"/></g><g><path d="m384 512c-2.305 0-4.609-.531-6.725-1.592l-121.275-60.829v-161.159h178z" fill="#eb1d83"/><path d="m509.626 289.592c1.518 2.371 2.374 5.162 2.374 8.086v142.643c0 5.675-3.202 10.864-8.275 13.408l-113 56.678c-2.116 1.061-4.42 1.592-6.725 1.592v-222.407z" fill="#9d3b6e"/><path d="m384 351.614-128-63.194 128-64.202 119.725 60.052c2.459 1.233 4.473 3.092 5.901 5.322z" fill="#f37bb6"/><path d="m509.626 289.592c-1.428-2.23-3.442-4.089-5.901-5.322l-119.725-60.051v127.395z" fill="#eb1d83"/></g></g></svg>