<?xml version="1.0" encoding="UTF-8"?>
<svg xmlns="http://www.w3.org/2000/svg" id="Icons" viewBox="0 0 74 74" width="512" height="512"><path d="M48.879,10.96a.992.992,0,0,1-.506-.138l-2.5-1.469a1,1,0,0,1,1.014-1.725l2.5,1.47a1,1,0,0,1-.508,1.862Z"/><path d="M37,72a1,1,0,0,1-.5-.135L7.078,54.775a1,1,0,0,1-.5-.865V20.23a1,1,0,0,1,.5-.863l29.42-17.23a1,1,0,0,1,1.01,0l3.33,1.95a1,1,0,1,1-1.01,1.726L37,4.159,8.58,20.8V53.334L37,69.844l28.42-16.51V20.8l-11-6.44a1,1,0,1,1,1.011-1.726l11.489,6.73a1,1,0,0,1,.5.863V53.91a1,1,0,0,1-.5.865L37.5,71.865A1,1,0,0,1,37,72Z"/><path d="M53.989,28.343a1,1,0,0,1-.5-1.868l12.429-7.11a1,1,0,1,1,.993,1.737L54.485,28.211A1,1,0,0,1,53.989,28.343Z"/><path d="M20.011,28.343a1,1,0,0,1-.5-.132L7.086,21.1a1,1,0,0,1,.993-1.737l12.429,7.11a1,1,0,0,1-.5,1.868Z"/><path d="M37,72a1,1,0,0,1-1-1V56.609a1,1,0,0,1,2,0V71A1,1,0,0,1,37,72Z"/><path d="M66.417,54.913a.992.992,0,0,1-.5-.134L53.489,47.608a1,1,0,1,1,1-1.732l12.429,7.171a1,1,0,0,1-.5,1.866Z"/><path d="M7.583,54.913a1,1,0,0,1-.5-1.866l12.429-7.171a1,1,0,1,1,1,1.732L8.082,54.779A.992.992,0,0,1,7.583,54.913Z"/><path d="M37,57.609a1,1,0,0,1-.5-.135L19.509,47.607a1,1,0,0,1-.5-.865v-19.4a1,1,0,0,1,.494-.863l16.989-9.952a1,1,0,0,1,1.01,0L54.494,26.48a1,1,0,0,1,.494.863v19.4a1,1,0,0,1-.5.865L37.5,57.474A1,1,0,0,1,37,57.609ZM21.012,46.167,37,55.453l15.988-9.286V27.916L37,18.55,21.012,27.916Z"/><path d="M37,18.391a1,1,0,0,1-1-1V3a1,1,0,0,1,2,0V17.391A1,1,0,0,1,37,18.391Z"/><path d="M37,50.434a1,1,0,0,1-.5-.135L25.71,44.034a1,1,0,0,1-.5-.865V30.9a1,1,0,0,1,.495-.862l10.787-6.319a1,1,0,0,1,1.01,0L48.292,30.04a1,1,0,0,1,.495.862V43.169a1,1,0,0,1-.5.865L37.5,50.3A1,1,0,0,1,37,50.434Zm-9.787-7.841L37,48.278l9.787-5.685V31.476L37,25.743l-9.787,5.733Z"/><path d="M37,38a.992.992,0,0,1-.492-.13l-10.787-6.1a1,1,0,1,1,.984-1.741L37,35.851l10.3-5.819a1,1,0,1,1,.984,1.741l-10.787,6.1A.992.992,0,0,1,37,38Z"/><path d="M37,50.434a1,1,0,0,1-1-1V37a1,1,0,0,1,2,0V49.434A1,1,0,0,1,37,50.434Z"/></svg>
