<svg id="Capa_1" enable-background="new 0 0 509.667 509.667" height="512" viewBox="0 0 509.667 509.667" width="512" xmlns="http://www.w3.org/2000/svg"><g id="XMLID_845_"><path id="XMLID_889_" d="m0 0v509.667h509.667v-509.667zm30 30h209.833v209.833h-209.833zm209.833 449.667h-209.833v-209.834h209.833zm239.834 0h-209.834v-209.834h209.833v209.834zm-209.834-239.834v-209.833h209.833v209.833z"/><path id="XMLID_895_" d="m134.917 64.886c-38.615 0-70.03 31.416-70.03 70.03s31.416 70.03 70.03 70.03 70.03-31.416 70.03-70.03-31.416-70.03-70.03-70.03zm0 110.061c-22.073 0-40.03-17.958-40.03-40.03s17.958-40.03 40.03-40.03 40.03 17.958 40.03 40.03-17.958 40.03-40.03 40.03z"/><path id="XMLID_900_" d="m88.901 451.684h92v-31.235h31.235v-92h-31.235v-31.235h-92v31.235h-31.234v92h31.235v31.235zm-1.234-61.235v-32h31.235v-31.235h32v31.235h31.235v32h-31.235v31.235h-32v-31.235z"/><path id="XMLID_914_" d="m306.5 203.167h136.5v-136.5h-136.5zm30-106.5h76.5v76.5h-76.5z"/><path id="XMLID_927_" d="m374.75 290.282-86.341 153.361h172.683zm0 61.151 35.024 62.21h-70.048z"/></g></svg>