<svg id="Layer_1" enable-background="new 0 0 509.928 509.928" height="512" viewBox="0 0 509.928 509.928" width="512" xmlns="http://www.w3.org/2000/svg"><g><path id="XMLID_2556_" d="m44.964 93.763v319.242l.049.022.049.022c14.165-5.577 195.735-77.065 209.902-82.643l15-75-15-75c-25.404-10.48-184.538-76.137-210-86.643z" fill="#ffe278"/><path id="XMLID_2378_" d="m464.872 93.634-209.81 86.819-.098-.046v150l210 82.49v-319.223z" fill="#ffb454"/><path id="XMLID_2592_" d="m44.966 93.673-.002.001v.045.044c5.959 2.827 204.748 97.107 210 99.598l15-96.681-15-96.68c-16.137 7.198-181.072 80.767-209.998 93.673z" fill="#fff3c9"/><path id="XMLID_2563_" d="m464.872 93.634-209.908-93.634v193.361c.031.015.068.032.098.046z" fill="#ffe278"/><path id="XMLID_2382_" d="m45.062 413.05c11.655 5.379 198.247 91.498 209.902 96.878l15-98.26-15-98.26c-11.668 5.538-198.235 94.103-209.902 99.642z" fill="#ff884d"/><path id="XMLID_2357_" d="m254.964 313.407v196.521l210-96.923v-.108z" fill="#ff4d4d"/></g></svg>