<?xml version="1.0" encoding="iso-8859-1"?>
<!-- Generator: Adobe Illustrator 19.0.0, SVG Export Plug-In . SVG Version: 6.00 Build 0)  -->
<svg version="1.1" id="Capa_1" xmlns="http://www.w3.org/2000/svg" xmlns:xlink="http://www.w3.org/1999/xlink" x="0px" y="0px"
	 viewBox="0 0 511.998 511.998" style="enable-background:new 0 0 511.998 511.998;" xml:space="preserve">
<g>
	<g transform="translate(5 6)">
		<path d="M250.999,261.519c-2.263,0.001-4.434-0.898-6.035-2.499c-1.6-1.6-2.499-3.771-2.499-6.035v-2.988
			c0-4.713,3.821-8.533,8.533-8.533s8.533,3.821,8.533,8.533v2.988c0.001,2.263-0.898,4.434-2.499,6.035
			C255.433,260.62,253.262,261.519,250.999,261.519z"/>
		<polygon style="fill:#6D98F7;" points="447.266,149.049 447.266,350.947 422.22,364.515 256.435,454.115 255.266,454.798 
			63.266,350.947 63.266,149.049 255.266,45.198 		"/>
		<polygon style="fill:#93B2F4;" points="421.666,166.115 421.666,364.515 281.89,440.206 258.252,453.006 256.119,454.115 
			255.01,454.798 253.388,453.859 63.266,350.947 63.266,152.547 80.332,143.331 229.922,62.265 		"/>
		<polygon style="fill:#DBE0EE;" points="250.999,252.985 250.999,424.163 80.332,333.881 80.332,162.617 		"/>
		<polygon style="fill:#93B2F4;" points="447.266,149.049 421.154,162.873 250.999,252.985 55.244,149.305 54.732,149.049 
			250.999,45.198 		"/>
		<polygon style="fill:#DBE0EE;" points="421.154,162.873 250.76,252.985 54.732,149.305 225.126,59.278 		"/>
		<polygon style="fill:#FFFFFF;" points="281.89,440.206 258.252,453.006 253.388,453.859 252.194,454.115 250.999,454.798 
			54.732,350.947 54.732,149.049 80.332,130.531 80.332,333.881 250.999,424.163 		"/>
	</g>
	<g>
		<g>
			<path style="fill:#3575FF;" d="M255.999,466.381c-2.263,0.001-4.434-0.898-6.035-2.499c-1.6-1.6-2.499-3.771-2.499-6.035v-201.85
				c0-4.713,3.821-8.533,8.533-8.533s8.533,3.821,8.533,8.533v201.85c0.001,2.263-0.898,4.434-2.499,6.035
				C260.433,465.483,258.262,466.382,255.999,466.381L255.999,466.381z"/>
			<path style="fill:#3575FF;" d="M255.999,511.998c-1.395,0-2.768-0.342-4-0.996l-230.4-122.167
				c-2.79-1.479-4.535-4.379-4.533-7.538v-250.6c-0.001-3.158,1.743-6.058,4.533-7.537l230.4-122.167c2.502-1.325,5.498-1.325,8,0
				l230.4,122.167c2.79,1.479,4.535,4.379,4.533,7.537v250.6c0.001,3.158-1.743,6.058-4.533,7.538l-230.4,122.167
				C258.767,511.656,257.394,511.998,255.999,511.998z M34.132,376.164l221.867,117.642l221.867-117.642V135.831L255.999,18.19
				L34.132,135.831V376.164z"/>
			<path style="fill:#3575FF;" d="M255.999,469.331c-1.392,0.001-2.762-0.339-3.992-0.992L55.741,364.49
				c-2.793-1.479-4.541-4.381-4.542-7.542v-83.883c0-4.713,3.821-8.533,8.533-8.533s8.533,3.82,8.533,8.533v78.746l187.733,99.334
				l187.733-99.334V160.186L255.999,60.852L68.266,160.186v44.612c0,4.713-3.821,8.533-8.533,8.533s-8.533-3.821-8.533-8.533v-49.75
				c0.001-3.161,1.748-6.063,4.542-7.542l196.267-103.85c2.496-1.325,5.487-1.325,7.983,0l196.267,103.85
				c2.793,1.479,4.541,4.381,4.542,7.542v201.9c-0.001,3.161-1.748,6.063-4.542,7.542L259.991,468.34
				C258.761,468.992,257.391,469.332,255.999,469.331z"/>
			<path style="fill:#3575FF;" d="M255.999,267.481c-1.392,0.001-2.762-0.339-3.992-0.992L55.741,162.615
				c-4.152-2.211-5.731-7.365-3.531-11.523c2.201-4.158,7.351-5.75,11.514-3.56l192.275,101.763l192.275-101.763
				c4.163-2.19,9.314-0.598,11.514,3.56c2.201,4.158,0.621,9.312-3.531,11.523L259.991,266.49
				C258.761,267.142,257.391,267.482,255.999,267.481L255.999,267.481z"/>
		</g>
		<circle style="fill:#428DFF;" cx="59.732" cy="238.931" r="8.533"/>
	</g>
</g>
<g>
</g>
<g>
</g>
<g>
</g>
<g>
</g>
<g>
</g>
<g>
</g>
<g>
</g>
<g>
</g>
<g>
</g>
<g>
</g>
<g>
</g>
<g>
</g>
<g>
</g>
<g>
</g>
<g>
</g>
</svg>
