<?xml version="1.0" encoding="iso-8859-1"?>
<!-- Generator: Adobe Illustrator 19.0.0, SVG Export Plug-In . SVG Version: 6.00 Build 0)  -->
<svg version="1.1" id="Capa_1" xmlns="http://www.w3.org/2000/svg" xmlns:xlink="http://www.w3.org/1999/xlink" x="0px" y="0px"
	 viewBox="0 0 512.001 512.001" style="enable-background:new 0 0 512.001 512.001;" xml:space="preserve">
<g>
	<g>
		<path d="M480.971,376.024c-0.001-8.485-6.301-15.004-14.784-15.004h-45.155c-8.483,0-15.355,6.871-15.355,15.355
			c0,8.484,6.871,15.355,15.355,15.355h14.141c-42.18,55.621-108.525,89.561-179.172,89.561
			c-123.89,0-225.291-101.4-225.291-225.291c0-19.047,2.989-37.946,7.676-56.188c2.109-8.205-2.828-16.585-11.047-18.695
			c-8.161-2.139-16.585,2.828-18.695,11.047C3.311,212.896,0,234.374,0,256c0,140.828,115.173,256,256,256
			c75.596,0,146.099-34.793,194.187-91.494v0.76c0,8.483,6.871,15.355,15.355,15.355c8.484,0,15.355-6.871,15.355-15.355
			l0.073-43.118C481.074,377.445,480.971,376.742,480.971,376.024z"/>
	</g>
</g>
<g>
	<g>
		<path d="M256.001,0C180.404,0,109.754,34.793,61.667,91.494v-0.526c0-8.483-6.871-15.355-15.355-15.355
			c-8.484,0-15.355,6.871-15.355,15.355v45.155v0.044c0.032,9.336,7.973,16.031,17.127,14.696h43.03
			c8.366,1.187,15.355-6.871,15.355-15.355c0-8.484-6.871-15.355-15.355-15.355H76.829c42.179-55.622,108.524-89.446,179.172-89.446
			c123.891,0,225.291,101.4,225.291,225.291c0,19.047-2.989,37.946-7.676,56.188c-2.109,8.205,2.828,16.585,11.047,18.695
			c8.028,2.122,16.548-2.725,18.695-11.047c5.333-20.732,8.644-42.21,8.644-63.835C512,115.173,396.828,0,256.001,0z"/>
	</g>
</g>
<g>
	<g>
		<path d="M262.975,107.685c-4.367-2.285-9.583-2.285-13.949,0l-112.561,59.097l119.536,71.724l119.536-71.724L262.975,107.685z"/>
	</g>
</g>
<g>
	<g>
		<path d="M271.004,264.494v134.845l112.975-70.61c4.381-2.74,7.047-7.545,7.047-12.717V192.482L271.004,264.494z"/>
	</g>
</g>
<g>
	<g>
		<path d="M120.975,192.482v123.53c0,5.172,2.667,9.978,7.047,12.717l112.975,70.609V264.494L120.975,192.482z"/>
	</g>
</g>
<g>
</g>
<g>
</g>
<g>
</g>
<g>
</g>
<g>
</g>
<g>
</g>
<g>
</g>
<g>
</g>
<g>
</g>
<g>
</g>
<g>
</g>
<g>
</g>
<g>
</g>
<g>
</g>
<g>
</g>
</svg>
