<?xml version="1.0" encoding="iso-8859-1"?>
<!-- Generator: Adobe Illustrator 19.0.0, SVG Export Plug-In . SVG Version: 6.00 Build 0)  -->
<svg version="1.1" id="Layer_1" xmlns="http://www.w3.org/2000/svg" xmlns:xlink="http://www.w3.org/1999/xlink" x="0px" y="0px"
	 viewBox="0 0 512 512" style="enable-background:new 0 0 512 512;" xml:space="preserve">
<g>
	<g>
		<path d="M495.982,10.484c-0.011-0.629-0.067-1.257-0.189-1.878c-0.025-0.124-0.066-0.24-0.094-0.362
			c-0.113-0.484-0.261-0.961-0.444-1.431c-0.071-0.183-0.143-0.363-0.225-0.542c-0.056-0.124-0.094-0.253-0.155-0.375
			c-0.174-0.349-0.381-0.674-0.589-0.997c-0.05-0.078-0.088-0.161-0.139-0.236c-0.346-0.508-0.74-0.973-1.162-1.407
			c-0.108-0.113-0.225-0.214-0.338-0.321c-0.35-0.33-0.718-0.635-1.107-0.914c-0.131-0.094-0.256-0.192-0.391-0.28
			c-0.504-0.328-1.03-0.62-1.583-0.859c-0.114-0.05-0.234-0.082-0.35-0.128c-0.47-0.183-0.953-0.333-1.448-0.449
			c-0.177-0.041-0.351-0.08-0.53-0.113C486.613,0.079,485.981,0,485.333,0H122.667c-0.803,0-1.578,0.105-2.331,0.273
			c-0.216,0.049-0.418,0.134-0.63,0.196c-0.531,0.154-1.049,0.329-1.542,0.561c-0.242,0.112-0.467,0.249-0.701,0.379
			c-0.437,0.246-0.853,0.513-1.249,0.817c-0.224,0.171-0.439,0.347-0.651,0.537c-0.383,0.345-0.731,0.719-1.061,1.116
			c-0.115,0.139-0.26,0.243-0.369,0.389l-96,128c-0.065,0.087-0.113,0.183-0.175,0.271c-0.104,0.147-0.195,0.299-0.292,0.452
			c-0.251,0.397-0.472,0.805-0.666,1.226c-0.07,0.152-0.147,0.299-0.211,0.455c-0.229,0.566-0.411,1.145-0.539,1.736
			c-0.028,0.128-0.039,0.261-0.062,0.391c-0.093,0.525-0.146,1.053-0.16,1.586C16.026,138.481,16,138.57,16,138.667v362.667
			c0,0.062,0.017,0.12,0.018,0.183c0.011,0.628,0.067,1.256,0.189,1.878c0.025,0.124,0.066,0.24,0.094,0.362
			c0.113,0.485,0.262,0.962,0.445,1.433c0.071,0.182,0.143,0.361,0.223,0.538c0.056,0.124,0.095,0.254,0.156,0.377
			c0.174,0.349,0.381,0.674,0.59,0.997c0.05,0.077,0.087,0.16,0.139,0.236c0.346,0.508,0.74,0.973,1.162,1.407
			c0.108,0.113,0.225,0.214,0.338,0.321c0.35,0.33,0.718,0.635,1.108,0.914c0.131,0.094,0.255,0.191,0.39,0.279
			c0.504,0.329,1.031,0.621,1.584,0.86c0.112,0.049,0.231,0.081,0.345,0.126c0.471,0.184,0.955,0.333,1.452,0.45
			c0.176,0.041,0.35,0.08,0.529,0.113c0.624,0.114,1.256,0.192,1.904,0.192h362.667c0.803,0,1.578-0.105,2.331-0.273
			c0.217-0.049,0.418-0.134,0.631-0.196c0.531-0.154,1.049-0.329,1.542-0.56c0.242-0.113,0.467-0.25,0.701-0.381
			c0.437-0.246,0.853-0.512,1.249-0.816c0.224-0.171,0.439-0.347,0.651-0.537c0.383-0.345,0.731-0.719,1.061-1.116
			c0.115-0.139,0.261-0.243,0.369-0.389l96-128c0.065-0.087,0.113-0.183,0.175-0.271c0.104-0.147,0.196-0.3,0.292-0.453
			c0.25-0.396,0.471-0.804,0.664-1.224c0.071-0.154,0.149-0.301,0.212-0.458c0.228-0.565,0.41-1.144,0.538-1.735
			c0.027-0.128,0.039-0.26,0.062-0.391c0.094-0.525,0.146-1.053,0.16-1.586c0.002-0.097,0.029-0.186,0.029-0.283V10.667
			C496,10.604,495.983,10.546,495.982,10.484z M112,42.667V128H48L112,42.667z M37.333,149.333H112v220.444l-74.667,99.555V149.333z
			 M378.667,490.667H48L128,384h250.667V490.667z M378.667,362.667H133.333V149.333h245.333V362.667z M384,128H133.333V21.333H464
			L384,128z M400,469.333V384h64L400,469.333z M474.667,362.667H400V142.223l74.667-99.555V362.667z"/>
	</g>
</g>
<g>
</g>
<g>
</g>
<g>
</g>
<g>
</g>
<g>
</g>
<g>
</g>
<g>
</g>
<g>
</g>
<g>
</g>
<g>
</g>
<g>
</g>
<g>
</g>
<g>
</g>
<g>
</g>
<g>
</g>
</svg>
