<svg id="Capa_1" enable-background="new 0 0 512 512" height="512" viewBox="0 0 512 512" width="512" xmlns="http://www.w3.org/2000/svg"><g><path d="m256 130c8.284 0 15-6.716 15-15v-40c0-8.284-6.716-15-15-15s-15 6.716-15 15v40c0 8.284 6.716 15 15 15z"/><path d="m391.17 341.965-36.414-16.553c-7.539-3.427-16.435-.094-19.862 7.448-3.429 7.541-.094 16.435 7.448 19.862l36.414 16.553c2.013.915 4.122 1.349 6.198 1.349 5.701 0 11.151-3.269 13.664-8.797 3.429-7.541.094-16.434-7.448-19.862z"/><path d="m157.244 325.412-36.414 16.553c-7.542 3.428-10.877 12.321-7.448 19.862 2.513 5.528 7.963 8.797 13.664 8.797 2.076 0 4.186-.434 6.198-1.349l36.414-16.553c7.542-3.428 10.877-12.321 7.448-19.862-3.427-7.542-12.323-10.875-19.862-7.448z"/><path d="m482.207 101.345-220-100c-3.944-1.793-8.47-1.793-12.414 0l-220 100c-5.355 2.433-8.793 7.773-8.793 13.655v282c0 5.882 3.438 11.222 8.793 13.655l219.989 99.995c.004.002.008.003.011.005 1.963.893 4.082 1.345 6.208 1.345 2.109 0 4.227-.444 6.206-1.345l220-100c5.355-2.433 8.793-7.773 8.793-13.655v-282c0-5.882-3.438-11.222-8.793-13.655zm-226.207-69.868 183.752 83.523-168.752 76.705v-16.705c0-8.284-6.716-15-15-15s-15 6.716-15 15v16.705l-168.751-76.705zm-183.75 365.523 6.372-2.896c7.542-3.428 10.877-12.32 7.448-19.862-3.428-7.541-12.323-10.876-19.862-7.448l-15.208 6.912v-235.411l190 86.363v62.684l-29.134 13.242c-7.542 3.428-10.877 12.32-7.448 19.862 2.513 5.528 7.963 8.797 13.664 8.797 2.076 0 4.186-.434 6.198-1.349l16.72-7.6v153.41zm198.75-76.705 16.72 7.6c2.013.915 4.122 1.349 6.198 1.349 5.701 0 11.151-3.269 13.664-8.797 3.429-7.542.094-16.435-7.448-19.862l-29.134-13.243v-62.683l190-86.364v235.411l-15.208-6.913c-7.539-3.428-16.435-.093-19.862 7.448-3.429 7.542-.094 16.435 7.448 19.862l6.373 2.897-168.751 76.705z"/></g></svg>