<svg id="Filled" height="512" viewBox="0 0 512 512" width="512" xmlns="http://www.w3.org/2000/svg"><path d="m256 232-240-96 240-96 240 96z" fill="#b1bd70"/><path d="m256 104-80 32-80-32 80-32z" fill="#3397e8"/><path d="m336 72-80 32-80-32 80-32z" fill="#eb423f"/><path d="m416 104-80 32-80-32 80-32z" fill="#ffb632"/><path d="m256 168-80 32-80-32 80-32z" fill="#ffb632"/><path d="m336 200-80 32-80-32 80-32z" fill="#3397e8"/><path d="m416 168-80 32-80-32 80-32z" fill="#eb423f"/><path d="m256 472-240-96v-240l240 96z" fill="#ffb632"/><path d="m176 200v80l-80-32v-80z" fill="#3397e8"/><path d="m256 232v80l-80-32v-80z" fill="#e9eef2"/><path d="m256 312v80l-80-32v-80z" fill="#eb423f"/><path d="m96 248v80l-80-32v-80z" fill="#3397e8"/><path d="m96 328v80l-80-32v-80z" fill="#eb423f"/><path d="m176 360v80l-80-32v-80z" fill="#b1bd70"/><path d="m496 376-240 96v-240l240-96z" fill="#eb423f"/><path d="m416 168v80l-80 32v-80z" fill="#ffb632"/><path d="m496 136v80l-80 32v-80z" fill="#eb423f"/><path d="m496 216v80l-80 32v-80z" fill="#ffb632"/><path d="m336 280v80l-80 32v-80z" fill="#3397e8"/><path d="m336 360v80l-80 32v-80z" fill="#e9eef2"/><path d="m416 328v80l-80 32v-80z" fill="#3397e8"/><path d="m176 360v80l80 32v-80z" fill="#3397e8"/><path d="m176 136 80-32 80 32-80 32z" fill="#e9eef2"/><path d="m336 280 80-32v80l-80 32z" fill="#b1bd70"/><path d="m500.485 129.375a7.955 7.955 0 0 0 -1.518-.793v-.01l-240-96a8 8 0 0 0 -5.942 0l-240 96v.01a7.92 7.92 0 0 0 -5.025 7.418v240a8 8 0 0 0 5.029 7.428l240 96 .022-.015a7.849 7.849 0 0 0 5.92.015l240-96a8 8 0 0 0 5.029-7.428v-240a8 8 0 0 0 -3.515-6.625zm-12.485 161.209-64 25.6v-62.768l64-25.6zm-144 57.6v-62.768l64-25.6v62.768zm64-8.368v62.768l-64 25.6v-62.768zm80-129.232-64 25.6v-62.768l64-25.6zm-152-19.2-58.46-23.384 58.46-23.384 58.46 23.384zm-21.54 8.616-58.46 23.384-58.46-23.384 58.46-23.384zm-138.46-8.616-58.46-23.384 58.46-23.384 58.46 23.384zm-8 14.032v62.768l-64-25.6v-62.768zm16 6.4 64 25.6v62.768l-64-25.6zm64 105.6v62.768l-64-25.6v-62.768zm16-80 64-25.6v62.768l-64 25.6zm80-32 64-25.6v62.768l-64 25.6zm72-46.032-58.46-23.384 58.46-23.384 58.46 23.384zm-80-32-58.46-23.384 58.46-23.384 58.46 23.384zm-21.54 8.616-58.46 23.384-58.46-23.384 58.46-23.384zm-138.46-8.616-58.46-23.384 58.46-23.384 58.46 23.384zm-21.54 8.616-58.46 23.384-58.46-23.384 58.46-23.384zm-66.46 37.416v62.768l-64-25.6v-62.768zm-64 54.4 64 25.6v62.768l-64-25.6zm80 32 64 25.6v62.768l-64-25.6zm64 105.6v62.768l-64-25.6v-62.768zm16 6.4 64 25.6v62.768l-64-25.6zm80-54.4 64-25.6v62.768l-64 25.6zm-8-268.8 58.46 23.384-58.46 23.384-58.46-23.384zm-232 259.2 64 25.6v62.768l-64-25.6zm240 89.6 64-25.6v62.768l-64 25.6zm160-1.232v-62.768l64-25.6v62.768z"/></svg>