<svg id="Capa_1" enable-background="new 0 0 512.2 512.2" height="512" viewBox="0 0 512.2 512.2" width="512" xmlns="http://www.w3.org/2000/svg"><g><path d="m251.1 1.33-210 121.35c-3.094 1.786-5 5.088-5 8.66v249.76c0 .029.005.057.006.085.028 3.639 2.065 6.897 4.994 8.575l210 121.101c1.547.894 3.273 1.34 5 1.34 1.725 0 3.45-.446 4.996-1.337 0 0 209.94-121.066 209.951-121.072 3.639-2.312 5.054-5.561 5.054-8.691v-249.761c0-3.574-1.908-6.877-5.004-8.663l-210-121.35c-3.063-1.766-6.932-1.774-9.997.003zm5.003 270.215 85.049 49.045-84.649 48.872-84.999-49.074zm105.218 158.434-84.818-48.969 84.66-48.879 84.918 48.969zm-209.816-98.044 84.999 49.074-85.156 49.165-85.248-49.074zm104.598 158.72-84.755-48.934 85.156-49.165 84.806 48.963zm199.997-126.866-190-109.567v-74.222c0-5.522-4.477-10-10-10s-10 4.478-10 10v74.227l-190 109.553v-226.667l190-109.553v62.44c0 5.522 4.477 10 10 10s10-4.478 10-10v-62.45l190 109.567z"/><circle cx="256.101" cy="135" r="10"/></g></svg>