<svg viewBox="0 0 512 512" xmlns="http://www.w3.org/2000/svg"><path d="m512 27.484375v318.320313c0 6.765624-2.460938 12.960937-6.523438 17.753906l-142.589843 142.464844c-.050781.042968-.097657.070312-.148438.113281-1.761719 1.378906-3.695312 2.5625-5.765625 3.480469-.019531.011718-.039062.019531-.058594.019531-1.171874.523437-2.394531.972656-3.652343 1.324219-2.375.679687-4.875 1.039062-7.457031 1.039062h-318.332032c-15.140625 0-27.472656-12.332031-27.472656-27.472656v-318.332032c0-2.632812.378906-5.191406 1.082031-7.613281 1.039063-3.644531 2.832031-6.976562 5.183594-9.828125.070313-.101562.160156-.191406.238281-.292968l139.625-139.722657c5.015625-5.367187 12.152344-8.738281 20.066406-8.738281h318.320313c7.539063 0 14.382813 3.050781 19.347656 7.976562l.082031.078126c4.972657 4.976562 8.054688 11.851562 8.054688 19.429687zm0 0" fill="#e5e566"/><path d="m356.972656 509.617188c-1.191406.53125-2.433594.980468-3.710937 1.34375-2.375.679687-4.875 1.039062-7.457031 1.039062h-318.332032c-15.140625 0-27.472656-12.332031-27.472656-27.472656v-318.332032c0-2.632812.378906-5.191406 1.082031-7.613281h355.160157zm0 0" fill="#d2d224"/><path d="m512 27.484375v318.320313c0 6.765624-2.460938 12.960937-6.523438 17.753906l-142.589843 142.464844c-.050781.042968-.097657.070312-.148438.113281-1.761719 1.378906-3.695312 2.5625-5.765625 3.480469-.019531.011718-.039062.019531-.058594.019531l-.671874-351.054688 147.703124-150.527343c4.972657 4.976562 8.054688 11.851562 8.054688 19.429687zm0 0" fill="#b5b51f"/></svg>