<svg id="Layer_1" enable-background="new 0 0 511.453 511.453" height="512" viewBox="0 0 511.453 511.453" width="512" xmlns="http://www.w3.org/2000/svg"><g><path d="m511.453 255.726c0-142.015-115.231-255.726-255.727-255.726-58.655 0-112.761 19.793-155.954 53.085-60.604 46.713-70.509 119.42-70.559 201.902-.083 138.235 84.764 220.772 222.992 222.205 121.347 1.257 224.044-47.676 251.787-159.913 4.875-19.721 7.461-40.338 7.461-61.553z" fill="#ffc305"/><path d="m345.336 370.288c-138.228-1.432-253.098-117.633-253.016-255.869.013-21.144 2.611-41.677 7.462-61.321-60.604 46.713-99.733 119.99-99.782 202.472-.083 138.235 114.787 254.436 253.016 255.869 121.346 1.257 223.214-81.928 250.958-194.165-43.799 33.749-98.853 53.634-158.638 53.014z" fill="#ffa10b"/><g><g><path d="m257.352 293.323c-5.322 0-9.636-4.314-9.636-9.636v-186.258c0-5.322 4.314-9.636 9.636-9.636s9.636 4.314 9.636 9.636v186.258c.001 5.322-4.314 9.636-9.636 9.636z" fill="#a0ebff"/></g><g fill="#05cdff"><path d="m351.117 182.349-93.885 30.156-146.497-47.113v20.245l143.545 46.164c.959.308 1.955.463 2.95.463.994 0 1.989-.154 2.947-.462l95.103-30.547c-2.636-4.131-4.422-17.373-4.163-18.906z"/><path d="m462.333 161.57c.103-.55.164-1.112.17-1.686.041-4.151-2.581-7.862-6.508-9.21l-195.393-67.053c-2.026-.695-4.227-.696-6.252-.001l-129.732 44.465c.963 2.686 1.545 5.552 1.678 8.517.197 4.404-.933 8.604-2.993 12.307l134.169-45.986 164.827 56.563c-.001 0 24.687 1.879 40.034 2.084z"/></g><g><path d="m59.534 373.69c-4.004 0-7.744-2.515-9.115-6.515-1.726-5.035.957-10.515 5.991-12.24l195.637-67.054c2.025-.694 4.226-.694 6.252.001l195.393 67.054c5.034 1.727 7.714 7.209 5.987 12.243s-7.207 7.714-12.243 5.987l-192.268-65.981-192.51 65.982c-1.034.355-2.088.523-3.124.523z" fill="#a0ebff"/></g><g><path d="m324.917 413.536c-4.073 0-7.858-2.603-9.172-6.689-1.629-5.067 1.157-10.494 6.224-12.124l121.262-38.998v-182.713l-96.239 30.95c-5.069 1.632-10.494-1.158-12.124-6.224-1.629-5.067 1.157-10.494 6.224-12.124l108.826-34.998c2.931-.944 6.137-.428 8.626 1.387 2.489 1.814 3.96 4.708 3.96 7.787v202.958c0 4.186-2.702 7.892-6.686 9.174l-127.949 41.148c-.981.316-1.975.466-2.952.466z" fill="#a0ebff"/></g><g><path d="m257.23 435.222c-.99 0-1.985-.152-2.95-.463l-122.01-39.238 5.9-18.348 109.423 35.19v-182.712l-150.559-48.421 5.9-18.348 157.247 50.57c3.984 1.281 6.686 4.988 6.686 9.174v202.958c0 3.079-1.472 5.974-3.961 7.787-1.668 1.219-3.661 1.851-5.676 1.851z" fill="#05cdff"/></g><g><path d="m164.505 405.403c-.978 0-1.972-.15-2.952-.465l-102.666-33.017c-3.984-1.281-6.686-4.988-6.686-9.174v-202.958c0-3.079 1.472-5.974 3.96-7.787 2.489-1.815 5.694-2.33 8.626-1.386l54.255 17.448c5.067 1.63 7.853 7.057 6.224 12.124s-7.058 7.85-12.124 6.224l-41.668-13.402v182.713l95.98 30.867c5.067 1.63 7.853 7.057 6.224 12.124-1.315 4.086-5.1 6.689-9.173 6.689z" fill="#0091c8"/></g><g><path d="m257.229 435.224c-4.076 0-7.863-2.607-9.174-6.697-1.625-5.068 1.166-10.494 6.234-12.119l82.028-26.3c5.07-1.626 10.494 1.167 12.119 6.234 1.625 5.068-1.166 10.494-6.234 12.119l-82.028 26.3c-.979.314-1.971.463-2.945.463z" fill="#05cdff"/></g><g><path d="m61.837 169.428c-4.004 0-7.744-2.515-9.115-6.515-1.726-5.034.957-10.515 5.991-12.24l67.756-23.223c5.032-1.725 10.515.957 12.24 5.991 1.726 5.034-.957 10.515-5.991 12.24l-67.756 23.223c-1.035.356-2.089.524-3.125.524z" fill="#0091c8"/></g><g><circle cx="255.386" cy="224.865" fill="#fff" r="21.786"/></g><g><circle cx="255.386" cy="92.79" fill="#fff" r="21.786"/></g><g><circle cx="255.386" cy="418.663" fill="#fff" r="21.786"/></g><g><circle cx="59.992" cy="162.026" fill="#fff" r="21.786"/></g><g><circle cx="59.992" cy="361.179" fill="#fff" r="21.786"/></g><g><circle cx="451.461" cy="162.92" fill="#fff" r="21.786"/></g><g><circle cx="451.461" cy="362.072" fill="#fff" r="21.786"/></g></g></g></svg>