<?xml version="1.0" encoding="iso-8859-1"?>
<!-- Generator: Adobe Illustrator 19.0.0, SVG Export Plug-In . SVG Version: 6.00 Build 0)  -->
<svg version="1.1" id="Capa_1" xmlns="http://www.w3.org/2000/svg" xmlns:xlink="http://www.w3.org/1999/xlink" x="0px" y="0px"
	 viewBox="0 0 512 512" style="enable-background:new 0 0 512 512;" xml:space="preserve">
<g>
	<g>
		<path d="M354,163.76V66.024L177,0.469L0,66.024V289.72l158,58.519v97.735l177,65.557l177-65.557V222.279L354,163.76z M157,305.214
			L40,261.881V108.68l117,43.333V305.214z M77.585,79.945L177,43.124l99.415,36.821L177,116.765L77.585,79.945z M197,152.013
			l117-43.333v55.821l-117,43.333V152.013z M315,461.467l-117-43.333v-153.2l117,43.334V461.467z M235.585,236.199l96.015-35.561
			c0.788,0.094,1.587,0.157,2.401,0.157c1.306,0,2.58-0.135,3.817-0.374l96.598,35.777L335,273.019L235.585,236.199z M472,418.134
			l-117,43.333V308.268l117-43.334V418.134z"/>
	</g>
</g>
<g>
</g>
<g>
</g>
<g>
</g>
<g>
</g>
<g>
</g>
<g>
</g>
<g>
</g>
<g>
</g>
<g>
</g>
<g>
</g>
<g>
</g>
<g>
</g>
<g>
</g>
<g>
</g>
<g>
</g>
</svg>
