<svg id="Capa_1" enable-background="new 0 0 512 512" height="512" viewBox="0 0 512 512" width="512" xmlns="http://www.w3.org/2000/svg"><g><path d="m256 .268-135.5 76.625v136.286l-120.5 68.142v153.786l135.5 76.625 120.5-68.142 120.5 68.143 135.5-76.626v-290.071zm-105.5 366.696 90.5-51.178v101.822l-90.5 51.178zm0-255.607 90.5 51.178v101.821l-90.5-51.178zm120.5 68.143 90.5 51.178v238.107l-90.5-51.178zm105.5 25.196-90.027-50.911 90.026-50.911 90.028 50.911zm-30.473-119.053-90.027 50.911-90.028-50.911 90.028-50.911zm-210.527 153.518 90.027 50.91-90.027 50.91-90.027-50.91zm-105.5 76.625 90.5 51.178v101.821l-90.5-51.178zm361.5 152.999v-238.106l90.5-51.178v238.107z"/></g></svg>