<svg id="Capa_1" enable-background="new 0 0 511.978 511.978" height="512" viewBox="0 0 511.978 511.978" width="512" xmlns="http://www.w3.org/2000/svg"><g><g><g><path d="m259.851 503.699 238.551-98.514-242.413-100.109-242.414 100.109 238.551 98.514c2.474 1.021 5.252 1.021 7.725 0z" fill="#26a6fe"/></g><g><path d="m498.402 405.185v-275.553c0-3.899-2.24-7.451-5.758-9.131l-236.655-113.02v297.595z" fill="#fea613"/></g><g><path d="m498.407 405.182-238.557 98.514c-2.471 1.02-5.252 1.02-7.723 0l-16.448-6.776c.15-.05.31-.11.46-.17l241.258-100.241z" fill="#0593fc"/></g><g><path d="m498.407 129.629v275.553l-21.009-8.674v-282.466c0-.28-.01-.56-.04-.84l15.287 7.303c3.521 1.68 5.762 5.232 5.762 9.124z" fill="#fb8801"/></g><g><path d="m13.575 405.185v-275.553c0-3.899 2.24-7.451 5.758-9.131l236.656-113.02v297.595z" fill="#fe5694"/></g></g><path d="m504.646 409.453c.786-1.073 1.26-2.44 1.26-4.269 0-.002 0-275.552 0-275.552 0-6.75-3.936-12.992-10.028-15.902l-54.353-25.958c-3.739-1.786-8.219-.203-10.005 3.537s-.202 8.219 3.537 10.005l54.353 25.958c.905.432 1.489 1.359 1.489 2.36v264.336l-227.407-93.912v-280.676l140.031 66.875c3.737 1.783 8.219.202 10.004-3.537 1.786-3.74.202-8.219-3.537-10.005l-150.768-72.003c-.012-.006-.026-.01-.038-.015-1.856-.874-4.083-.912-5.944-.18-.149.059-237.14 113.215-237.14 113.215-6.092 2.91-10.028 9.151-10.028 15.902v275.557c.002 3.164 1.804 5.642 4.612 6.752 1.064.421 77.894 32.329 81.587 33.86 3.832 1.583 8.218-.24 9.798-4.072 1.583-3.83-.24-8.217-4.071-9.799l-64.764-26.745 222.755-91.991 222.756 91.991-221.757 91.579c-.643.266-1.352.267-1.997-.001l-124.73-51.509c-3.829-1.582-8.218.241-9.799 4.072-1.581 3.83.241 8.218 4.072 9.799l124.729 51.508c2.169.896 4.448 1.344 6.728 1.344 2.278 0 4.558-.448 6.726-1.343 1.579-.652 3.158-1.304 4.738-1.957 4.361-1.801 225.314-93.047 229.544-94.794 2.934-1.212 5.987-2.165 7.647-4.43zm-482.078-282.181 225.917-107.892v280.676l-227.406 93.911v-264.335c0-1.001.584-1.929 1.489-2.36z"/></g></svg>