<svg id="Capa_1" enable-background="new 0 0 512 512" height="512" viewBox="0 0 512 512" width="512" xmlns="http://www.w3.org/2000/svg"><g><path d="m491 115c0-5.1-2.591-9.851-6.879-12.611-4.289-2.762-9.686-3.156-14.328-1.044l-220 100c-5.355 2.433-8.793 7.773-8.793 13.655v282c0 5.1 2.591 9.851 6.879 12.611 2.459 1.584 5.284 2.389 8.122 2.389 2.109 0 4.227-.444 6.206-1.345l213.791-97.178-9.998-18.477 25-7.657z" fill="#515be0"/><path d="m256 198.523-213.793-97.178c-4.644-2.112-10.041-1.719-14.328 1.044-4.288 2.76-6.879 7.511-6.879 12.611v272.343l25 7.657-9.998 18.478 213.791 97.178c1.98.9 4.096 1.345 6.206 1.345h.001v-198.524l-10-13.477 10-17.223z" fill="#7c84e8"/><path d="m248.281 284.032-36.415 16.552c-7.542 3.428-10.877 12.32-7.448 19.862 2.513 5.528 7.963 8.797 13.664 8.797 2.076 0 4.186-.434 6.198-1.349l31.72-14.417 20-15.477-20-15.223c-2.556-.262-5.211.115-7.719 1.255z" fill="#eae7ea"/><path d="m86.074 374.241c-3.428-7.541-12.323-10.876-19.862-7.448l-45.212 20.55v9.657c0 5.882 3.438 11.222 8.793 13.655l6.209 2.822 42.624-19.374c7.542-3.427 10.877-12.32 7.448-19.862z" fill="#eae7ea"/><path d="m157.244 325.412-36.414 16.553c-7.542 3.428-10.877 12.321-7.448 19.862 2.513 5.528 7.963 8.797 13.664 8.797 2.076 0 4.186-.434 6.198-1.349l36.414-16.553c7.542-3.428 10.877-12.321 7.448-19.862-3.427-7.542-12.323-10.875-19.862-7.448z" fill="#eae7ea"/><g><path d="m489.654 108.794c-1.473-3.24-4.08-5.919-7.447-7.449l-220-100c-3.944-1.793-8.47-1.793-12.414 0l-220 100c-3.366 1.53-5.973 4.209-7.447 7.449l233.654 106.206z" fill="#8cbcff"/></g><path d="m482.207 101.345-220-100c-1.972-.897-4.09-1.345-6.207-1.345v215l233.654-106.206c-1.474-3.24-4.081-5.919-7.447-7.449z" fill="#7c84e8"/><g fill="#eae7ea"><path d="m256 130c-8.284 0-15 6.716-15 15v40c0 8.284 6.716 15 15 15s15-6.716 15-15v-40c0-8.284-6.716-15-15-15z"/><path d="m256 30c-8.284 0-15 6.716-15 15v40c0 8.284 6.716 15 15 15s15-6.716 15-15v-40c0-8.284-6.716-15-15-15z"/></g><g fill="#d5d3ea"><path d="m271 185v-40c0-8.284-6.716-15-15-15v70c8.284 0 15-6.716 15-15z"/><path d="m256 30v70c8.284 0 15-6.716 15-15v-40c0-8.284-6.716-15-15-15z"/><path d="m300.134 300.584-36.415-16.552c-2.508-1.14-5.162-1.517-7.719-1.255v30.7l31.72 14.418c2.013.915 4.122 1.349 6.198 1.349 5.701 0 11.151-3.269 13.664-8.797 3.429-7.543.094-16.435-7.448-19.863z"/><path d="m491 397v-9.657l-45.212-20.55c-7.539-3.428-16.435-.093-19.862 7.448-3.429 7.542-.094 16.435 7.448 19.862l42.624 19.374 6.209-2.822c5.355-2.433 8.793-7.773 8.793-13.655z"/><path d="m391.17 341.965-36.414-16.553c-7.539-3.427-16.435-.094-19.862 7.448-3.429 7.541-.094 16.435 7.448 19.862l36.414 16.553c2.013.915 4.122 1.349 6.198 1.349 5.701 0 11.151-3.269 13.664-8.797 3.429-7.541.094-16.434-7.448-19.862z"/></g></g></svg>