<svg height="512pt" viewBox="0 0 512.00533 512" width="512pt" xmlns="http://www.w3.org/2000/svg"><path d="m512.003906 10.667969v341.335937c0 2.773438-1.066406 5.546875-3.199218 7.464844l-149.332032 149.332031c-1.921875 2.136719-4.695312 3.203125-7.46875 3.203125v-352l156.800782-156.800781.234374-.214844c1.6875 2.132813 2.964844 4.695313 2.964844 7.679688zm0 0" fill="#1e88e5"/><path d="m352.003906 160.003906v352h-341.332031c-5.972656 0-10.66796875-4.695312-10.66796875-10.667968v-341.332032zm0 0" fill="#64b5f6"/><path d="m509.019531 2.988281-157.015625 157.015625h-351.99999975c0-2.773437 1.06640575-5.546875 3.20312475-7.46875l149.332031-149.332031c1.917969-2.132813 4.691407-3.19921875 7.464844-3.19921875h341.335938c2.984375 0 5.546875 1.27734375 7.679687 2.98437475zm0 0" fill="#2196f3"/><path d="m352.003906 512.003906h-341.332031c-5.886719 0-10.66796875-4.78125-10.66796875-10.667968v-341.332032c0-5.890625 4.78124975-10.667968 10.66796875-10.667968h341.332031c5.890625 0 10.667969 4.777343 10.667969 10.667968v341.332032c0 5.886718-4.777344 10.667968-10.667969 10.667968zm-330.664062-21.335937h320v-320h-320zm0 0"/><path d="m501.339844 362.667969c-5.890625 0-10.667969-4.777344-10.667969-10.664063v-330.667968h-330.667969c-5.886718 0-10.664062-4.777344-10.664062-10.667969 0-5.886719 4.777344-10.66406275 10.664062-10.66406275h341.335938c5.886718 0 10.664062 4.77734375 10.664062 10.66406275v341.335937c0 5.886719-4.777344 10.664063-10.664062 10.664063zm0 0"/><path d="m10.671875 170.667969c-2.730469 0-5.460937-1.042969-7.550781-3.113281-4.160156-4.160157-4.160156-10.921876 0-15.082032l149.332031-149.335937c4.160156-4.15625 10.921875-4.15625 15.082031 0 4.160156 4.160156 4.160156 10.925781 0 15.085937l-149.332031 149.332032c-2.070313 2.070312-4.800781 3.113281-7.53125 3.113281zm0 0"/><path d="m352.003906 170.667969c-2.730468 0-5.460937-1.042969-7.550781-3.113281-4.160156-4.160157-4.160156-10.921876 0-15.082032l149.332031-149.335937c4.160156-4.15625 10.925782-4.15625 15.085938 0 4.160156 4.160156 4.160156 10.925781 0 15.085937l-149.335938 149.332032c-2.070312 2.070312-4.800781 3.113281-7.53125 3.113281zm0 0"/><path d="m352.003906 512.003906c-2.730468 0-5.460937-1.046875-7.550781-3.117187-4.160156-4.160157-4.160156-10.921875 0-15.082031l149.332031-149.332032c4.160156-4.160156 10.925782-4.160156 15.085938 0s4.160156 10.921875 0 15.082032l-149.335938 149.332031c-2.070312 2.070312-4.800781 3.117187-7.53125 3.117187zm0 0"/></svg>