<svg id="Layer_1" enable-background="new 0 0 510 510" height="512" viewBox="0 0 510 510" width="512" xmlns="http://www.w3.org/2000/svg"><g id="XMLID_122_"><path id="XMLID_816_" d="m135 59.538v165l50.337 28.299 69.663 8.974 15-85.906-15-85.905-60-30z" fill="#ad7ffa"/><path id="XMLID_763_" d="m0 258.288v188.424c48.324 12.081 88.278 22.069 135 33.75l15-95.231-15-95.231-65.5-28.189z" fill="#bee75e"/><path id="XMLID_806_" d="m135 290v190.462c14.891-3.723 105.323-26.331 120-30l15-94.325-15-94.325c-17.712.862-55.004 2.678-65.5 3.189-6.619 3.035-47.857 21.952-54.5 24.999z" fill="#00cb75"/><path id="XMLID_689_" d="m0 258.288c16.418 3.857 118.548 27.848 135 31.712l15-32.731-15-32.731c-16.32 4.08-118.572 29.643-135 33.75z" fill="#00cb75"/><path id="XMLID_680_" d="m135 224.538v65.462c14.507-3.408 105.397-24.758 120-28.189-82.408-25.596-36.86-11.449-120-37.273z" fill="#00a78e"/><path id="XMLID_819_" d="m255 90v171.811l60-6.811 60-30.462c0-4.655 0-160.347 0-165l-60 .462z" fill="#914efa"/><path id="XMLID_811_" d="m135 59.538c14.503 3.682 105.401 26.756 120 30.462l15-30.231-15-30.231c-14.516 3.629-105.388 26.347-120 30z" fill="#914efa"/><path id="XMLID_812_" d="m255 29.538v60.462c14.503-3.682 105.401-26.756 120-30.462-14.516-3.629-105.388-26.347-120-30z" fill="#8436f9"/><path id="XMLID_832_" d="m375 290 15 95.23-15 95.231c-14.516-3.629-105.388-26.347-120-30 0-10.475 0-178.176 0-188.65l60 2.189z" fill="#f4d844"/><path id="XMLID_831_" d="m510 258.288v188.424c-48.324 12.081-88.278 22.069-135 33.75 0-10.587 0-179.876 0-190.462l67.5-28.189z" fill="#ecbd2c"/><path id="XMLID_823_" d="m375 224.538 15 32.731-15 32.731-60-14.094-60-14.094c24.841-7.716 44.565-13.843 60.222-18.705 72.521-22.527 57.755-17.94 59.778-18.569z" fill="#ecbd2c"/><path id="XMLID_827_" d="m510 258.288c-16.418 3.857-118.548 27.848-135 31.712 0-17.727 0-54.999 0-65.462z" fill="#e58f22"/></g></svg>