<svg height="512pt" viewBox="0 0 512 512" width="512pt" xmlns="http://www.w3.org/2000/svg" xmlns:xlink="http://www.w3.org/1999/xlink"><linearGradient id="a" gradientTransform="matrix(1 0 0 -1 0 -15158)" gradientUnits="userSpaceOnUse" x1="0" x2="512" y1="-15414" y2="-15414"><stop offset="0" stop-color="#00f38d"/><stop offset="1" stop-color="#009eff"/></linearGradient><path d="m512 256c0 141.386719-114.613281 256-256 256s-256-114.613281-256-256 114.613281-256 256-256 256 114.613281 256 256zm0 0" fill="url(#a)"/><path d="m256 70.800781-185 68.519531v232.953126l185 68.515624 185-68.515624v-232.953126zm126.8125 78.960938-126.8125 46.964843-126.8125-46.964843 126.8125-46.96875zm-281.8125 21.550781 140 51.847656v180.082032l-140-51.851563zm170 231.933594v-180.082032l140-51.851562v180.082031zm0 0" fill="#fff"/></svg>