<?xml version="1.0" encoding="iso-8859-1"?>
<!-- Generator: Adobe Illustrator 19.0.0, SVG Export Plug-In . SVG Version: 6.00 Build 0)  -->
<svg version="1.1" id="Capa_1" xmlns="http://www.w3.org/2000/svg" xmlns:xlink="http://www.w3.org/1999/xlink" x="0px" y="0px"
	 viewBox="0 0 511.999 511.999" style="enable-background:new 0 0 511.999 511.999;" xml:space="preserve">
<g>
	<g>
		<g>
			<path d="M508.978,288.988C509.729,290.565,508.86,288.709,508.978,288.988L508.978,288.988z"/>
			<path d="M508.978,288.988c-0.901-2.119-2.721-3.956-4.679-5.098l-44.846-25.894c-3.586-2.071-8.175-0.843-10.246,2.745
				c-2.071,3.587-0.842,8.175,2.745,10.246l35.685,20.604l-108.316,62.536l-108.315-62.535l108.315-62.537l41.986,24.241
				c3.588,2.069,8.175,0.842,10.246-2.745c2.071-3.587,0.842-8.175-2.745-10.246l-41.99-24.244V80.462
				c0-4.138-2.277-8.033-5.839-10.119L261.843,1.56c-3.604-2.08-8.082-2.079-11.688,0.001l-119.113,68.77
				c-3.558,2.037-5.86,6.033-5.86,10.132v61.453c0,4.143,3.357,7.501,7.501,7.501s7.501-3.357,7.501-7.501v-50.88L248.5,153.571
				v125.031l-108.317-62.538v-39.969c0-4.143-3.357-7.501-7.501-7.501s-7.501,3.357-7.501,7.501v39.965L7.723,283.875
				c-3.58,2.05-5.863,6.008-5.863,10.133v137.557c0,4.158,2.237,8.036,5.845,10.123l119.151,68.791
				c3.553,2.035,8.117,2.024,11.667-0.013l69.736-40.263c3.587-2.071,4.816-6.659,2.745-10.246
				c-2.072-3.588-6.659-4.814-10.246-2.745l-60.579,34.977V367.117l108.324-62.54v125.069l-17.1,9.874
				c-3.587,2.071-4.816,6.658-2.745,10.246c1.39,2.406,3.91,3.751,6.502,3.751c1.272,0,2.563-0.324,3.743-1.006l17.094-9.87
				l117.497,67.835c3.554,2.039,8.119,2.025,11.671-0.01l119.151-68.793c3.592-2.086,5.823-5.959,5.823-10.108V294.007
				C510.14,292.273,509.729,290.565,508.978,288.988z M125.178,492.189L16.861,429.652V304.581l108.317,62.536V492.189z
				 M132.677,354.126L24.362,291.591l108.315-62.537l108.316,62.537L132.677,354.126z M147.685,78.044L256,15.508l108.316,62.537
				L256,140.579L147.685,78.044z M263.5,153.57l108.317-62.536v125.03L263.5,278.602V153.57z M371.821,492.189l-108.317-62.536
				V304.581l108.317,62.536V492.189z M495.138,429.649l-108.317,62.539V367.117l108.317-62.536V429.649z"/>
		</g>
	</g>
</g>
<g>
	<g>
		<path d="M356.79,197.471c-4.143,0-7.501,3.357-7.501,7.501v0.563c0,4.143,3.357,7.501,7.501,7.501s7.501-3.357,7.501-7.501v-0.563
			C364.291,200.828,360.933,197.471,356.79,197.471z"/>
	</g>
</g>
<g>
	<g>
		<path d="M356.79,175.694c-4.143,0-7.501,3.357-7.501,7.501v0.564c0,4.143,3.357,7.501,7.501,7.501s7.501-3.357,7.501-7.501v-0.564
			C364.291,179.051,360.933,175.694,356.79,175.694z"/>
	</g>
</g>
<g>
	<g>
		<path d="M356.79,153.916c-4.143,0-7.501,3.357-7.501,7.501v0.563c0,4.143,3.357,7.501,7.501,7.501s7.501-3.357,7.501-7.501v-0.563
			C364.291,157.274,360.933,153.916,356.79,153.916z"/>
	</g>
</g>
<g>
</g>
<g>
</g>
<g>
</g>
<g>
</g>
<g>
</g>
<g>
</g>
<g>
</g>
<g>
</g>
<g>
</g>
<g>
</g>
<g>
</g>
<g>
</g>
<g>
</g>
<g>
</g>
<g>
</g>
</svg>
