<svg id="_x31_px" enable-background="new 0 0 24 24" height="512" viewBox="0 0 24 24" width="512" xmlns="http://www.w3.org/2000/svg"><path d="m17.5 8.61c-.192 0-.377-.112-.459-.301-.109-.253.006-.547.26-.658l4.945-2.151-10.246-4.455-10.246 4.455 4.945 2.151c.254.11.369.405.26.658-.11.254-.407.37-.658.259l-6-2.61c-.183-.079-.301-.259-.301-.458s.118-.379.301-.458l11.5-5c.127-.056.271-.056.398 0l11.5 5c.183.079.301.259.301.458s-.118.379-.301.458l-6 2.61c-.064.029-.133.042-.199.042z"/><path d="m12 24c-.068 0-.136-.014-.199-.042l-11.5-5c-.183-.079-.301-.259-.301-.458v-13c0-.276.224-.5.5-.5s.5.224.5.5v12.672l11 4.782 11-4.782v-12.672c0-.276.224-.5.5-.5s.5.224.5.5v13c0 .199-.118.379-.301.458l-11.5 5c-.063.028-.131.042-.199.042z"/><path d="m12 24c-.276 0-.5-.224-.5-.5v-7c0-.276.224-.5.5-.5s.5.224.5.5v7c0 .276-.224.5-.5.5z"/><path d="m12 17c-.07 0-.142-.015-.207-.045l-5.5-2.5c-.179-.081-.293-.259-.293-.455s.114-.374.293-.455l5.5-2.5c.131-.06.283-.06.414 0l5.5 2.5c.179.081.293.259.293.455s-.114.374-.293.455l-5.5 2.5c-.065.03-.137.045-.207.045zm-4.292-3 4.292 1.951 4.292-1.951-4.292-1.951z"/><path d="m17.5 14.5c-.276 0-.5-.224-.5-.5v-5.678l-5-2.272-5 2.272v5.678c0 .276-.224.5-.5.5s-.5-.224-.5-.5v-6c0-.196.114-.374.293-.455l5.5-2.5c.131-.06.283-.06.414 0l5.5 2.5c.179.081.293.259.293.455v6c0 .276-.224.5-.5.5z"/><path d="m12 12c-.276 0-.5-.224-.5-.5v-6c0-.276.224-.5.5-.5s.5.224.5.5v6c0 .276-.224.5-.5.5z"/></svg>