<?xml version="1.0" encoding="iso-8859-1"?>
<!-- Generator: Adobe Illustrator 19.0.0, SVG Export Plug-In . SVG Version: 6.00 Build 0)  -->
<svg version="1.1" id="Capa_1" xmlns="http://www.w3.org/2000/svg" xmlns:xlink="http://www.w3.org/1999/xlink" x="0px" y="0px"
	 viewBox="0 0 512 512" style="enable-background:new 0 0 512 512;" xml:space="preserve">
<rect x="38" y="38" style="fill:#B1FFFF;" width="309.39" height="309.39"/>
<path style="fill:#304FFE;" d="M380.71,0H0v380.71L131.29,512H512V131.29L380.71,0z M385.4,27.31l99.29,99.29h-99.3L385.4,27.31z
	 M369.4,126.6H137.92L27.31,16h342.08L369.4,126.6z M369.4,369.39H142.61V142.61h226.78L369.4,369.39z M126.61,137.92v231.47H16
	V27.31L126.61,137.92z M126.61,385.39v99.29l-99.3-99.29H126.61z M142.61,385.39h231.47L484.69,496H142.61V385.39z M385.4,374.08
	V142.61H496v342.08L385.4,374.08z"/>
<g>
</g>
<g>
</g>
<g>
</g>
<g>
</g>
<g>
</g>
<g>
</g>
<g>
</g>
<g>
</g>
<g>
</g>
<g>
</g>
<g>
</g>
<g>
</g>
<g>
</g>
<g>
</g>
<g>
</g>
</svg>
