<svg id="Capa_1" enable-background="new 0 0 512 512" height="512" viewBox="0 0 512 512" width="512" xmlns="http://www.w3.org/2000/svg" xmlns:xlink="http://www.w3.org/1999/xlink"><linearGradient id="SVGID_1_" gradientUnits="userSpaceOnUse" x1="151" x2="151" y1="302" y2="0"><stop offset="0" stop-color="#ffe59a"/><stop offset="1" stop-color="#ffffd5"/></linearGradient><linearGradient id="SVGID_2_" gradientUnits="userSpaceOnUse" x1="362" x2="362" y1="512" y2="212"><stop offset="0" stop-color="#fd5900"/><stop offset="1" stop-color="#ffde00"/></linearGradient><g><path d="m227 302h-212c-8.291 0-15-6.709-15-15v-272c0-8.291 6.709-15 15-15h272c8.291 0 15 6.709 15 15v212c0 8.291-6.709 15-15 15h-45v45c0 8.291-6.709 15-15 15z" fill="url(#SVGID_1_)"/><path d="m497 212h-270c-8.291 0-15 6.709-15 15v270c0 8.291 6.709 15 15 15h270c8.291 0 15-6.709 15-15v-270c0-8.291-6.709-15-15-15zm-45 225c0 8.291-6.709 15-15 15h-150c-8.291 0-15-6.709-15-15v-150c0-8.291 6.709-15 15-15h150c8.291 0 15 6.709 15 15z" fill="url(#SVGID_2_)"/></g></svg>