<svg id="color" enable-background="new 0 0 24 24" height="512" viewBox="0 0 24 24" width="512" xmlns="http://www.w3.org/2000/svg"><path d="m21 24h-4c-.553 0-1-.448-1-1s.447-1 1-1h4c.552 0 1-.449 1-1v-4c0-.552.447-1 1-1s1 .448 1 1v4c0 1.654-1.346 3-3 3z" fill="#607d8b"/><path d="m23 8c-.553 0-1-.448-1-1v-4c0-.551-.448-1-1-1h-4c-.553 0-1-.448-1-1s.447-1 1-1h4c1.654 0 3 1.346 3 3v4c0 .552-.447 1-1 1z" fill="#607d8b"/><path d="m12 5 7 3-7 3-7-3z" fill="#ffc107"/><path d="m5 8 7 3v8l-7-3z" fill="#ffd54f"/><path d="m19 8-7 3v8l7-3z" fill="#ffca28"/><path d="m12 5-7 3 7 3z" fill="#dea806"/><path d="m5 8v8l7 3v-8z" fill="#deb945"/><path d="m1 8c-.553 0-1-.448-1-1v-4c0-1.654 1.346-3 3-3h4c.553 0 1 .448 1 1s-.447 1-1 1h-4c-.552 0-1 .449-1 1v4c0 .552-.447 1-1 1z" fill="#607d8b"/><path d="m7 24h-4c-1.654 0-3-1.346-3-3v-4c0-.552.447-1 1-1s1 .448 1 1v4c0 .551.448 1 1 1h4c.553 0 1 .448 1 1s-.447 1-1 1z" fill="#607d8b"/><g fill="#546d79"><path d="m7 0h-4c-1.654 0-3 1.346-3 3v4c0 .552.447 1 1 1s1-.448 1-1v-4c0-.551.448-1 1-1h4c.553 0 1-.448 1-1s-.447-1-1-1z"/><path d="m1 16c-.553 0-1 .448-1 1v4c0 1.654 1.346 3 3 3h4c.553 0 1-.448 1-1s-.447-1-1-1h-4c-.552 0-1-.449-1-1v-4c0-.552-.447-1-1-1z"/></g></svg>