<?xml version="1.0" encoding="iso-8859-1"?>
<!-- Generator: Adobe Illustrator 19.0.0, SVG Export Plug-In . SVG Version: 6.00 Build 0)  -->
<svg version="1.1" id="Capa_1" xmlns="http://www.w3.org/2000/svg" xmlns:xlink="http://www.w3.org/1999/xlink" x="0px" y="0px"
	 viewBox="0 0 512 512" style="enable-background:new 0 0 512 512;" xml:space="preserve">
<circle style="fill:#C9F3FF;" cx="256" cy="256" r="246"/>
<circle style="fill:#FFFFFF;" cx="256" cy="256" r="181"/>
<g>
	<circle style="fill:#72D8FF;" cx="383.99" cy="128.01" r="23.816"/>
	<circle style="fill:#72D8FF;" cx="128.01" cy="383.99" r="23.816"/>
</g>
<polygon style="fill:#FF5D5D;" points="256.123,136.211 148.13,196.045 148.13,315.712 256.123,375.546 364.116,315.712 
	364.116,196.045 "/>
<polygon style="fill:#FE8F8D;" points="364.116,315.712 364.116,196.045 256.123,255.878 256.123,375.546 "/>
<path d="M128.014,350.171c-4.542,0-8.947,0.891-13.017,2.588C95.348,324.24,85,290.973,85,256c0-94.29,76.71-171,171-171
	c7.833,0,15.708,0.534,23.408,1.588c5.475,0.75,10.515-3.08,11.264-8.552s-3.08-10.515-8.552-11.264
	C273.524,65.596,264.737,65,256,65C150.682,65,65,150.682,65,256c0,39.703,11.935,77.448,34.594,109.655
	c-3.508,5.415-5.397,11.726-5.397,18.332c0,9.033,3.518,17.524,9.904,23.911c6.387,6.387,14.879,9.904,23.912,9.904
	s17.524-3.518,23.911-9.904c6.387-6.387,9.905-14.878,9.905-23.911s-3.518-17.524-9.904-23.911
	C145.538,353.688,137.046,350.171,128.014,350.171z M137.783,393.755L137.783,393.755c-5.387,5.387-14.152,5.387-19.539,0
	c-2.609-2.609-4.046-6.078-4.046-9.769s1.437-7.159,4.047-9.769c2.693-2.693,6.231-4.04,9.769-4.04c3.538,0,7.076,1.347,9.77,4.04
	c2.609,2.609,4.046,6.078,4.046,9.769S140.393,391.146,137.783,393.755z"/>
<path d="M412.398,146.347c8.452-13.093,6.956-30.789-4.5-42.245c-13.186-13.185-34.638-13.185-47.823,0s-13.185,34.638,0,47.823
	c6.593,6.592,15.252,9.888,23.912,9.888c4.428,0,8.854-0.868,13.006-2.591C416.647,187.749,427,221.041,427,256
	c0,94.29-76.71,171-171,171c-9.242,0-18.517-0.743-27.565-2.209c-5.448-0.886-10.587,2.82-11.47,8.271
	c-0.883,5.452,2.82,10.588,8.272,11.471C235.339,446.17,245.689,447,256,447c105.318,0,191-85.683,191-191
	C447,216.32,435.055,178.559,412.398,146.347z M374.217,137.783c-5.387-5.387-5.387-14.151,0-19.538
	c2.693-2.694,6.231-4.041,9.769-4.041s7.076,1.347,9.769,4.041c5.387,5.387,5.387,14.151,0,19.538
	C388.369,143.17,379.604,143.17,374.217,137.783z"/>
<path d="M192.769,414.93l-0.438-0.176c-5.119-2.074-10.95,0.393-13.025,5.51c-2.075,5.118,0.391,10.949,5.509,13.025l0.631,0.252
	c1.202,0.473,2.44,0.697,3.658,0.697c3.989,0,7.76-2.404,9.309-6.342C200.435,422.757,197.908,416.952,192.769,414.93z"/>
<path d="M319.813,97.303c0.009,0.003,0.094,0.038,0.103,0.042l0.055,0.022c1.237,0.505,2.516,0.744,3.774,0.744
	c3.943,0,7.681-2.348,9.262-6.225c2.086-5.114-0.368-10.951-5.481-13.037l-0.21-0.085c-5.12-2.072-10.949,0.398-13.021,5.518
	C312.223,89.401,314.693,95.23,319.813,97.303z"/>
<path d="M251.128,127.762L143.27,187.521c-3.181,1.762-5.154,5.111-5.154,8.747v119.519c0,3.636,1.973,6.985,5.154,8.747
	l107.858,59.759c1.507,0.835,3.177,1.253,4.846,1.253c1.669,0,3.339-0.418,4.846-1.253l107.858-59.759
	c3.181-1.762,5.154-5.111,5.154-8.747V196.268c0-3.636-1.973-6.985-5.154-8.747L260.82,127.762
	C257.806,126.091,254.143,126.091,251.128,127.762z M255.974,147.941l87.224,48.327l-87.225,48.327l-87.224-48.327L255.974,147.941z
	 M158.116,213.241l87.858,48.678v96.654l-87.858-48.678V213.241z M265.974,358.573v-96.654l87.858-48.678v96.655L265.974,358.573z"
	/>
<path d="M437.019,74.981C388.667,26.628,324.38,0,256,0S123.333,26.628,74.981,74.981C26.628,123.333,0,187.62,0,256
	s26.628,132.667,74.981,181.02C123.333,485.371,187.62,512,256,512s132.667-26.629,181.019-74.98
	C485.372,388.667,512,324.38,512,256S485.372,123.333,437.019,74.981z M256,492C125.869,492,20,386.131,20,256S125.869,20,256,20
	s236,105.869,236,236S386.131,492,256,492z"/>
<g>
</g>
<g>
</g>
<g>
</g>
<g>
</g>
<g>
</g>
<g>
</g>
<g>
</g>
<g>
</g>
<g>
</g>
<g>
</g>
<g>
</g>
<g>
</g>
<g>
</g>
<g>
</g>
<g>
</g>
</svg>
