<svg id="Capa_1" enable-background="new 0 0 512 512" height="512" viewBox="0 0 512 512" width="512" xmlns="http://www.w3.org/2000/svg"><g><path d="m497 0h-320c-3.978 0-7.793 1.58-10.606 4.394l-162 162c-2.813 2.812-4.394 6.627-4.394 10.606v320c0 8.284 6.716 15 15 15h320c3.978 0 7.793-1.58 10.606-4.394l162-162c2.813-2.812 4.394-6.627 4.394-10.606v-320c0-8.284-6.716-15-15-15z" fill="#eae7ea"/><g><path d="m4.393 507.607c2.715 2.714 6.465 4.393 10.607 4.393h320c3.978 0 7.793-1.58 10.606-4.394l162-162c2.813-2.812 4.394-6.627 4.394-10.606v-320c0-4.142-1.679-7.892-4.393-10.607z" fill="#d5d3ea"/></g><path d="m350 350h110.787l-110.787 110.787z" fill="#ffc178"/><path d="m162 328.787-132 132v-268.787h132z" fill="#8cbcff"/><path d="m162 162h-110.787l110.787-110.787z" fill="#8cbcff"/><path d="m192 192h128v128h-128z" fill="#ff7d47"/><path d="m320 192-128 128h128z" fill="#ff3838"/><path d="m350 183.213 132-132v268.787h-132z" fill="#ff3838"/><path d="m460.787 30-132 132h-136.787v-132z" fill="#ff7d47"/><path d="m51.213 482 132-132h136.787v132z" fill="#ffc178"/></g></svg>