<?xml version="1.0" encoding="iso-8859-1"?>
<!-- Generator: Adobe Illustrator 19.0.0, SVG Export Plug-In . SVG Version: 6.00 Build 0)  -->
<svg version="1.1" id="Capa_1" xmlns="http://www.w3.org/2000/svg" xmlns:xlink="http://www.w3.org/1999/xlink" x="0px" y="0px"
	 viewBox="0 0 342.4 342.4" style="enable-background:new 0 0 342.4 342.4;" xml:space="preserve">
<g>
	<g>
		<g>
			<path d="M81.2,184.8c-9.6,8-12,24.8-5.2,37.2c6.4,12.4,19.6,16,29.2,8c9.6-8,12-24.8,5.2-37.2S90.8,176.8,81.2,184.8z"/>
			<path d="M203.6,88.8l-10.8-7.6c-2-1.6-3.2-4.4-2.8-6.8l2.4-10.8c0.4-2.4-0.8-3.6-3.2-2.4l-14,6.4c-2.4,1.2-6,1.2-8.4,0.4
				l-13.6-4.8c-2.4-0.8-3.6,0.4-3.2,2.8l2.4,10.4c0.4,2.4-0.4,5.6-2.4,7.2l-10.8,9.6c-2,1.6-1.6,2.8,1.2,3.2l15.6,0.8
				c2.4,0,5.6,2,6.8,4l6.4,9.6c1.2,2,3.6,2,4.8,0l6.4-10.4c1.2-2,4.4-4.4,6.8-4.8l16-2.8C205.2,91.6,205.6,90.4,203.6,88.8z"/>
			<path d="M250,190.4l-1.6,3.2l-1.6-2c-5.6-6.4-14-3.2-19.2,6.4c-5.2,9.6-4.8,22.8,0.8,29.2c0,0,8,9.6,13.6,15.6
				c5.6,6.4,9.6,4.8,15.6-5.6c6-10.8,12.4-24,12.4-24c5.2-9.6,4.8-22.8-0.8-29.2S255.2,180.4,250,190.4z"/>
			<path d="M319.2,85.2c-3.6-6.4-9.2-12.4-15.2-16l-111.6-64c-6-3.6-13.6-5.2-21.2-5.2C163.6,0,156,1.6,150,5.2L38.4,69.6
				c-6,3.6-11.2,9.2-15.2,16c-3.6,6.4-6,14-6,21.2v128.8c0,6.8,2.4,14.4,6,21.2c3.6,6.4,9.2,12.4,15.2,16L150,337.2
				c6,3.6,13.6,5.2,21.2,5.2s15.2-1.6,21.2-5.2L304,272.8c6-3.6,11.2-9.2,15.2-16c3.6-6.4,6-14,6-21.2V106.4
				C325.2,99.6,322.8,92,319.2,85.2z M47.2,256.8c-3.2-2-6.4-5.2-8.8-9.2c-2.4-4-3.6-8.4-3.6-12V106.8L162,179.6v142.664
				c-1.067-0.36-2.133-0.753-3.2-1.464L47.2,256.8z M42,89.6c1.6-2,3.6-3.6,5.6-4.8l111.6-64.4c3.2-2,7.6-2.8,12.4-2.8
				s9.2,0.8,12.4,2.8l111.2,64.4c1.6,1.2,3.6,2.4,5.2,4.4L172,164L42,89.6z M303.6,247.2c-2.4,4-5.2,7.6-8.8,9.2l-111.6,64.4
				c-1.2,0.4-2,1.2-3.2,1.6V180l127.2-74v0.4v128.8C307.6,238.8,306,243.2,303.6,247.2z"/>
		</g>
	</g>
</g>
<g>
</g>
<g>
</g>
<g>
</g>
<g>
</g>
<g>
</g>
<g>
</g>
<g>
</g>
<g>
</g>
<g>
</g>
<g>
</g>
<g>
</g>
<g>
</g>
<g>
</g>
<g>
</g>
<g>
</g>
</svg>
