<svg id="_x31_px" enable-background="new 0 0 24 24" height="512" viewBox="0 0 24 24" width="512" xmlns="http://www.w3.org/2000/svg"><path d="m12 10c-.053 0-.107-.009-.158-.026l-7.5-2.5c-.204-.068-.342-.259-.342-.474s.138-.406.342-.474l7.5-2.5c.103-.034.214-.034.316 0l7.5 2.5c.204.068.342.259.342.474s-.138.406-.342.474l-7.5 2.5c-.051.017-.105.026-.158.026zm-5.919-3 5.919 1.973 5.919-1.973-5.919-1.973z"/><path d="m12 20c-.053 0-.107-.009-.158-.026l-7.5-2.5c-.204-.068-.342-.259-.342-.474v-10c0-.276.224-.5.5-.5s.5.224.5.5v9.64l7 2.333 7-2.333v-9.64c0-.276.224-.5.5-.5s.5.224.5.5v10c0 .215-.138.406-.342.474l-7.5 2.5c-.051.017-.105.026-.158.026z"/><path d="m12 20c-.276 0-.5-.224-.5-.5v-10c0-.276.224-.5.5-.5s.5.224.5.5v10c0 .276-.224.5-.5.5z"/><path d="m12 24c-.128 0-.256-.049-.354-.146l-1.5-1.5c-.195-.195-.195-.512 0-.707s.512-.195.707 0l1.147 1.146 1.146-1.146c.195-.195.512-.195.707 0s.195.512 0 .707l-1.5 1.5c-.097.097-.225.146-.353.146z"/><path d="m13.5 2.5c-.128 0-.256-.049-.354-.146l-1.146-1.147-1.146 1.146c-.195.195-.512.195-.707 0s-.195-.512 0-.707l1.5-1.5c.195-.195.512-.195.707 0l1.5 1.5c.195.195.195.512 0 .707-.098.098-.226.147-.354.147z"/><path d="m22 14c-.128 0-.256-.049-.354-.146-.195-.195-.195-.512 0-.707l1.147-1.147-1.146-1.146c-.195-.195-.195-.512 0-.707s.512-.195.707 0l1.5 1.5c.195.195.195.512 0 .707l-1.5 1.5c-.098.097-.226.146-.354.146z"/><path d="m2 14c-.128 0-.256-.049-.354-.146l-1.5-1.5c-.195-.195-.195-.512 0-.707l1.5-1.5c.195-.195.512-.195.707 0s.195.512 0 .707l-1.146 1.146 1.146 1.146c.195.195.195.512 0 .707-.097.098-.225.147-.353.147z"/></svg>