<svg height="512pt" viewBox="0 0 512 512.0002" width="512pt" xmlns="http://www.w3.org/2000/svg" xmlns:xlink="http://www.w3.org/1999/xlink"><linearGradient id="a" gradientUnits="userSpaceOnUse" x1="-.0002938322" x2="511.9705221678" y1="256.0000121678" y2="256.0000121678"><stop offset="0" stop-color="#80d8ff"/><stop offset="1" stop-color="#ea80fc"/></linearGradient><path d="m491.960938 0h-314.636719c-5.304688 0-10.390625 2.105469-14.144531 5.855469-5.375 5.378906-156.164063 156.160156-157.449219 157.464843-3.808594 3.878907-5.73437525 9.023438-5.730469 14.011719v314.640625c0 11.042969 8.953125 20 20 20 330.875-.195312 313.746094.308594 317.496094-.226562 4.324218-.621094 8.25-2.589844 11.292968-5.632813l157.324219-157.324219c3.75-3.75 5.855469-8.835937 5.855469-14.140624v-314.648438c.003906-11.027344-8.972656-20.0078125-20.007812-20zm-306.355469 39.996094h258.085937l-117.328125 117.328125h-258.082031zm-145.609375 157.324218h274.652344v274.652344h-274.652344zm314.652344 246.371094v-258.082031l117.324218-117.328125v258.082031zm0 0" fill="url(#a)"/></svg>