<?xml version="1.0" encoding="iso-8859-1"?>
<!-- Generator: Adobe Illustrator 19.0.0, SVG Export Plug-In . SVG Version: 6.00 Build 0)  -->
<svg version="1.1" id="Capa_1" xmlns="http://www.w3.org/2000/svg" xmlns:xlink="http://www.w3.org/1999/xlink" x="0px" y="0px"
	 viewBox="0 0 512 512" style="enable-background:new 0 0 512 512;" xml:space="preserve">
<g>
	<g>
		<path d="M442.973,64.719l-120-63c-4.365-2.292-9.58-2.292-13.945,0l-120,63C184.227,67.228,181,72.352,181,78v132
			c0,5.172,2.665,9.979,7.05,12.72l120,75c4.886,3.062,11.137,2.981,15.9,0l120-75c4.386-2.741,7.05-7.548,7.05-12.72V78
			C451,72.441,447.893,67.318,442.973,64.719z M301,257.936l-90-56.25v-97.193l90,54V257.936z M316,132.507
			c-4.691-2.814-32.32-19.391-89.392-53.635L316,31.941l89.392,46.931L316,132.507z M421,201.686l-90,56.25v-99.443l90-54V201.686z"
			/>
	</g>
</g>
<g>
	<g>
		<path d="M434.068,316.332l-44.087,47.328C384.283,345.34,367.171,332,347,332h-74.323c-13.445,0-15.951-2.709-72.37-30.275
			c-19.775-9.662-41.858-12.852-63.855-9.229c-21.145,3.482-40.277,12.961-55.526,27.441C72.705,309.051,59.661,302,45,302H15
			c-8.284,0-15,6.716-15,15v180c0,8.284,6.716,15,15,15h30c13.471,0,25.57-5.958,33.824-15.368l0.92,0.258
			C114.91,506.775,153.152,512,190.335,512H347c32.873,0,64.275-15.701,84-42l72.011-96.013c0.001-0.001,0.002-0.002,0.003-0.004
			C508.893,366.146,512,356.815,512,347C512,306.143,461.738,286.629,434.068,316.332z M60,467c0,8.271-6.729,15-15,15H30V332h15
			c8.271,0,15,6.729,15,15V467z M479.015,355.981c-0.001,0.001-0.002,0.003-0.003,0.005L407,452c-14.089,18.785-36.519,30-60,30
			H190.335c-33.741,0-68.392-4.645-100.375-13.421C89.978,468.054,90,467.53,90,467V353.213l10.18-10.18
			c22.483-22.481,58.241-28.384,86.958-14.354c55.371,27.054,63.704,33.32,85.54,33.32H347c8.271,0,15,6.729,15,15s-6.729,15-15,15
			H239.394c-17.155,0-32.578,9.532-40.25,24.875c-3.705,7.41-0.701,16.42,6.708,20.125c7.419,3.709,16.424,0.692,20.125-6.708
			c2.557-5.114,7.698-8.292,13.417-8.292h117.66c12.444,0,24.445-5.222,32.928-14.328l66.038-70.892
			c9.232-9.908,25.98-3.395,25.98,10.22C482,350.272,480.968,353.378,479.015,355.981z"/>
	</g>
</g>
<g>
</g>
<g>
</g>
<g>
</g>
<g>
</g>
<g>
</g>
<g>
</g>
<g>
</g>
<g>
</g>
<g>
</g>
<g>
</g>
<g>
</g>
<g>
</g>
<g>
</g>
<g>
</g>
<g>
</g>
</svg>
