<?xml version="1.0" encoding="iso-8859-1"?>
<!-- Generator: Adobe Illustrator 19.0.0, SVG Export Plug-In . SVG Version: 6.00 Build 0)  -->
<svg version="1.1" id="Capa_1" xmlns="http://www.w3.org/2000/svg" xmlns:xlink="http://www.w3.org/1999/xlink" x="0px" y="0px"
	 viewBox="0 0 512 512" style="enable-background:new 0 0 512 512;" xml:space="preserve">
<linearGradient id="SVGID_1_" gradientUnits="userSpaceOnUse" x1="0" y1="258" x2="512" y2="258" gradientTransform="matrix(1 0 0 -1 0 514)">
	<stop  offset="0" style="stop-color:#00F2FE"/>
	<stop  offset="0.021" style="stop-color:#03EFFE"/>
	<stop  offset="0.293" style="stop-color:#24D2FE"/>
	<stop  offset="0.554" style="stop-color:#3CBDFE"/>
	<stop  offset="0.796" style="stop-color:#4AB0FE"/>
	<stop  offset="1" style="stop-color:#4FACFE"/>
</linearGradient>
<path style="fill:url(#SVGID_1_);" d="M492,204c11.046,0,20-8.954,20-20V80c0-44.112-35.888-80-80-80H201
	c-21.925,0-43.101,9.132-58.158,25.066L30.273,137.401C11.846,152.07,0,174.671,0,200v232c0,44.112,35.888,80,80,80h231
	c22.72,0,43.242-9.536,57.818-24.797c0.126-0.119,0.262-0.223,0.386-0.346l119.423-118.349l0.104-0.104
	C503.736,353.314,512,333.283,512,312v-27c0-11.046-8.954-20-20-20s-20,8.954-20,20v27c0,10.619-4.113,20.613-11.585,28.153
	L391,408.943V200c0-17.633-5.746-33.943-15.448-47.18l91.734-91.636C470.29,66.796,472,73.201,472,80v104
	C472,195.046,480.954,204,492,204z M171.32,53.157l0.473-0.487C179.442,44.5,189.814,40,201,40h230.893l-87.448,87.354
	C334.261,122.647,322.937,120,311,120H104.338L171.32,53.157z M80,472c-22.056,0-40-17.944-40-40V200c0-22.056,17.944-40,40-40
	h41.101c-0.065,0.658-0.101,1.325-0.101,2c0,11.046,8.954,20,20,20s20-8.954,20-20c0-0.675-0.036-1.342-0.101-2H311
	c22.056,0,40,17.944,40,40v152c-11.046,0-20,8.954-20,20s8.954,20,20,20v40c0,22.056-17.944,40-40,40H80z M161,372
	c0,11.046-8.954,20-20,20s-20-8.954-20-20s8.954-20,20-20S161,360.954,161,372z M231,372c0,11.046-8.954,20-20,20s-20-8.954-20-20
	s8.954-20,20-20S231,360.954,231,372z M301,372c0,11.046-8.954,20-20,20s-20-8.954-20-20s8.954-20,20-20S301,360.954,301,372z
	 M161,302c0,11.046-8.954,20-20,20s-20-8.954-20-20s8.954-20,20-20S161,290.954,161,302z M161,232c0,11.046-8.954,20-20,20
	s-20-8.954-20-20s8.954-20,20-20S161,220.954,161,232z M112,421c0,11.046-8.954,20-20,20s-20-8.954-20-20s8.954-20,20-20
	S112,409.954,112,421z"/>
<g>
</g>
<g>
</g>
<g>
</g>
<g>
</g>
<g>
</g>
<g>
</g>
<g>
</g>
<g>
</g>
<g>
</g>
<g>
</g>
<g>
</g>
<g>
</g>
<g>
</g>
<g>
</g>
<g>
</g>
</svg>
