<?xml version="1.0" encoding="iso-8859-1"?>
<!-- Generator: Adobe Illustrator 19.0.0, SVG Export Plug-In . SVG Version: 6.00 Build 0)  -->
<svg version="1.1" id="Capa_1" xmlns="http://www.w3.org/2000/svg" xmlns:xlink="http://www.w3.org/1999/xlink" x="0px" y="0px"
	 viewBox="0 0 469.333 469.333" style="enable-background:new 0 0 469.333 469.333;" xml:space="preserve">
<path style="fill:#303C42;" d="M458.667,0h-320c-2.954,0-5.624,1.201-7.555,3.138L3.138,131.112C1.201,133.043,0,135.712,0,138.667
	v320c0,5.896,4.771,10.667,10.667,10.667h320c2.954,0,5.624-1.201,7.555-3.138l127.974-127.974c1.938-1.931,3.138-4.6,3.138-7.555
	v-320C469.333,4.771,464.563,0,458.667,0z"/>
<g>
	<polygon style="fill:#BBDEFB;" points="341.333,341.333 432.917,341.333 341.333,432.917 	"/>
	<polygon style="fill:#BBDEFB;" points="448,320 341.333,320 341.333,143.083 448,36.417 	"/>
	<polygon style="fill:#BBDEFB;" points="432.917,21.333 326.25,128 149.333,128 149.333,21.333 	"/>
	<polygon style="fill:#BBDEFB;" points="128,128 36.417,128 128,36.417 	"/>
	<path style="fill:#BBDEFB;" d="M36.417,448l11.958-11.958c4.167-4.167,4.167-10.917,0-15.083s-10.917-4.167-15.083,0
		l-11.958,11.958V149.333H128V160c0,5.896,4.771,10.667,10.667,10.667s10.667-4.771,10.667-10.667v-10.667H320V320h-12.667
		c-5.896,0-10.667,4.771-10.667,10.667c0,5.896,4.771,10.667,10.667,10.667H320V448H36.417z"/>
</g>
<g>
	<path style="fill:#303C42;" d="M252.083,320H215.25c-5.896,0-10.667,4.771-10.667,10.667c0,5.896,4.771,10.667,10.667,10.667
		h36.833c5.896,0,10.667-4.771,10.667-10.667C262.75,324.771,257.979,320,252.083,320z"/>
	<path style="fill:#303C42;" d="M160,320h-10.667v-10.667c0-5.896-4.771-10.667-10.667-10.667S128,303.438,128,309.333v16.921
		l-4.188,4.194c-4.167,4.177-4.167,10.927,0,15.094c2.083,2.073,4.813,3.115,7.542,3.115s5.458-1.042,7.542-3.125l4.191-4.198H160
		c5.896,0,10.667-4.771,10.667-10.667C170.667,324.771,165.896,320,160,320z"/>
	<path style="fill:#303C42;" d="M138.667,264c5.896,0,10.667-4.771,10.667-10.667V216c0-5.896-4.771-10.667-10.667-10.667
		S128,210.104,128,216v37.333C128,259.229,132.771,264,138.667,264z"/>
	<path style="fill:#303C42;" d="M93.625,360.615l-30.167,30.167c-4.167,4.167-4.167,10.917,0,15.083
		c2.083,2.083,4.813,3.125,7.542,3.125c2.729,0,5.458-1.042,7.542-3.125l30.167-30.167c4.167-4.167,4.167-10.917,0-15.083
		S97.792,356.448,93.625,360.615z"/>
</g>
<linearGradient id="SVGID_1_" gradientUnits="userSpaceOnUse" x1="-66.8372" y1="618.1894" x2="-45.2358" y2="608.1127" gradientTransform="matrix(21.3333 0 0 -21.3333 1430.1112 13315.2227)">
	<stop  offset="0" style="stop-color:#FFFFFF;stop-opacity:0.2"/>
	<stop  offset="1" style="stop-color:#FFFFFF;stop-opacity:0"/>
</linearGradient>
<path style="fill:url(#SVGID_1_);" d="M458.667,0h-320c-2.954,0-5.624,1.201-7.555,3.138L3.138,131.112
	C1.201,133.043,0,135.712,0,138.667v320c0,5.896,4.771,10.667,10.667,10.667h320c2.954,0,5.624-1.201,7.555-3.138l127.974-127.974
	c1.938-1.931,3.138-4.6,3.138-7.555v-320C469.333,4.771,464.563,0,458.667,0z"/>
<g>
</g>
<g>
</g>
<g>
</g>
<g>
</g>
<g>
</g>
<g>
</g>
<g>
</g>
<g>
</g>
<g>
</g>
<g>
</g>
<g>
</g>
<g>
</g>
<g>
</g>
<g>
</g>
<g>
</g>
</svg>
