<?xml version="1.0" encoding="iso-8859-1"?>
<!-- Generator: Adobe Illustrator 19.0.0, SVG Export Plug-In . SVG Version: 6.00 Build 0)  -->
<svg version="1.1" id="Capa_1" xmlns="http://www.w3.org/2000/svg" xmlns:xlink="http://www.w3.org/1999/xlink" x="0px" y="0px"
	 viewBox="0 0 512 512" style="enable-background:new 0 0 512 512;" xml:space="preserve">
<g>
	<g>
		<path d="M150,362V0H0v512h512V362H150z M30,30h90v30.333H75v30h45v30.333H75v30h45V181H75v30h45v30.333H75v30h45v30.333H75v30h45
			v39.121l-90,90V30z M482,482H51.213l90-90h39.12v45h30v-45h30.334v45h30v-45H301v45h30v-45h30.333v45h30v-45h30.334v45h30v-45H482
			V482z"/>
	</g>
</g>
<g>
	<g>
		<path d="M316,76.719l-106.025,54.769v129.024L316,315.281l106.025-54.769V131.488L316,76.719z M301,273.766l-61.025-31.523
			v-76.989L301,196.778V273.766z M257.658,140.622L316,110.485l58.342,30.138L316,170.76L257.658,140.622z M392.025,242.243
			L331,273.766v-76.988l61.025-31.524V242.243z"/>
	</g>
</g>
<g>
</g>
<g>
</g>
<g>
</g>
<g>
</g>
<g>
</g>
<g>
</g>
<g>
</g>
<g>
</g>
<g>
</g>
<g>
</g>
<g>
</g>
<g>
</g>
<g>
</g>
<g>
</g>
<g>
</g>
</svg>
